<!--
 Copyright 2022 Indoc Research
 
 Licensed under the EUPL, Version 1.2 or – as soon they
 will be approved by the European Commission - subsequent
 versions of the EUPL (the "Licence");
 You may not use this work except in compliance with the
 Licence.
 You may obtain a copy of the Licence at:
 
 https://joinup.ec.europa.eu/collection/eupl/eupl-text-eupl-12
 
 Unless required by applicable law or agreed to in
 writing, software distributed under the Licence is
 distributed on an "AS IS" basis,
 WITHOUT WARRANTIES OR CONDITIONS OF ANY KIND, either
 express or implied.
 See the Licence for the specific language governing
 permissions and limitations under the Licence.
 
-->

<svg id="Layer_1" data-name="Layer 1" xmlns="http://www.w3.org/2000/svg" viewBox="0 0 241.82 60.87"><defs><style>.cls-1{fill:#fff;}</style></defs><g id="Marke"><path id="Path_2053" data-name="Path 2053" class="cls-1" d="M177.43,28.34a3.14,3.14,0,0,1-1.23,2.73,5.66,5.66,0,0,1-3.41.9h-3.3V19.09h2.79a6,6,0,0,1,3.43.82,2.91,2.91,0,0,1-1.09,5.25,3,3,0,0,1,2.81,3.11Zm-6.2-7.92v4.16h1.61a2.46,2.46,0,0,0,1.69-.55,2,2,0,0,0,.61-1.54,1.83,1.83,0,0,0-.67-1.58,3.37,3.37,0,0,0-2-.48h-1.21Zm3.67,9.65a2.05,2.05,0,0,0,.73-1.77q0-2.43-2.64-2.43h-1.76v4.74h1.57A3.45,3.45,0,0,0,174.9,30.07Z" transform="translate(-34.71 -17.48)"/><path id="Path_2054" data-name="Path 2054" class="cls-1" d="M186.23,27.63H180.5a4.26,4.26,0,0,0,.69,2.48,2,2,0,0,0,1.69.76,3.35,3.35,0,0,0,1.21-.21A4.09,4.09,0,0,0,185.2,30l.75,1a4.58,4.58,0,0,1-3.14,1.23,3.59,3.59,0,0,1-3-1.34,5.93,5.93,0,0,1-1.06-3.76,6.48,6.48,0,0,1,1-3.83,3.54,3.54,0,0,1,5.55-.15,5.9,5.9,0,0,1,1,3.61C186.27,27,186.26,27.3,186.23,27.63Zm-1.59-1.39q0-3.09-2-3.09a1.73,1.73,0,0,0-1.48.77,4.93,4.93,0,0,0-.62,2.52h4.14v-.2Z" transform="translate(-34.71 -17.48)"/><path id="Path_2055" data-name="Path 2055" class="cls-1" d="M193,22l-.29,1.63a2.42,2.42,0,0,0-.76-.12,1.63,1.63,0,0,0-1.34.66,5,5,0,0,0-.82,2V32H188.1V22.12h1.46l.14,1.95c.48-1.45,1.3-2.17,2.45-2.17A2.76,2.76,0,0,1,193,22Z" transform="translate(-34.71 -17.48)"/><path id="Path_2056" data-name="Path 2056" class="cls-1" d="M194.8,31.67a2.09,2.09,0,0,1-.53-1.51v-12l1.69-.19V30.09c0,.49.2.74.6.74a2.08,2.08,0,0,0,.54-.11l.37,1.17a2.61,2.61,0,0,1-1.25.32A1.83,1.83,0,0,1,194.8,31.67Z" transform="translate(-34.71 -17.48)"/><path id="Path_2057" data-name="Path 2057" class="cls-1" d="M200.53,17.79a1.07,1.07,0,0,1,.31.79,1.12,1.12,0,0,1-1.17,1.08,1.16,1.16,0,0,1-.73-.3,1,1,0,0,1-.31-.78,1.07,1.07,0,0,1,1-1.1h.07A1.07,1.07,0,0,1,200.53,17.79Zm.05,4.33V32H198.9V22.12Z" transform="translate(-34.71 -17.48)"/><path id="Path_2058" data-name="Path 2058" class="cls-1" d="M209.23,22.65a3.22,3.22,0,0,1,.66,2.15V32h-1.68V25a2.3,2.3,0,0,0-.32-1.38,1.15,1.15,0,0,0-1-.42c-.82,0-1.57.58-2.24,1.76v7H203V22.12h1.46l.13,1.46a3.32,3.32,0,0,1,2.81-1.7A2.36,2.36,0,0,1,209.23,22.65Z" transform="translate(-34.71 -17.48)"/><path id="Path_2059" data-name="Path 2059" class="cls-1" d="M218.71,19.09V32H217V19.09Z" transform="translate(-34.71 -17.48)"/><path id="Path_2060" data-name="Path 2060" class="cls-1" d="M227.33,22.65A3.22,3.22,0,0,1,228,24.8V32h-1.68V25a2.3,2.3,0,0,0-.32-1.38,1.13,1.13,0,0,0-1-.42c-.83,0-1.58.58-2.25,1.76v7h-1.69V22.12h1.46l.13,1.46a3.34,3.34,0,0,1,2.81-1.7A2.32,2.32,0,0,1,227.33,22.65Z" transform="translate(-34.71 -17.48)"/><path id="Path_2061" data-name="Path 2061" class="cls-1" d="M236.1,23l-.71,1a5.33,5.33,0,0,0-1.12-.62,3,3,0,0,0-1.1-.21,1.89,1.89,0,0,0-1.21.37,1.22,1.22,0,0,0-.44,1,1.2,1.2,0,0,0,.42,1,4.83,4.83,0,0,0,1.6.73,5.26,5.26,0,0,1,2.16,1.15,2.49,2.49,0,0,1,.67,1.85,2.62,2.62,0,0,1-1,2.19,4,4,0,0,1-2.53.79,4.72,4.72,0,0,1-3.39-1.33l.86-.94a3.89,3.89,0,0,0,2.49,1,2.09,2.09,0,0,0,1.34-.41,1.41,1.41,0,0,0,.5-1.14,1.38,1.38,0,0,0-.81-1.42,8.12,8.12,0,0,0-1.34-.53,4.93,4.93,0,0,1-2-1.13,2.32,2.32,0,0,1-.62-1.66,2.45,2.45,0,0,1,.41-1.41,2.82,2.82,0,0,1,1.14-1,3.78,3.78,0,0,1,1.69-.36A4.52,4.52,0,0,1,236.1,23Z" transform="translate(-34.71 -17.48)"/><path id="Path_2062" data-name="Path 2062" class="cls-1" d="M243.24,31.54a3.54,3.54,0,0,1-2.08.68,2.37,2.37,0,0,1-1.84-.7,2.71,2.71,0,0,1-.65-1.94V23.4h-1.41V22.12h1.41V19.85l1.68-.2v2.47h2.18l-.19,1.28h-2v6.16c0,.85.35,1.27,1.06,1.27a2,2,0,0,0,.6-.09,3.28,3.28,0,0,0,.6-.28Z" transform="translate(-34.71 -17.48)"/><path id="Path_2063" data-name="Path 2063" class="cls-1" d="M246.11,17.79a1.15,1.15,0,0,1,.31.79,1.13,1.13,0,0,1-1.18,1.08,1.16,1.16,0,0,1-.73-.3,1.11,1.11,0,0,1,.73-1.88h.07A1.08,1.08,0,0,1,246.11,17.79Zm0,4.33V32h-1.69V22.12Z" transform="translate(-34.71 -17.48)"/><path id="Path_2064" data-name="Path 2064" class="cls-1" d="M253.58,31.54a3.51,3.51,0,0,1-2.07.68,2.41,2.41,0,0,1-1.85-.7,2.76,2.76,0,0,1-.65-1.94V23.4h-1.4V22.12H249V19.85l1.69-.2v2.47h2.17l-.18,1.28h-2v6.16c0,.85.36,1.27,1.07,1.27a2,2,0,0,0,.59-.09,3.37,3.37,0,0,0,.61-.28Z" transform="translate(-34.71 -17.48)"/><path id="Path_2065" data-name="Path 2065" class="cls-1" d="M261.39,32h-1.46l-.09-1.48a3.1,3.1,0,0,1-2.75,1.73,2.38,2.38,0,0,1-1.86-.77,3,3,0,0,1-.68-2.08V22.12h1.69v7.1a2,2,0,0,0,.32,1.27,1.21,1.21,0,0,0,1,.4c.84,0,1.55-.55,2.15-1.65V22.12h1.69V32Z" transform="translate(-34.71 -17.48)"/><path id="Path_2066" data-name="Path 2066" class="cls-1" d="M268.65,31.54a3.51,3.51,0,0,1-2.07.68,2.41,2.41,0,0,1-1.85-.7,2.7,2.7,0,0,1-.64-1.94V23.4h-1.41V22.12h1.41V19.85l1.68-.2v2.47h2.17l-.18,1.28h-2v6.16c0,.85.36,1.27,1.07,1.27a2,2,0,0,0,.59-.09,3.37,3.37,0,0,0,.61-.28Z" transform="translate(-34.71 -17.48)"/><path id="Path_2067" data-name="Path 2067" class="cls-1" d="M276.48,27.63h-5.73a4.26,4.26,0,0,0,.69,2.48,2,2,0,0,0,1.69.76,3.15,3.15,0,0,0,1.21-.21,4.06,4.06,0,0,0,1.11-.67l.75,1a4.6,4.6,0,0,1-3.15,1.24,3.58,3.58,0,0,1-3-1.34A5.88,5.88,0,0,1,269,27.12a6.53,6.53,0,0,1,1-3.84,3.54,3.54,0,0,1,5.54-.15,5.93,5.93,0,0,1,1,3.61C276.52,27,276.51,27.3,276.48,27.63Zm-1.59-1.39q0-3.09-2-3.09a1.7,1.7,0,0,0-1.48.77,4.84,4.84,0,0,0-.62,2.52h4.14Z" transform="translate(-34.71 -17.48)"/><path id="Path_2068" data-name="Path 2068" class="cls-1" d="M175.78,42.45a6,6,0,0,1,1.05,3.82,6.08,6.08,0,0,1-1.07,3.79,3.82,3.82,0,0,1-5.39.52,3.86,3.86,0,0,1-.5-.49,7.35,7.35,0,0,1,0-7.61,3.9,3.9,0,0,1,5.51-.41A2.79,2.79,0,0,1,175.78,42.45Zm-4.63.94a5.61,5.61,0,0,0-.58,2.9c0,2.55.75,3.84,2.25,3.84s2.25-1.28,2.25-3.86a5.78,5.78,0,0,0-.56-2.89,1.85,1.85,0,0,0-1.67-.91A1.88,1.88,0,0,0,171.15,43.39Z" transform="translate(-34.71 -17.48)"/><path id="Path_2069" data-name="Path 2069" class="cls-1" d="M181,38.85a1.43,1.43,0,0,0-.32,1v1.46h2.21l-.19,1.28h-2v8.58H179V42.64h-1.46V41.36H179V39.92a2.64,2.64,0,0,1,.76-2,2.85,2.85,0,0,1,2.11-.75,4.84,4.84,0,0,1,2.21.54l-.51,1.16a3.53,3.53,0,0,0-1.53-.38A1.45,1.45,0,0,0,181,38.85Z" transform="translate(-34.71 -17.48)"/><path id="Path_2070" data-name="Path 2070" class="cls-1" d="M195.13,51.21V45.16h-4.68v6.05H188.7V38.33h1.75v5.41h4.68V38.33h1.74V51.21Z" transform="translate(-34.71 -17.48)"/><path id="Path_2071" data-name="Path 2071" class="cls-1" d="M206.12,46.87h-5.74a4.19,4.19,0,0,0,.7,2.48,2,2,0,0,0,1.68.76A3.15,3.15,0,0,0,204,49.9a4.06,4.06,0,0,0,1.11-.67l.75,1a4.59,4.59,0,0,1-3.14,1.24,3.57,3.57,0,0,1-3-1.35,5.9,5.9,0,0,1-1.06-3.75,6.51,6.51,0,0,1,1-3.84,3.26,3.26,0,0,1,2.81-1.41,3.2,3.2,0,0,1,2.73,1.27,5.91,5.91,0,0,1,1,3.61C206.15,46.25,206.14,46.54,206.12,46.87Zm-1.6-1.39q0-3.09-2-3.09a1.74,1.74,0,0,0-1.49.78,4.83,4.83,0,0,0-.61,2.52h4.14v-.2Z" transform="translate(-34.71 -17.48)"/><path id="Path_2072" data-name="Path 2072" class="cls-1" d="M214.29,49.86a1,1,0,0,0,.53.44l-.36,1.14a2.24,2.24,0,0,1-1.14-.45,1.89,1.89,0,0,1-.59-1,3,3,0,0,1-2.67,1.5,2.7,2.7,0,0,1-2.08-.82,3.09,3.09,0,0,1-.77-2.19,2.9,2.9,0,0,1,1-2.4,4.61,4.61,0,0,1,2.94-.82h1.28v-.85A2.22,2.22,0,0,0,212,42.9a1.81,1.81,0,0,0-1.37-.46,6.81,6.81,0,0,0-2.4.53l-.41-1.18a8.1,8.1,0,0,1,3.07-.67c2.13,0,3.2,1.06,3.2,3.2V49A1.86,1.86,0,0,0,214.29,49.86Zm-1.83-1.21V46.32h-1.09q-2.43,0-2.43,2a2,2,0,0,0,.39,1.35,1.35,1.35,0,0,0,1.12.47,2.19,2.19,0,0,0,2-1.53Z" transform="translate(-34.71 -17.48)"/><path id="Path_2073" data-name="Path 2073" class="cls-1" d="M217,50.91a2.13,2.13,0,0,1-.52-1.51v-12l1.68-.19V49.33c0,.49.2.74.6.74a2.07,2.07,0,0,0,.55-.11l.37,1.17a2.62,2.62,0,0,1-1.26.32A1.86,1.86,0,0,1,217,50.91Z" transform="translate(-34.71 -17.48)"/><path id="Path_2074" data-name="Path 2074" class="cls-1" d="M225.81,50.79a3.51,3.51,0,0,1-2.08.67,2.39,2.39,0,0,1-1.84-.69,2.77,2.77,0,0,1-.65-2V42.64h-1.41V41.36h1.41V39.1l1.69-.21v2.47h2.17l-.18,1.28h-2V48.8c0,.85.36,1.27,1.07,1.27a2,2,0,0,0,.59-.09,4.22,4.22,0,0,0,.61-.28Z" transform="translate(-34.71 -17.48)"/><path id="Path_2075" data-name="Path 2075" class="cls-1" d="M233.29,41.91A3.16,3.16,0,0,1,234,44v7.18h-1.68v-7a2.4,2.4,0,0,0-.33-1.38,1.2,1.2,0,0,0-1-.42c-.82,0-1.57.59-2.25,1.76v7h-1.68V37.39l1.68-.18v5.56a4.4,4.4,0,0,1,1.2-1.23,2.84,2.84,0,0,1,1.52-.42A2.28,2.28,0,0,1,233.29,41.91Z" transform="translate(-34.71 -17.48)"/><path id="Path_2076" data-name="Path 2076" class="cls-1" d="M89.59,50.32q3.34,3.13,3.34,9.42,0,8.68-6,12.6T70.37,76.27H54.09V19.07H68.3q10.83,0,16.65,3.6t5.84,11a11.39,11.39,0,0,1-2.85,8A15.34,15.34,0,0,1,80.62,46,18.16,18.16,0,0,1,89.59,50.32ZM66,27.67V42.38h4.3q8.34,0,8.34-7.6,0-3.8-2.19-5.45t-7-1.66Zm12.1,37.94q2.61-1.81,2.6-6.45,0-8.67-9.59-8.68H66v17h4.46q5,0,7.65-1.82Z" transform="translate(-34.71 -17.48)"/><path id="Path_2077" data-name="Path 2077" class="cls-1" d="M110.94,19.07v57.2H99V19.07Z" transform="translate(-34.71 -17.48)"/><path id="Path_2078" data-name="Path 2078" class="cls-1" d="M148,76.27V51.14H132.17V76.27h-11.9V19.07h11.9V41.72H148V19.07h11.9v57.2Z" transform="translate(-34.71 -17.48)"/><rect id="Rectangle_406" data-name="Rectangle 406" class="cls-1" y="25" width="10.73" height="33.79"/><path id="Path_2079" data-name="Path 2079" class="cls-1" d="M179.64,63.6a4.81,4.81,0,0,1,1.94,2,6.4,6.4,0,0,1,.65,2.92,9.64,9.64,0,0,1-.41,2.72,5.87,5.87,0,0,1-1.26,2.36,2.72,2.72,0,0,1-2.13,1,1.51,1.51,0,0,1-1.26-.51,2.15,2.15,0,0,1-.48-1.22,2.66,2.66,0,0,1-2.36,1.7,2,2,0,0,1-1.61-.75,3.2,3.2,0,0,1-.61-2,8.17,8.17,0,0,1,.4-2.5,4.72,4.72,0,0,1,1.31-2,3.26,3.26,0,0,1,2.29-.81,4.46,4.46,0,0,1,2.28.64l-.66,4.82a5.53,5.53,0,0,0,0,.58,1.38,1.38,0,0,0,.16.72.66.66,0,0,0,.59.27,1.59,1.59,0,0,0,1.32-.78,5.42,5.42,0,0,0,.78-1.93,10,10,0,0,0,.26-2.25,4.47,4.47,0,0,0-1.12-3.24,4.24,4.24,0,0,0-3.21-1.16,5.67,5.67,0,0,0-3.76,1.22,7,7,0,0,0-2.12,3,10.4,10.4,0,0,0-.66,3.57,6.54,6.54,0,0,0,.55,2.69,4.38,4.38,0,0,0,1.61,1.85,4.64,4.64,0,0,0,2.51.67,8.29,8.29,0,0,0,3-.58l.26,1.18a12,12,0,0,1-1.65.48,8.28,8.28,0,0,1-1.72.16,5.94,5.94,0,0,1-3.15-.82,5.71,5.71,0,0,1-2.12-2.29,7.14,7.14,0,0,1-.75-3.34,10.77,10.77,0,0,1,.85-4.12,8.14,8.14,0,0,1,2.66-3.5,7.16,7.16,0,0,1,4.55-1.41A6,6,0,0,1,179.64,63.6Zm-3.92,9.32a4.46,4.46,0,0,0,.71-1.11l.61-4.15a2.39,2.39,0,0,0-.92-.18,2.06,2.06,0,0,0-2,1.31,7.28,7.28,0,0,0-.6,3c0,1.09.36,1.64,1.09,1.64a1.43,1.43,0,0,0,1.12-.53Z" transform="translate(-34.71 -17.48)"/><path id="Path_2080" data-name="Path 2080" class="cls-1" d="M192.47,64.14a3.77,3.77,0,0,1,1.28.92l-.91.88a3.54,3.54,0,0,0-1-.62,2.53,2.53,0,0,0-1-.19,2.83,2.83,0,0,0-2.25,1,6.29,6.29,0,0,0-1.29,2.55,12.55,12.55,0,0,0-.4,3.1,3.93,3.93,0,0,0,.61,2.41,2,2,0,0,0,1.67.77,2.74,2.74,0,0,0,1.23-.25,9.61,9.61,0,0,0,1.23-.75l.66,1.05a4.81,4.81,0,0,1-3.28,1.3,3.38,3.38,0,0,1-2.75-1.21,5.27,5.27,0,0,1-1-3.43,12,12,0,0,1,.6-3.67,7.29,7.29,0,0,1,1.85-3,4.35,4.35,0,0,1,3.11-1.2A4,4,0,0,1,192.47,64.14Z" transform="translate(-34.71 -17.48)"/><path id="Path_2081" data-name="Path 2081" class="cls-1" d="M200.44,67.26a2.36,2.36,0,0,1,.55,1.65q0,.3,0,.6L200,76.14H198.5l.91-6.6q0-.37,0-.51c0-.71-.28-1.07-.86-1.07-.83,0-1.7.84-2.62,2.53l-.77,5.65h-1.53l1.83-13L197,63l-.79,5.54A3.28,3.28,0,0,1,199,66.66,1.84,1.84,0,0,1,200.44,67.26Z" transform="translate(-34.71 -17.48)"/><path id="Path_2082" data-name="Path 2082" class="cls-1" d="M209.92,67.39,209,74c0,.24,0,.39,0,.48a1,1,0,0,0,.1.47.71.71,0,0,0,.39.29l-.49,1.07a1.52,1.52,0,0,1-1.45-1.5A4.46,4.46,0,0,1,206.35,76a2.46,2.46,0,0,1-1.35.38,2.31,2.31,0,0,1-1.95-.9,3.83,3.83,0,0,1-.7-2.43,9.2,9.2,0,0,1,.49-2.94,5.5,5.5,0,0,1,1.57-2.42,3.8,3.8,0,0,1,2.67-1A6.52,6.52,0,0,1,209.92,67.39Zm-4.6,1.28a4.81,4.81,0,0,0-1,1.94A8.83,8.83,0,0,0,204,73c0,1.41.46,2.11,1.37,2.11a1.74,1.74,0,0,0,1.14-.42,6.48,6.48,0,0,0,1.09-1.25l.74-5.31a3.37,3.37,0,0,0-1.21-.23,2.32,2.32,0,0,0-1.77.77Z" transform="translate(-34.71 -17.48)"/><path id="Path_2083" data-name="Path 2083" class="cls-1" d="M216.88,66.8l-.47,1.47a3.25,3.25,0,0,0-.69-.08,1.67,1.67,0,0,0-1.36.76,7.69,7.69,0,0,0-1.06,2.22l-.69,5h-1.53l1.3-9.27h1.32l-.12,1.8a4.19,4.19,0,0,1,1.09-1.48,2.08,2.08,0,0,1,1.39-.5A2.86,2.86,0,0,1,216.88,66.8Z" transform="translate(-34.71 -17.48)"/><path id="Path_2084" data-name="Path 2084" class="cls-1" d="M219.7,66.87l-1.3,9.26h-1.53l1.3-9.26Zm-1.14-2.55a.93.93,0,0,1-.27-.69,1.09,1.09,0,0,1,.34-.83,1.18,1.18,0,0,1,.81-.33,1,1,0,0,1,.7.27.92.92,0,0,1,.27.68,1.14,1.14,0,0,1-1.1,1.17h-.05A1,1,0,0,1,218.56,64.32Z" transform="translate(-34.71 -17.48)"/><path id="Path_2085" data-name="Path 2085" class="cls-1" d="M223,73.92c0,.11,0,.22,0,.33a.84.84,0,0,0,.19.61.71.71,0,0,0,.57.2,1.76,1.76,0,0,0,.55-.09,3,3,0,0,0,.64-.28l.48,1a3.38,3.38,0,0,1-1.92.62,2.06,2.06,0,0,1-1.5-.54,2,2,0,0,1-.55-1.47,4.44,4.44,0,0,1,0-.5l.8-5.76h-1.4l.18-1.21h1.46l.54-2.15,1.25-.14L224,66.87h2l-.35,1.21h-1.78Z" transform="translate(-34.71 -17.48)"/><path id="Path_2086" data-name="Path 2086" class="cls-1" d="M231.79,71.56a11.74,11.74,0,0,1-4.1,1.11v.11c0,1.51.56,2.27,1.7,2.26a2.8,2.8,0,0,0,1.11-.2,4.71,4.71,0,0,0,1.12-.62l.65,1a5,5,0,0,1-3,1.11,2.92,2.92,0,0,1-2.31-.94,3.8,3.8,0,0,1-.82-2.61,9,9,0,0,1,.47-2.87,5.25,5.25,0,0,1,1.49-2.33,3.66,3.66,0,0,1,2.54-.92,2.74,2.74,0,0,1,2,.66,2.13,2.13,0,0,1,.69,1.64A2.67,2.67,0,0,1,231.79,71.56Zm-3.13-2.62a6.31,6.31,0,0,0-.88,2.55,8.27,8.27,0,0,0,3-.78A1.8,1.8,0,0,0,231.7,69a1.21,1.21,0,0,0-.28-.81,1.16,1.16,0,0,0-.88-.31,2.11,2.11,0,0,0-1.88,1Zm3.65-6.82.58,1.27-3.53,1.51-.41-.81Z" transform="translate(-34.71 -17.48)"/></g></svg>