<!--
 Copyright 2022 Indoc Research
 
 Licensed under the EUPL, Version 1.2 or – as soon they
 will be approved by the European Commission - subsequent
 versions of the EUPL (the "Licence");
 You may not use this work except in compliance with the
 Licence.
 You may obtain a copy of the Licence at:
 
 https://joinup.ec.europa.eu/collection/eupl/eupl-text-eupl-12
 
 Unless required by applicable law or agreed to in
 writing, software distributed under the Licence is
 distributed on an "AS IS" basis,
 WITHOUT WARRANTIES OR CONDITIONS OF ANY KIND, either
 express or implied.
 See the Licence for the specific language governing
 permissions and limitations under the Licence.
 
-->

<svg id="Layer_1" data-name="Layer 1" xmlns="http://www.w3.org/2000/svg" viewBox="0 0 226.58 83.69"><defs><style>.cls-1,.cls-2{fill:#fff;}.cls-2{fill-rule:evenodd;}</style></defs><g id="Group_604" data-name="Group 604"><g id="Group_557" data-name="Group 557"><path id="Path_2087" data-name="Path 2087" class="cls-1" d="M234.26,34h7.08V31H224v3h7V60h3.24V34" transform="translate(-42.36 -3.61)"/><rect id="Rectangle_408" data-name="Rectangle 408" class="cls-1" x="166.22" y="27.34" width="3.23" height="29.02"/><path id="Path_2088" data-name="Path 2088" class="cls-2" d="M159.65,51.73H147.26L143.76,60h-3.54L153,31l.61-1.35L154.2,31l12.46,29h-3.59Zm-1.27-3-4.85-11.62-5,11.62h9.81" transform="translate(-42.36 -3.61)"/><path id="Path_2089" data-name="Path 2089" class="cls-2" d="M180.5,34V44.38h4.05c3.73,0,6.3-1.72,6.3-5.41s-3-5-6.34-5Zm7.64,12.84L195.2,60h-3.75l-6.59-12.74H180.5V60h-3.23V31h7.66c4.77,0,9.15,2.18,9.15,8a7.74,7.74,0,0,1-5.94,7.82" transform="translate(-42.36 -3.61)"/><path id="Path_2090" data-name="Path 2090" class="cls-1" d="M253,60h15.7V57H256.26V45.57H267v-3H256.27V34h12V31H253V60" transform="translate(-42.36 -3.61)"/><path id="Path_2091" data-name="Path 2091" class="cls-1" d="M262.25,20.4l-4.58,6.31,1.92,1.08,5.89-5.93-3.23-1.46" transform="translate(-42.36 -3.61)"/><path id="Path_2092" data-name="Path 2092" class="cls-1" d="M111.64,42.73h9.85v3h-9.85V60h-3.23V31h3.23V42.73" transform="translate(-42.36 -3.61)"/><rect id="Rectangle_409" data-name="Rectangle 409" class="cls-1" x="83.54" y="27.34" width="3.23" height="29.02"/><path id="Path_2093" data-name="Path 2093" class="cls-1" d="M42.36,45.46a42.12,42.12,0,0,1,69.29-31.91V20a36.95,36.95,0,1,0-1.56,52.22c.54-.5,1-1,1.56-1.55v6.7a42.11,42.11,0,0,1-69.29-31.9" transform="translate(-42.36 -3.61)"/><path id="Path_2094" data-name="Path 2094" class="cls-1" d="M95.67,33.18a13.87,13.87,0,0,0-8.57-2.82A14.81,14.81,0,0,0,71.78,44.65c0,.31,0,.61,0,.92,0,8.17,6,15,15.33,15a14.75,14.75,0,0,0,8.57-2.82V53.85A12.44,12.44,0,0,1,87,57.63c-7,0-11.71-5.82-11.71-12.17s4.57-12.18,11.63-12.18a12.24,12.24,0,0,1,8.75,3.78V33.18" transform="translate(-42.36 -3.61)"/></g><g id="Group_560" data-name="Group 560"><g id="Group_558" data-name="Group 558"><path id="Path_2095" data-name="Path 2095" class="cls-1" d="M121.15,77.47c-1.7,0-2.58-1.1-2.58-3v-4h1v4c0,1.29.54,2,1.57,2s1.59-.67,1.59-1.92v-4h1v4C123.79,76.41,122.86,77.47,121.15,77.47Z" transform="translate(-42.36 -3.61)"/><path id="Path_2096" data-name="Path 2096" class="cls-1" d="M129.92,77.36l-2.73-4.3c-.17-.26-.4-.67-.51-.85,0,.26,0,1.21,0,1.59v3.56h-1V70.5h1l2.61,4.18c.17.29.47.8.56,1,0-.25,0-1.23,0-1.61V70.5h1v6.86Z" transform="translate(-42.36 -3.61)"/><path id="Path_2097" data-name="Path 2097" class="cls-1" d="M132.9,77.36V70.5h1v6.86Z" transform="translate(-42.36 -3.61)"/><path id="Path_2098" data-name="Path 2098" class="cls-1" d="M139,77.36h-1.09l-2.39-6.86h1.12L138,74.87c.13.4.33,1,.38,1.25.06-.24.26-.86.39-1.26l1.41-4.36h1.1Z" transform="translate(-42.36 -3.61)"/><path id="Path_2099" data-name="Path 2099" class="cls-1" d="M142.84,77.36V70.5h4.42v1h-3.39v1.7h2v1h-2v2.16h3.53v1Z" transform="translate(-42.36 -3.61)"/><path id="Path_2100" data-name="Path 2100" class="cls-1" d="M152.74,74.55l1.4,2.8H153l-1.36-2.71H150v2.71h-1V70.49h3a2,2,0,0,1,2.19,1.74,1.62,1.62,0,0,1,0,.31A1.9,1.9,0,0,1,152.74,74.55Zm-.7-3.08h-2v2.2h2a1,1,0,0,0,1.16-.89.74.74,0,0,0,0-.21,1.05,1.05,0,0,0-1-1.11Z" transform="translate(-42.36 -3.61)"/><path id="Path_2101" data-name="Path 2101" class="cls-1" d="M158.06,77.46a3.16,3.16,0,0,1-2.44-1.1l.73-.72a2.5,2.5,0,0,0,1.79.81c1,0,1.42-.33,1.42-1,0-.52-.4-.79-1.55-1.13-1.45-.43-2.15-.8-2.15-2A2,2,0,0,1,158,70.37l.16,0a3.06,3.06,0,0,1,2.24.93l-.72.73a2.06,2.06,0,0,0-1.6-.65c-.8,0-1.15.39-1.15.85s.31.71,1.5,1.07c1.35.41,2.2.84,2.2,2.06S159.81,77.46,158.06,77.46Z" transform="translate(-42.36 -3.61)"/><path id="Path_2102" data-name="Path 2102" class="cls-1" d="M162.35,77.36V70.5h1v6.86Z" transform="translate(-42.36 -3.61)"/><path id="Path_2103" data-name="Path 2103" class="cls-1" d="M168,71.5v5.86h-1V71.5h-2v-1h5v1Z" transform="translate(-42.36 -3.61)"/><path id="Path_2104" data-name="Path 2104" class="cls-1" d="M176,77.36l-.58-1.63H172.7l-.57,1.63h-1.07l2.47-6.86h1.09l2.5,6.86Zm-2.92-7.3a.68.68,0,0,1-.67-.66.67.67,0,0,1,1.33,0h0a.66.66,0,0,1-.66.65Zm1.48,3.17c-.17-.49-.44-1.28-.52-1.58-.08.3-.32,1.08-.5,1.59L173,74.81h2.12Zm.43-3.17a.67.67,0,0,1-.66-.66.65.65,0,0,1,.65-.67.66.66,0,0,1,.67.66h0a.66.66,0,0,1-.66.65Z" transform="translate(-42.36 -3.61)"/><path id="Path_2105" data-name="Path 2105" class="cls-1" d="M181.24,71.5v5.86h-1V71.5h-2v-1h5v1Z" transform="translate(-42.36 -3.61)"/><path id="Path_2106" data-name="Path 2106" class="cls-1" d="M186.57,77.46a3.16,3.16,0,0,1-2.44-1.1l.73-.72a2.47,2.47,0,0,0,1.78.81c1,0,1.43-.33,1.43-1,0-.52-.4-.79-1.55-1.13-1.45-.43-2.15-.8-2.15-2a2,2,0,0,1,2.11-1.93l.16,0a3.06,3.06,0,0,1,2.24.93l-.73.73a2,2,0,0,0-1.6-.65c-.8,0-1.14.39-1.14.85s.31.71,1.5,1.07c1.35.41,2.2.84,2.2,2.06S188.32,77.46,186.57,77.46Z" transform="translate(-42.36 -3.61)"/><path id="Path_2107" data-name="Path 2107" class="cls-1" d="M195.94,77.36V73.73c0-.41,0-1,0-1.21-.08.2-.28.69-.45,1.08l-1.66,3.87-1.65-3.86-.44-1.08c0,.2,0,.79,0,1.2v3.63h-1V70.5h1.06l1.54,3.65c.17.4.38.9.47,1.18.1-.28.29-.77.46-1.18l1.51-3.65H197v6.86Z" transform="translate(-42.36 -3.61)"/><path id="Path_2108" data-name="Path 2108" class="cls-1" d="M198.89,77.36V70.5h4.42v1h-3.39v1.7h2v1h-2v2.16h3.54v1Z" transform="translate(-42.36 -3.61)"/><path id="Path_2109" data-name="Path 2109" class="cls-1" d="M207,77.36h-1.87V70.5H207a3.43,3.43,0,0,1,0,6.86Zm0-5.87h-.84v4.87H207a2.44,2.44,0,0,0,0-4.87Z" transform="translate(-42.36 -3.61)"/><path id="Path_2110" data-name="Path 2110" class="cls-1" d="M212,77.36V70.5h1v6.86Z" transform="translate(-42.36 -3.61)"/><path id="Path_2111" data-name="Path 2111" class="cls-1" d="M214.68,77.36v-1l3.36-4c.21-.27.6-.71.77-.88l-1.38,0h-2.55v-1h5v1l-3.31,4c-.22.27-.6.71-.78.88l1.38,0h2.7v1Z" transform="translate(-42.36 -3.61)"/><path id="Path_2112" data-name="Path 2112" class="cls-1" d="M221.71,77.36V70.5h1v6.86Z" transform="translate(-42.36 -3.61)"/><path id="Path_2113" data-name="Path 2113" class="cls-1" d="M229,77.36l-2.73-4.3c-.17-.26-.4-.67-.51-.85,0,.26,0,1.21,0,1.59v3.56h-1V70.5h1l2.6,4.18c.18.29.47.8.57,1,0-.25,0-1.23,0-1.61V70.5h1v6.86Z" transform="translate(-42.36 -3.61)"/><path id="Path_2114" data-name="Path 2114" class="cls-1" d="M237.44,77.36h-2.72V70.5h2.82a1.74,1.74,0,0,1,2,1.78,1.46,1.46,0,0,1-.87,1.37,1.57,1.57,0,0,1,1.15,1.6C239.79,76.64,238.94,77.36,237.44,77.36Zm.09-5.92h-1.84v1.77h1.84a.84.84,0,0,0,.94-.73.71.71,0,0,0,0-.14.84.84,0,0,0-.75-.91.66.66,0,0,0-.2,0Zm0,2.7h-1.86v2.27h1.83c.91,0,1.24-.46,1.24-1.14a1.09,1.09,0,0,0-1-1.14Z" transform="translate(-42.36 -3.61)"/><path id="Path_2115" data-name="Path 2115" class="cls-1" d="M241.5,77.36V70.5h4.42v1h-3.39v1.7h2v1h-2v2.16h3.53v1Z" transform="translate(-42.36 -3.61)"/><path id="Path_2116" data-name="Path 2116" class="cls-1" d="M251.39,74.55l1.4,2.8h-1.18l-1.36-2.71H248.7v2.71h-1V70.49h3a2,2,0,0,1,2.19,1.75c0,.1,0,.2,0,.3A1.89,1.89,0,0,1,251.39,74.55Zm-.7-3.08h-2v2.2h2a1.05,1.05,0,0,0,1.17-.89,1.47,1.47,0,0,0,0-.21,1.05,1.05,0,0,0-1-1.11h-.18Z" transform="translate(-42.36 -3.61)"/><path id="Path_2117" data-name="Path 2117" class="cls-1" d="M254.66,77.36V70.5h1v5.85h3.42v1Z" transform="translate(-42.36 -3.61)"/><path id="Path_2118" data-name="Path 2118" class="cls-1" d="M260.71,77.36V70.5h1v6.86Z" transform="translate(-42.36 -3.61)"/><path id="Path_2119" data-name="Path 2119" class="cls-1" d="M268,77.36l-2.74-4.3-.51-.85c0,.26,0,1.21,0,1.59v3.56h-1V70.5h1l2.61,4.18.57,1c0-.25,0-1.23,0-1.61V70.5h1v6.86Z" transform="translate(-42.36 -3.61)"/></g><g id="Group_559" data-name="Group 559"><path id="Path_2120" data-name="Path 2120" class="cls-1" d="M121.15,77.47c-1.7,0-2.58-1.1-2.58-3v-4h1v4c0,1.29.54,2,1.57,2s1.59-.67,1.59-1.92v-4h1v4C123.79,76.41,122.86,77.47,121.15,77.47Z" transform="translate(-42.36 -3.61)"/><path id="Path_2121" data-name="Path 2121" class="cls-1" d="M129.92,77.36l-2.73-4.3c-.17-.26-.4-.67-.51-.85,0,.26,0,1.21,0,1.59v3.56h-1V70.5h1l2.61,4.18c.17.29.47.8.56,1,0-.25,0-1.23,0-1.61V70.5h1v6.86Z" transform="translate(-42.36 -3.61)"/><path id="Path_2122" data-name="Path 2122" class="cls-1" d="M132.9,77.36V70.5h1v6.86Z" transform="translate(-42.36 -3.61)"/><path id="Path_2123" data-name="Path 2123" class="cls-1" d="M139,77.36h-1.09l-2.39-6.86h1.12L138,74.87c.13.4.33,1,.38,1.25.06-.24.26-.86.39-1.26l1.41-4.36h1.1Z" transform="translate(-42.36 -3.61)"/><path id="Path_2124" data-name="Path 2124" class="cls-1" d="M142.84,77.36V70.5h4.42v1h-3.39v1.7h2v1h-2v2.16h3.53v1Z" transform="translate(-42.36 -3.61)"/><path id="Path_2125" data-name="Path 2125" class="cls-1" d="M152.74,74.55l1.4,2.8H153l-1.36-2.71H150v2.71h-1V70.49h3a2,2,0,0,1,2.19,1.74,1.62,1.62,0,0,1,0,.31A1.9,1.9,0,0,1,152.74,74.55Zm-.7-3.08h-2v2.2h2a1,1,0,0,0,1.16-.89.74.74,0,0,0,0-.21,1.05,1.05,0,0,0-1-1.11Z" transform="translate(-42.36 -3.61)"/><path id="Path_2126" data-name="Path 2126" class="cls-1" d="M158.06,77.46a3.16,3.16,0,0,1-2.44-1.1l.73-.72a2.5,2.5,0,0,0,1.79.81c1,0,1.42-.33,1.42-1,0-.52-.4-.79-1.55-1.13-1.45-.43-2.15-.8-2.15-2A2,2,0,0,1,158,70.37l.16,0a3.06,3.06,0,0,1,2.24.93l-.72.73a2.06,2.06,0,0,0-1.6-.65c-.8,0-1.15.39-1.15.85s.31.71,1.5,1.07c1.35.41,2.2.84,2.2,2.06S159.81,77.46,158.06,77.46Z" transform="translate(-42.36 -3.61)"/><path id="Path_2127" data-name="Path 2127" class="cls-1" d="M162.35,77.36V70.5h1v6.86Z" transform="translate(-42.36 -3.61)"/><path id="Path_2128" data-name="Path 2128" class="cls-1" d="M168,71.5v5.86h-1V71.5h-2v-1h5v1Z" transform="translate(-42.36 -3.61)"/><path id="Path_2129" data-name="Path 2129" class="cls-1" d="M176,77.36l-.58-1.63H172.7l-.57,1.63h-1.07l2.47-6.86h1.09l2.5,6.86Zm-2.92-7.3a.68.68,0,0,1-.67-.66.67.67,0,0,1,1.33,0h0a.66.66,0,0,1-.66.65Zm1.48,3.17c-.17-.49-.44-1.28-.52-1.58-.08.3-.32,1.08-.5,1.59L173,74.81h2.12Zm.43-3.17a.67.67,0,0,1-.66-.66.65.65,0,0,1,.65-.67.66.66,0,0,1,.67.66h0a.66.66,0,0,1-.66.65Z" transform="translate(-42.36 -3.61)"/><path id="Path_2130" data-name="Path 2130" class="cls-1" d="M181.24,71.5v5.86h-1V71.5h-2v-1h5v1Z" transform="translate(-42.36 -3.61)"/><path id="Path_2131" data-name="Path 2131" class="cls-1" d="M186.57,77.46a3.16,3.16,0,0,1-2.44-1.1l.73-.72a2.47,2.47,0,0,0,1.78.81c1,0,1.43-.33,1.43-1,0-.52-.4-.79-1.55-1.13-1.45-.43-2.15-.8-2.15-2a2,2,0,0,1,2.11-1.93l.16,0a3.06,3.06,0,0,1,2.24.93l-.73.73a2,2,0,0,0-1.6-.65c-.8,0-1.14.39-1.14.85s.31.71,1.5,1.07c1.35.41,2.2.84,2.2,2.06S188.32,77.46,186.57,77.46Z" transform="translate(-42.36 -3.61)"/><path id="Path_2132" data-name="Path 2132" class="cls-1" d="M195.94,77.36V73.73c0-.41,0-1,0-1.21-.08.2-.28.69-.45,1.08l-1.66,3.87-1.65-3.86-.44-1.08c0,.2,0,.79,0,1.2v3.63h-1V70.5h1.06l1.54,3.65c.17.4.38.9.47,1.18.1-.28.29-.77.46-1.18l1.51-3.65H197v6.86Z" transform="translate(-42.36 -3.61)"/><path id="Path_2133" data-name="Path 2133" class="cls-1" d="M198.89,77.36V70.5h4.42v1h-3.39v1.7h2v1h-2v2.16h3.54v1Z" transform="translate(-42.36 -3.61)"/><path id="Path_2134" data-name="Path 2134" class="cls-1" d="M207,77.36h-1.87V70.5H207a3.43,3.43,0,0,1,0,6.86Zm0-5.87h-.84v4.87H207a2.44,2.44,0,0,0,0-4.87Z" transform="translate(-42.36 -3.61)"/><path id="Path_2135" data-name="Path 2135" class="cls-1" d="M212,77.36V70.5h1v6.86Z" transform="translate(-42.36 -3.61)"/><path id="Path_2136" data-name="Path 2136" class="cls-1" d="M214.68,77.36v-1l3.36-4c.21-.27.6-.71.77-.88l-1.38,0h-2.55v-1h5v1l-3.31,4c-.22.27-.6.71-.78.88l1.38,0h2.7v1Z" transform="translate(-42.36 -3.61)"/><path id="Path_2137" data-name="Path 2137" class="cls-1" d="M221.71,77.36V70.5h1v6.86Z" transform="translate(-42.36 -3.61)"/><path id="Path_2138" data-name="Path 2138" class="cls-1" d="M229,77.36l-2.73-4.3c-.17-.26-.4-.67-.51-.85,0,.26,0,1.21,0,1.59v3.56h-1V70.5h1l2.6,4.18c.18.29.47.8.57,1,0-.25,0-1.23,0-1.61V70.5h1v6.86Z" transform="translate(-42.36 -3.61)"/><path id="Path_2139" data-name="Path 2139" class="cls-1" d="M237.44,77.36h-2.72V70.5h2.82a1.74,1.74,0,0,1,2,1.78,1.46,1.46,0,0,1-.87,1.37,1.57,1.57,0,0,1,1.15,1.6C239.79,76.64,238.94,77.36,237.44,77.36Zm.09-5.92h-1.84v1.77h1.84a.84.84,0,0,0,.94-.73.71.71,0,0,0,0-.14.84.84,0,0,0-.75-.91.66.66,0,0,0-.2,0Zm0,2.7h-1.86v2.27h1.83c.91,0,1.24-.46,1.24-1.14a1.09,1.09,0,0,0-1-1.14Z" transform="translate(-42.36 -3.61)"/><path id="Path_2140" data-name="Path 2140" class="cls-1" d="M241.5,77.36V70.5h4.42v1h-3.39v1.7h2v1h-2v2.16h3.53v1Z" transform="translate(-42.36 -3.61)"/><path id="Path_2141" data-name="Path 2141" class="cls-1" d="M251.39,74.55l1.4,2.8h-1.18l-1.36-2.71H248.7v2.71h-1V70.49h3a2,2,0,0,1,2.19,1.75c0,.1,0,.2,0,.3A1.89,1.89,0,0,1,251.39,74.55Zm-.7-3.08h-2v2.2h2a1.05,1.05,0,0,0,1.17-.89,1.47,1.47,0,0,0,0-.21,1.05,1.05,0,0,0-1-1.11h-.18Z" transform="translate(-42.36 -3.61)"/><path id="Path_2142" data-name="Path 2142" class="cls-1" d="M254.66,77.36V70.5h1v5.85h3.42v1Z" transform="translate(-42.36 -3.61)"/><path id="Path_2143" data-name="Path 2143" class="cls-1" d="M260.71,77.36V70.5h1v6.86Z" transform="translate(-42.36 -3.61)"/><path id="Path_2144" data-name="Path 2144" class="cls-1" d="M268,77.36l-2.74-4.3-.51-.85c0,.26,0,1.21,0,1.59v3.56h-1V70.5h1l2.61,4.18.57,1c0-.25,0-1.23,0-1.61V70.5h1v6.86Z" transform="translate(-42.36 -3.61)"/></g></g></g></svg>