<svg xmlns="http://www.w3.org/2000/svg" viewBox="0 0 67.23 24.83"><defs><style>.cls-1,.cls-2{fill:#fff;}.cls-2{fill-rule:evenodd;}.cls-3{fill:#797f7a;}.cls-4{fill:#707579;}</style></defs><g id="Layer_1" data-name="Layer 1"><g id="Group_411" data-name="Group 411"><g id="Group_335" data-name="Group 335"><path id="Path_279" data-name="Path 279" class="cls-1" d="M84.5,27.6h2.1v-.89H81.46v.89h2.08v7.72h.95V27.6" transform="translate(-27.55 -18.6)"/><rect id="Rectangle_286" data-name="Rectangle 286" class="cls-1" x="49.32" y="8.11" width="0.96" height="8.61"/><path id="Path_280" data-name="Path 280" class="cls-2" d="M62.36,32.87H58.68l-1,2.45h-1l3.79-8.61.19-.4.17.4,3.7,8.61H63.37ZM62,32l-1.44-3.45L59.07,32H62" transform="translate(-27.55 -18.6)"/><path id="Path_281" data-name="Path 281" class="cls-2" d="M68.54,27.6v3.09h1.2c1.11,0,1.87-.51,1.87-1.6s-.88-1.49-1.88-1.49Zm2.27,3.81,2.1,3.91H71.79l-2-3.78h-1.3v3.78h-1V26.71h2.27c1.42,0,2.71.65,2.71,2.38a2.29,2.29,0,0,1-1.76,2.32" transform="translate(-27.55 -18.6)"/><path id="Path_282" data-name="Path 282" class="cls-1" d="M90.07,35.32h4.66v-.89H91V31.05H94.2v-.89H91V27.6h3.55v-.89H90.06v8.61" transform="translate(-27.55 -18.6)"/><path id="Path_283" data-name="Path 283" class="cls-1" d="M92.8,23.57l-1.36,1.88.57.32L93.76,24l-1-.44" transform="translate(-27.55 -18.6)"/><path id="Path_284" data-name="Path 284" class="cls-1" d="M48.11,30.2H51v.89H48.11v4.23h-1V26.71h1V30.2" transform="translate(-27.55 -18.6)"/><rect id="Rectangle_287" data-name="Rectangle 287" class="cls-1" x="24.79" y="8.11" width="0.96" height="8.61"/><path id="Path_285" data-name="Path 285" class="cls-1" d="M27.55,31a12.5,12.5,0,0,1,20.56-9.47v1.92A11,11,0,1,0,47.65,39l.46-.46v2A12.51,12.51,0,0,1,27.55,31" transform="translate(-27.55 -18.6)"/><path id="Path_286" data-name="Path 286" class="cls-1" d="M43.37,27.37a4.15,4.15,0,0,0-2.54-.84,4.4,4.4,0,0,0-4.55,4.25v.27a4.49,4.49,0,0,0,7.09,3.61V33.5a3.72,3.72,0,0,1-2.57,1.13,3.62,3.62,0,1,1,2.58-6.11V27.37" transform="translate(-27.55 -18.6)"/></g><g id="Group_338" data-name="Group 338"><g id="Group_336" data-name="Group 336"><path id="Path_287" data-name="Path 287" class="cls-3" d="M50.93,40.51c-.5,0-.76-.32-.76-.88V38.44h.3v1.17c0,.39.16.59.47.59s.47-.2.47-.57V38.44h.3v1.19C51.71,40.2,51.44,40.51,50.93,40.51Z" transform="translate(-27.55 -18.6)"/><path id="Path_288" data-name="Path 288" class="cls-3" d="M53.53,40.48l-.81-1.28L52.57,39v1.53h-.3v-2h.31l.78,1.24.17.29V38.44h.3v2Z" transform="translate(-27.55 -18.6)"/><path id="Path_289" data-name="Path 289" class="cls-3" d="M54.42,40.48v-2h.3v2Z" transform="translate(-27.55 -18.6)"/><path id="Path_290" data-name="Path 290" class="cls-3" d="M56.22,40.48H55.9l-.71-2h.33l.43,1.3c0,.12.1.3.11.37s.07-.25.11-.37l.42-1.3h.33Z" transform="translate(-27.55 -18.6)"/><path id="Path_291" data-name="Path 291" class="cls-3" d="M57.36,40.48v-2h1.32v.3h-1v.5h.59v.3h-.59v.64h1v.3Z" transform="translate(-27.55 -18.6)"/><path id="Path_292" data-name="Path 292" class="cls-3" d="M60.3,39.65l.42.83h-.35l-.4-.81h-.46v.81h-.3v-2h.89a.59.59,0,0,1,.65.52.28.28,0,0,1,0,.09A.58.58,0,0,1,60.3,39.65Zm-.2-.92h-.59v.65h.59a.29.29,0,0,0,.34-.26.06.06,0,0,0,0-.06.31.31,0,0,0-.29-.33Z" transform="translate(-27.55 -18.6)"/><path id="Path_293" data-name="Path 293" class="cls-3" d="M61.88,40.51a1,1,0,0,1-.72-.33l.22-.21a.73.73,0,0,0,.53.24q.42,0,.42-.3c0-.16-.12-.24-.46-.34s-.64-.23-.64-.6a.61.61,0,0,1,.63-.57h0a.87.87,0,0,1,.67.27l-.21.22a.67.67,0,0,0-.48-.2c-.24,0-.34.12-.34.26s.09.21.45.31.65.25.65.62S62.4,40.51,61.88,40.51Z" transform="translate(-27.55 -18.6)"/><path id="Path_294" data-name="Path 294" class="cls-3" d="M63.16,40.48v-2h.3v2Z" transform="translate(-27.55 -18.6)"/><path id="Path_295" data-name="Path 295" class="cls-3" d="M64.83,38.74v1.74h-.31V38.74h-.59v-.3h1.49v.3Z" transform="translate(-27.55 -18.6)"/><path id="Path_296" data-name="Path 296" class="cls-3" d="M67.21,40.48,67,40h-.81l-.17.49h-.32l.73-2h.33l.74,2Zm-.86-2.17a.2.2,0,1,1,0-.4.2.2,0,0,1,.2.2h0a.2.2,0,0,1-.19.19Zm.44.94-.16-.47c0,.09-.1.32-.15.48l-.16.46H67Zm.12-.94a.19.19,0,0,1-.2-.19.2.2,0,1,1,.4,0h0a.2.2,0,0,1-.2.19Z" transform="translate(-27.55 -18.6)"/><path id="Path_297" data-name="Path 297" class="cls-3" d="M68.76,38.74v1.74h-.3V38.74h-.6v-.3h1.5v.3Z" transform="translate(-27.55 -18.6)"/><path id="Path_298" data-name="Path 298" class="cls-3" d="M70.34,40.51a1,1,0,0,1-.72-.33l.22-.21a.73.73,0,0,0,.53.24q.42,0,.42-.3c0-.16-.12-.24-.46-.34s-.64-.23-.64-.6a.61.61,0,0,1,.63-.57h0a.87.87,0,0,1,.67.27l-.21.22a.67.67,0,0,0-.48-.2c-.24,0-.34.12-.34.26s.09.21.45.31.65.25.65.62S70.86,40.51,70.34,40.51Z" transform="translate(-27.55 -18.6)"/><path id="Path_299" data-name="Path 299" class="cls-3" d="M73.12,40.48V39.4c0-.12,0-.3,0-.36s-.08.2-.13.32l-.5,1.15L72,39.37l-.13-.32c0,.05,0,.23,0,.35v1.08H71.6v-2h.31l.46,1.09c0,.12.11.26.14.35,0-.09.09-.23.14-.35l.45-1.09h.32v2Z" transform="translate(-27.55 -18.6)"/><path id="Path_300" data-name="Path 300" class="cls-3" d="M74,40.48v-2h1.31v.3h-1v.5h.59v.3H74.3v.64h1v.3Z" transform="translate(-27.55 -18.6)"/><path id="Path_301" data-name="Path 301" class="cls-3" d="M76.4,40.48h-.56v-2h.56a1,1,0,0,1,0,2Zm0-1.74h-.25v1.44h.25a.72.72,0,0,0,0-1.44Z" transform="translate(-27.55 -18.6)"/><path id="Path_302" data-name="Path 302" class="cls-3" d="M77.88,40.48v-2h.3v2Z" transform="translate(-27.55 -18.6)"/><path id="Path_303" data-name="Path 303" class="cls-3" d="M78.69,40.48v-.3l1-1.2.23-.26H78.75v-.28h1.48v.3l-1,1.2a3.23,3.23,0,0,1-.23.26h1.21v.28Z" transform="translate(-27.55 -18.6)"/><path id="Path_304" data-name="Path 304" class="cls-3" d="M80.77,40.48v-2h.31v2Z" transform="translate(-27.55 -18.6)"/><path id="Path_305" data-name="Path 305" class="cls-3" d="M82.93,40.48l-.81-1.28L82,39v1.53h-.3v-2H82l.77,1.24.17.29V38.44h.3v2Z" transform="translate(-27.55 -18.6)"/><path id="Path_306" data-name="Path 306" class="cls-3" d="M85.44,40.48h-.81v-2h.84a.52.52,0,0,1,.58.44V39a.41.41,0,0,1-.26.41.47.47,0,0,1,.35.47C86.14,40.26,85.88,40.48,85.44,40.48Zm0-1.76h-.54v.53h.54a.24.24,0,0,0,.28-.22.06.06,0,0,0,0,0,.25.25,0,0,0-.23-.27h-.06Zm0,.8h-.55v.68h.54c.27,0,.37-.14.37-.34a.32.32,0,0,0-.3-.34Z" transform="translate(-27.55 -18.6)"/><path id="Path_307" data-name="Path 307" class="cls-3" d="M86.64,40.48v-2H88v.3H87v.5h.58v.3H87v.64h1v.3Z" transform="translate(-27.55 -18.6)"/><path id="Path_308" data-name="Path 308" class="cls-3" d="M89.58,39.65l.42.83h-.36l-.4-.81h-.46v.81h-.3v-2h.9A.59.59,0,0,1,90,39v.09A.57.57,0,0,1,89.58,39.65Zm-.21-.92h-.59v.65h.59a.3.3,0,0,0,.35-.26v-.06a.31.31,0,0,0-.29-.33Z" transform="translate(-27.55 -18.6)"/><path id="Path_309" data-name="Path 309" class="cls-3" d="M90.55,40.48v-2h.3v1.74h1v.3Z" transform="translate(-27.55 -18.6)"/><path id="Path_310" data-name="Path 310" class="cls-3" d="M92.34,40.48v-2h.31v2Z" transform="translate(-27.55 -18.6)"/><path id="Path_311" data-name="Path 311" class="cls-3" d="M94.5,40.48l-.81-1.28c0-.08-.12-.2-.16-.25v1.53h-.3v-2h.32l.77,1.24.17.29V38.44h.3v2Z" transform="translate(-27.55 -18.6)"/></g><g id="Group_337" data-name="Group 337"><path id="Path_312" data-name="Path 312" class="cls-4" d="M50.93,40.51c-.5,0-.76-.32-.76-.88V38.44h.3v1.17c0,.39.16.59.47.59s.47-.2.47-.57V38.44h.3v1.19C51.71,40.2,51.44,40.51,50.93,40.51Z" transform="translate(-27.55 -18.6)"/><path id="Path_313" data-name="Path 313" class="cls-4" d="M53.53,40.48l-.81-1.28L52.57,39v1.53h-.3v-2h.31l.78,1.24.17.29V38.44h.3v2Z" transform="translate(-27.55 -18.6)"/><path id="Path_314" data-name="Path 314" class="cls-4" d="M54.42,40.48v-2h.3v2Z" transform="translate(-27.55 -18.6)"/><path id="Path_315" data-name="Path 315" class="cls-4" d="M56.22,40.48H55.9l-.71-2h.33l.43,1.3c0,.12.1.3.11.37s.07-.25.11-.37l.42-1.3h.33Z" transform="translate(-27.55 -18.6)"/><path id="Path_316" data-name="Path 316" class="cls-4" d="M57.36,40.48v-2h1.32v.3h-1v.5h.59v.3h-.59v.64h1v.3Z" transform="translate(-27.55 -18.6)"/><path id="Path_317" data-name="Path 317" class="cls-4" d="M60.3,39.65l.42.83h-.35l-.4-.81h-.46v.81h-.3v-2h.89a.59.59,0,0,1,.65.52.28.28,0,0,1,0,.09A.58.58,0,0,1,60.3,39.65Zm-.2-.92h-.59v.65h.59a.29.29,0,0,0,.34-.26.06.06,0,0,0,0-.06.31.31,0,0,0-.29-.33Z" transform="translate(-27.55 -18.6)"/><path id="Path_318" data-name="Path 318" class="cls-4" d="M61.88,40.51a1,1,0,0,1-.72-.33l.22-.21a.73.73,0,0,0,.53.24q.42,0,.42-.3c0-.16-.12-.24-.46-.34s-.64-.23-.64-.6a.61.61,0,0,1,.63-.57h0a.87.87,0,0,1,.67.27l-.21.22a.67.67,0,0,0-.48-.2c-.24,0-.34.12-.34.26s.09.21.45.31.65.25.65.62S62.4,40.51,61.88,40.51Z" transform="translate(-27.55 -18.6)"/><path id="Path_319" data-name="Path 319" class="cls-4" d="M63.16,40.48v-2h.3v2Z" transform="translate(-27.55 -18.6)"/><path id="Path_320" data-name="Path 320" class="cls-4" d="M64.83,38.74v1.74h-.31V38.74h-.59v-.3h1.49v.3Z" transform="translate(-27.55 -18.6)"/><path id="Path_321" data-name="Path 321" class="cls-4" d="M67.21,40.48,67,40h-.81l-.17.49h-.32l.73-2h.33l.74,2Zm-.86-2.17a.2.2,0,1,1,0-.4.2.2,0,0,1,.2.2h0a.2.2,0,0,1-.19.19Zm.44.94-.16-.47c0,.09-.1.32-.15.48l-.16.46H67Zm.12-.94a.19.19,0,0,1-.2-.19.2.2,0,1,1,.4,0h0a.2.2,0,0,1-.2.19Z" transform="translate(-27.55 -18.6)"/><path id="Path_322" data-name="Path 322" class="cls-4" d="M68.76,38.74v1.74h-.3V38.74h-.6v-.3h1.5v.3Z" transform="translate(-27.55 -18.6)"/><path id="Path_323" data-name="Path 323" class="cls-4" d="M70.34,40.51a1,1,0,0,1-.72-.33l.22-.21a.73.73,0,0,0,.53.24q.42,0,.42-.3c0-.16-.12-.24-.46-.34s-.64-.23-.64-.6a.61.61,0,0,1,.63-.57h0a.87.87,0,0,1,.67.27l-.21.22a.67.67,0,0,0-.48-.2c-.24,0-.34.12-.34.26s.09.21.45.31.65.25.65.62S70.86,40.51,70.34,40.51Z" transform="translate(-27.55 -18.6)"/><path id="Path_324" data-name="Path 324" class="cls-4" d="M73.12,40.48V39.4c0-.12,0-.3,0-.36s-.08.2-.13.32l-.5,1.15L72,39.37l-.13-.32c0,.05,0,.23,0,.35v1.08H71.6v-2h.31l.46,1.09c0,.12.11.26.14.35,0-.09.09-.23.14-.35l.45-1.09h.32v2Z" transform="translate(-27.55 -18.6)"/><path id="Path_325" data-name="Path 325" class="cls-4" d="M74,40.48v-2h1.31v.3h-1v.5h.59v.3H74.3v.64h1v.3Z" transform="translate(-27.55 -18.6)"/><path id="Path_326" data-name="Path 326" class="cls-4" d="M76.4,40.48h-.56v-2h.56a1,1,0,0,1,0,2Zm0-1.74h-.25v1.44h.25a.72.72,0,0,0,0-1.44Z" transform="translate(-27.55 -18.6)"/><path id="Path_327" data-name="Path 327" class="cls-4" d="M77.88,40.48v-2h.3v2Z" transform="translate(-27.55 -18.6)"/><path id="Path_328" data-name="Path 328" class="cls-4" d="M78.69,40.48v-.3l1-1.2.23-.26H78.75v-.28h1.48v.3l-1,1.2a3.23,3.23,0,0,1-.23.26h1.21v.28Z" transform="translate(-27.55 -18.6)"/><path id="Path_329" data-name="Path 329" class="cls-4" d="M80.77,40.48v-2h.31v2Z" transform="translate(-27.55 -18.6)"/><path id="Path_330" data-name="Path 330" class="cls-4" d="M82.93,40.48l-.81-1.28L82,39v1.53h-.3v-2H82l.77,1.24.17.29V38.44h.3v2Z" transform="translate(-27.55 -18.6)"/><path id="Path_331" data-name="Path 331" class="cls-4" d="M85.44,40.48h-.81v-2h.84a.52.52,0,0,1,.58.44V39a.41.41,0,0,1-.26.41.47.47,0,0,1,.35.47C86.14,40.26,85.88,40.48,85.44,40.48Zm0-1.76h-.54v.53h.54a.24.24,0,0,0,.28-.22.06.06,0,0,0,0,0,.25.25,0,0,0-.23-.27h-.06Zm0,.8h-.55v.68h.54c.27,0,.37-.14.37-.34a.32.32,0,0,0-.3-.34Z" transform="translate(-27.55 -18.6)"/><path id="Path_332" data-name="Path 332" class="cls-4" d="M86.64,40.48v-2H88v.3H87v.5h.58v.3H87v.64h1v.3Z" transform="translate(-27.55 -18.6)"/><path id="Path_333" data-name="Path 333" class="cls-4" d="M89.58,39.65l.42.83h-.36l-.4-.81h-.46v.81h-.3v-2h.9A.59.59,0,0,1,90,39v.09A.57.57,0,0,1,89.58,39.65Zm-.21-.92h-.59v.65h.59a.3.3,0,0,0,.35-.26v-.06a.31.31,0,0,0-.29-.33Z" transform="translate(-27.55 -18.6)"/><path id="Path_334" data-name="Path 334" class="cls-4" d="M90.55,40.48v-2h.3v1.74h1v.3Z" transform="translate(-27.55 -18.6)"/><path id="Path_335" data-name="Path 335" class="cls-4" d="M92.34,40.48v-2h.31v2Z" transform="translate(-27.55 -18.6)"/><path id="Path_336" data-name="Path 336" class="cls-4" d="M94.5,40.48l-.81-1.28c0-.08-.12-.2-.16-.25v1.53h-.3v-2h.32l.77,1.24.17.29V38.44h.3v2Z" transform="translate(-27.55 -18.6)"/></g></g></g></g></svg>