<!--
 Copyright 2022 Indoc Research
 
 Licensed under the EUPL, Version 1.2 or – as soon they
 will be approved by the European Commission - subsequent
 versions of the EUPL (the "Licence");
 You may not use this work except in compliance with the
 Licence.
 You may obtain a copy of the Licence at:
 
 https://joinup.ec.europa.eu/collection/eupl/eupl-text-eupl-12
 
 Unless required by applicable law or agreed to in
 writing, software distributed under the Licence is
 distributed on an "AS IS" basis,
 WITHOUT WARRANTIES OR CONDITIONS OF ANY KIND, either
 express or implied.
 See the Licence for the specific language governing
 permissions and limitations under the Licence.
 
-->

<?xml version="1.0" encoding="utf-8"?>
<!-- Generator: Adobe Illustrator 25.4.1, SVG Export Plug-In . SVG Version: 6.00 Build 0)  -->
<svg version="1.1" id="Layer_1" xmlns="http://www.w3.org/2000/svg" xmlns:xlink="http://www.w3.org/1999/xlink" x="0px" y="0px"
	 viewBox="0 0 310.8 96.7" style="enable-background:new 0 0 310.8 96.7;" xml:space="preserve">
<style type="text/css">
	.st0{enable-background:new    ;}
	.st1{fill:#5AAA58;}
	.st2{fill:#BEAC21;}
</style>
<g class="st0">
	<path class="st1" d="M133.6,57.6c-1.8,1.1-4.1,1.6-6.9,1.6c-3,0-5.4-0.8-7.2-2.5c-1.8-1.7-2.6-4-2.6-7c0-3,1-5.4,2.9-7.3
		c1.9-1.9,4.5-2.8,7.6-2.8c2,0,3.8,0.3,5.3,0.8v4c-1.5-0.8-3.2-1.3-5.4-1.3c-1.8,0-3.2,0.6-4.3,1.7c-1.1,1.1-1.7,2.7-1.7,4.6
		c0,1.9,0.5,3.4,1.5,4.5s2.3,1.6,4,1.6c1,0,1.8-0.1,2.4-0.4v-3.7h-3.8v-3.4h8V57.6z"/>
	<path class="st1" d="M137.2,58.8V39.9h6.7c6.7,0,10.1,3.1,10.1,9.2c0,2.9-0.9,5.3-2.7,7.1c-1.8,1.8-4.3,2.6-7.3,2.6H137.2z
		 M141.5,43.4v12h2.1c1.8,0,3.3-0.6,4.3-1.7c1-1.1,1.6-2.6,1.6-4.5c0-1.8-0.5-3.2-1.6-4.3c-1-1-2.5-1.5-4.4-1.5H141.5z"/>
	<path class="st1" d="M161.4,52.3v6.5h-4.3V39.9h6.7c4.8,0,7.1,2,7.1,6c0,1.9-0.7,3.4-2,4.6c-1.4,1.2-3.2,1.8-5.5,1.8H161.4z
		 M161.4,43.2v5.9h1.7c2.3,0,3.4-1,3.4-3c0-1.9-1.1-2.9-3.4-2.9H161.4z"/>
	<path class="st1" d="M189.6,58.8h-4.9l-2.9-4.9c-0.2-0.4-0.4-0.7-0.6-1s-0.4-0.5-0.6-0.7c-0.2-0.2-0.4-0.4-0.6-0.5
		c-0.2-0.1-0.5-0.2-0.7-0.2H178v7.2h-4.3V39.9h6.8c4.6,0,6.9,1.7,6.9,5.1c0,0.7-0.1,1.3-0.3,1.8c-0.2,0.6-0.5,1.1-0.9,1.5
		c-0.4,0.4-0.8,0.8-1.3,1.2c-0.5,0.3-1.1,0.6-1.7,0.8v0.1c0.3,0.1,0.6,0.2,0.8,0.4c0.3,0.2,0.5,0.4,0.8,0.7s0.5,0.5,0.7,0.9
		c0.2,0.3,0.4,0.6,0.6,0.9L189.6,58.8z M178,43.1v5.3h1.8c0.9,0,1.6-0.3,2.2-0.8c0.6-0.5,0.8-1.2,0.8-2c0-1.7-1-2.5-3-2.5H178z"/>
	<path class="st1" d="M214.7,58.8h-4.9l-2.9-4.9c-0.2-0.4-0.4-0.7-0.6-1s-0.4-0.5-0.6-0.7c-0.2-0.2-0.4-0.4-0.6-0.5
		c-0.2-0.1-0.5-0.2-0.7-0.2h-1.1v7.2h-4.3V39.9h6.8c4.6,0,6.9,1.7,6.9,5.1c0,0.7-0.1,1.3-0.3,1.8c-0.2,0.6-0.5,1.1-0.9,1.5
		c-0.4,0.4-0.8,0.8-1.3,1.2c-0.5,0.3-1.1,0.6-1.7,0.8v0.1c0.3,0.1,0.6,0.2,0.8,0.4c0.3,0.2,0.5,0.4,0.8,0.7s0.5,0.5,0.7,0.9
		c0.2,0.3,0.4,0.6,0.6,0.9L214.7,58.8z M203.1,43.1v5.3h1.8c0.9,0,1.6-0.3,2.2-0.8c0.6-0.5,0.8-1.2,0.8-2c0-1.7-1-2.5-3-2.5H203.1z"
		/>
	<path class="st1" d="M227.8,58.8h-11.3V39.9h10.9v3.5h-6.6v4.2h6.2V51h-6.2v4.3h7.1V58.8z"/>
	<path class="st1" d="M247.8,58.8h-4.6l-1.3-4.2h-6.7l-1.3,4.2h-4.6l6.9-18.9h5L247.8,58.8z M240.9,51.4l-2-6.4
		c-0.1-0.5-0.3-1-0.3-1.7h-0.1c0,0.6-0.2,1.1-0.3,1.6l-2.1,6.4H240.9z"/>
	<path class="st1" d="M250.2,58.8V39.9h6.7c6.7,0,10.1,3.1,10.1,9.2c0,2.9-0.9,5.3-2.7,7.1c-1.8,1.8-4.3,2.6-7.3,2.6H250.2z
		 M254.4,43.4v12h2.1c1.8,0,3.3-0.6,4.3-1.7c1-1.1,1.6-2.6,1.6-4.5c0-1.8-0.5-3.2-1.6-4.3c-1-1-2.5-1.5-4.4-1.5H254.4z"/>
	<path class="st1" d="M284.3,39.9l-6.2,12.2v6.7h-4.3v-6.6l-6-12.3h4.9l3,7.1c0.1,0.1,0.2,0.6,0.4,1.5h0.1c0.1-0.6,0.2-1.1,0.4-1.5
		l3.1-7.1H284.3z"/>
</g>
<g id="Group_597" transform="translate(0 0)">
	<g id="Group_530" transform="translate(0 0)">
		<path id="Path_1734" class="st2" d="M50.5,11l1.2,3.9h3.9l-3.2,2.4l1.2,3.9l-3.2-2.4l-3.2,2.4l1.2-3.9l-3.2-2.6h3.9L50.5,11z"/>
		<path id="Path_1735" class="st2" d="M50.5,74.5l1.2,3.9h3.9l-3.2,2.4l1.2,3.9l-3.2-2.4l-3.2,2.4l1.2-3.9l-3.2-2.4h3.9L50.5,74.5z"
			/>
		<path id="Path_1736" class="st2" d="M66.3,16.8l1.2,3.9h3.9L68.3,23l1.2,3.9l-3.2-2.4l-3.2,2.4l1.2-3.9l-3.2-2.4h3.9L66.3,16.8z"
			/>
		<path id="Path_1737" class="st2" d="M79.4,27.7l1.2,3.9h3.9L81.3,34l1.2,3.9l-3.2-2.4l-3.2,2.4l1.2-3.9l-3.2-2.4h3.9L79.4,27.7z"
			/>
		<path id="Path_1738" class="st2" d="M79.4,58.7l1.2,3.9h3.9L81.3,65l1.2,3.9l-3.2-2.4l-3.2,2.4l1.2-3.9l-3.2-2.4h3.9L79.4,58.7z"
			/>
		<path id="Path_1739" class="st2" d="M21.6,27.7l1.1,3.9h3.9L23.4,34l1.2,3.9l-3.2-2.4l-3.2,2.4l1.4-3.9l-3.2-2.4h3.9L21.6,27.7z"
			/>
		<path id="Path_1740" class="st2" d="M82.2,42.8l1.2,3.9h3.9l-3.2,2.4l1.2,3.9l-3.2-2.4L79,53.1l1.2-3.9l-3.2-2.4H81L82.2,42.8z"/>
		<path id="Path_1741" class="st2" d="M18.6,42.8l1.2,3.9h3.9l-3.2,2.4l1.2,3.9l-3.2-2.4l-3.2,2.4l1.2-3.9l-3-2.6h3.9L18.6,42.8z"/>
		<path id="Path_1742" class="st2" d="M21.6,58.7l1.1,3.9h3.9L23.4,65l1.2,3.9l-3.2-2.4l-3.2,2.4l1.4-4.1l-3.2-2.4h3.9L21.6,58.7z"
			/>
		<path id="Path_1743" class="st2" d="M69.2,71.7l1.2,3.9h3.9L71.2,78l1.2,3.9l-3.2-2.4L66,81.9l1.2-3.9l-3.2-2.4H68L69.2,71.7z"/>
		<path id="Path_1744" class="st2" d="M34.6,16.8l1.2,3.9h3.9L36.4,23l1.2,3.9l-3-2.4l-3.2,2.4l1.2-3.9l-3.2-2.4h3.9L34.6,16.8z"/>
		<path id="Path_1745" class="st2" d="M31.6,71.7l1.2,3.9h3.9L33.5,78l1.2,3.9l-3.2-2.4l-3.2,2.4l1.2-3.9l-3.2-2.4h3.9L31.6,71.7z"
			/>
	</g>
	<g id="icon_outlined_suggested_check_clip_group_" transform="translate(22.833 25.738)">
		<path id="Vector" class="st1" d="M40.9,11h-2.4c-0.3,0-0.7,0.2-0.8,0.5l-14,20.9l-6.7-10c-0.2-0.3-0.5-0.5-0.8-0.5h-2.4
			c-0.2,0-0.3,0.2-0.3,0.3c0,0.1,0,0.1,0.1,0.2l9.3,13.9c0.3,0.5,0.9,0.6,1.3,0.4c0.1,0,0.1-0.1,0.2-0.1c0.1-0.1,0.1-0.1,0.2-0.2
			l16.5-24.8c0.1-0.1,0.1-0.3,0-0.4C41,11,41,11,40.9,11z"/>
	</g>
</g>
</svg>
