<svg id="GDPR-ready" xmlns="http://www.w3.org/2000/svg" viewBox="0 0 59.42 59.42"><defs><style>.cls-1{fill:#beac21;}.cls-2{fill:#5bab58;}</style></defs><g id="Group_530" data-name="Group 530"><path id="Path_1734" data-name="Path 1734" class="cls-1" d="M33.87,3.33l1,3.17H38L35.45,8.45l1,3.16L33.87,9.66l-2.56,1.95,1-3.16L29.73,6.38H32.9Z" transform="translate(-4.16 -3.33)"/><path id="Path_1735" data-name="Path 1735" class="cls-1" d="M33.87,54.48l1,3.16H38l-2.56,2,1,3.17-2.56-1.95-2.56,1.95,1-3.17-2.56-2H32.9Z" transform="translate(-4.16 -3.33)"/><path id="Path_1736" data-name="Path 1736" class="cls-1" d="M46.66,8l1,3.16H50.8L48.24,13l1,3.17-2.55-2-2.56,2,1-3.17L42.52,11h3.16Z" transform="translate(-4.16 -3.33)"/><path id="Path_1737" data-name="Path 1737" class="cls-1" d="M57.13,16.73l1,3.16h3.17l-2.56,1.95,1,3.17-2.56-2-2.56,2,1-3.17L53,19.89h3.17Z" transform="translate(-4.16 -3.33)"/><path id="Path_1738" data-name="Path 1738" class="cls-1" d="M57.13,41.69l1,3.17h3.17L58.71,46.8l1,3.17L57.13,48,54.57,50l1-3.17L53,44.86h3.17Z" transform="translate(-4.16 -3.33)"/><path id="Path_1739" data-name="Path 1739" class="cls-1" d="M10.61,16.73l.86,3.16h3.16l-2.56,1.95,1,3.17-2.56-2L7.93,25,9,21.84,6.47,19.89H9.64Z" transform="translate(-4.16 -3.33)"/><path id="Path_1740" data-name="Path 1740" class="cls-1" d="M59.44,28.9l1,3.17h3.16L61,34l1,3.16-2.56-1.94-2.55,1.94,1-3.16-2.56-2h3.17Z" transform="translate(-4.16 -3.33)"/><path id="Path_1741" data-name="Path 1741" class="cls-1" d="M8.18,28.9l1,3.17h3.17L9.76,34l1,3.16L8.18,35.24,5.62,37.18l1-3.16L4.16,32H7.33Z" transform="translate(-4.16 -3.33)"/><path id="Path_1742" data-name="Path 1742" class="cls-1" d="M10.61,41.69l.86,3.17h3.16L12.07,46.8l1,3.17L10.49,48,7.93,50,9,46.68l-2.56-2H9.64Z" transform="translate(-4.16 -3.33)"/><path id="Path_1743" data-name="Path 1743" class="cls-1" d="M49,52.16l1,3.17h3.16l-2.56,2,1,3.16L49,58.49l-2.56,1.95,1-3.16-2.56-2H48Z" transform="translate(-4.16 -3.33)"/><path id="Path_1744" data-name="Path 1744" class="cls-1" d="M21.09,8l1,3.16h3.17L22.55,13l1,3.17-2.43-2-2.56,2,1-3.17L17,11h3.16Z" transform="translate(-4.16 -3.33)"/><path id="Path_1745" data-name="Path 1745" class="cls-1" d="M18.65,52.16l1,3.17h3.17l-2.56,2,1,3.16-2.56-1.95-2.56,1.95,1-3.16-2.56-2h3.17Z" transform="translate(-4.16 -3.33)"/></g><g id="icon_outlined_suggested_check_clip_group_" data-name="icon outlined suggested check clip group "><path id="Vector" class="cls-2" d="M44.56,24.05h-1.9a.83.83,0,0,0-.68.4L30.74,41.31l-5.39-8.08a.85.85,0,0,0-.69-.4h-1.9a.23.23,0,0,0-.21.26.28.28,0,0,0,0,.15l7.47,11.21a.78.78,0,0,0,1.07.28.61.61,0,0,0,.16-.12,1.07,1.07,0,0,0,.14-.16l13.31-20a.3.3,0,0,0,0-.36A.2.2,0,0,0,44.56,24.05Z" transform="translate(-4.16 -3.33)"/></g></svg>