<!--
 Copyright 2022 Indoc Research
 
 Licensed under the EUPL, Version 1.2 or – as soon they
 will be approved by the European Commission - subsequent
 versions of the EUPL (the "Licence");
 You may not use this work except in compliance with the
 Licence.
 You may obtain a copy of the Licence at:
 
 https://joinup.ec.europa.eu/collection/eupl/eupl-text-eupl-12
 
 Unless required by applicable law or agreed to in
 writing, software distributed under the Licence is
 distributed on an "AS IS" basis,
 WITHOUT WARRANTIES OR CONDITIONS OF ANY KIND, either
 express or implied.
 See the Licence for the specific language governing
 permissions and limitations under the Licence.
 
-->

<svg id="Layer_1" data-name="Layer 1" xmlns="http://www.w3.org/2000/svg" viewBox="0 0 28.18 29.46"><defs><style>.cls-1{fill:#f1f2f2;}</style></defs><g id="Group_602" data-name="Group 602"><g id="Group_600" data-name="Group 600"><path id="Path_2189" data-name="Path 2189" class="cls-1" d="M21.46,28.58a7.14,7.14,0,0,0,0-2.26l1.28-1.09a.64.64,0,0,0,.18-.69l0-.05a8.38,8.38,0,0,0-1.57-2.69l0,0a.58.58,0,0,0-.31-.2.5.5,0,0,0-.17,0,.76.76,0,0,0-.21,0L19,22.14a7,7,0,0,0-2-1.13l-.31-1.66a.63.63,0,0,0-.5-.5h-.05a9,9,0,0,0-3.11,0h0a.64.64,0,0,0-.5.5L12.25,21a7.16,7.16,0,0,0-1.93,1.12l-1.6-.56a.52.52,0,0,0-.21,0,.64.64,0,0,0-.48.22l0,0a8.85,8.85,0,0,0-1.56,2.69l0,.05a.64.64,0,0,0,.19.69l1.29,1.1a7,7,0,0,0,0,2.23l-1.29,1.1a.64.64,0,0,0-.19.69l0,0A8.73,8.73,0,0,0,8,33.09l0,0a.63.63,0,0,0,.68.18l1.6-.57a7,7,0,0,0,1.94,1.13l.31,1.66a.59.59,0,0,0,.5.5h0a8.56,8.56,0,0,0,3.11,0h.05a.62.62,0,0,0,.5-.5l.31-1.66A6.72,6.72,0,0,0,19,32.76l1.59.56a.64.64,0,0,0,.69-.18l0,0a8.58,8.58,0,0,0,1.56-2.7l0,0a.63.63,0,0,0-.19-.68Zm-1.39-2a5.44,5.44,0,0,1,0,1.8l-.13.78,1.46,1.25a7.37,7.37,0,0,1-.83,1.44l-1.81-.64-.62.5a5.57,5.57,0,0,1-1.55.9l-.74.27-.35,1.9a7.68,7.68,0,0,1-1.66,0l-.35-1.9-.74-.28a5.41,5.41,0,0,1-1.54-.9l-.61-.5h0l-1.82.65a8,8,0,0,1-.84-1.44l1.48-1.26-.13-.78a5.69,5.69,0,0,1,0-1.78l.13-.78L8,24.53a7.37,7.37,0,0,1,.83-1.44l1.82.65.62-.5a5.47,5.47,0,0,1,1.53-.89l.74-.28.35-1.9a6.59,6.59,0,0,1,1.66,0l.35,1.9.75.27a5.87,5.87,0,0,1,1.55.9l.61.5,1.81-.64a7.88,7.88,0,0,1,.84,1.43L20,25.78Z" transform="translate(-6.39 -6.73)"/><path id="Path_2190" data-name="Path 2190" class="cls-1" d="M14.67,23.82a3.44,3.44,0,0,0,0,6.88h0a3.44,3.44,0,1,0,.12-6.88Zm0,5.63a2.19,2.19,0,0,1,0-4.38h0a2.2,2.2,0,0,1,1.55.64,2.1,2.1,0,0,1,.47.71,2.19,2.19,0,0,1-2,3Z" transform="translate(-6.39 -6.73)"/></g><g id="Group_601" data-name="Group 601"><path id="Path_2191" data-name="Path 2191" class="cls-1" d="M33.07,16.61a6.6,6.6,0,0,0,0-2.26l1.28-1.09a.62.62,0,0,0,.18-.69v-.05A8.76,8.76,0,0,0,33,9.83l0,0a.64.64,0,0,0-.69-.19l-1.59.57A7,7,0,0,0,28.7,9l-.31-1.66a.64.64,0,0,0-.5-.5h-.05a9,9,0,0,0-3.11,0h-.05a.63.63,0,0,0-.5.5l-.31,1.67a6.94,6.94,0,0,0-1.93,1.13l-1.6-.57a.78.78,0,0,0-.21,0,.65.65,0,0,0-.48.23l0,0a8.62,8.62,0,0,0-1.56,2.69l0,.05a.63.63,0,0,0,.19.68l1.29,1.1a7,7,0,0,0,0,2.24l-1.29,1.1a.63.63,0,0,0-.19.68l0,.05a8.58,8.58,0,0,0,1.56,2.7l0,0a.62.62,0,0,0,.48.22.64.64,0,0,0,.2,0l1.6-.57a6.72,6.72,0,0,0,1.94,1.12l.31,1.67a.62.62,0,0,0,.5.5h0a8.56,8.56,0,0,0,3.11,0h0a.64.64,0,0,0,.5-.5l.31-1.66a7,7,0,0,0,1.94-1.13l1.59.57a.64.64,0,0,0,.69-.19l0,0a8.65,8.65,0,0,0,1.56-2.69l0-.05a.64.64,0,0,0-.19-.69Zm-1.38-2a5.44,5.44,0,0,1,0,1.8l-.13.78L33,18.42a7.37,7.37,0,0,1-.83,1.44l-1.82-.64-.61.5a5.71,5.71,0,0,1-1.55.9l-.74.27-.35,1.9a7.68,7.68,0,0,1-1.66,0l-.35-1.9-.74-.28a5.41,5.41,0,0,1-1.54-.9l-.61-.5h0l-1.83.65a7.3,7.3,0,0,1-.83-1.43L21,17.17l-.13-.79a5.63,5.63,0,0,1,0-1.77l.13-.78-1.47-1.26a7.09,7.09,0,0,1,.83-1.44l1.82.65.61-.51a5.38,5.38,0,0,1,1.54-.89l.74-.28.35-1.9a7.68,7.68,0,0,1,1.66,0l.35,1.9.74.28a5.3,5.3,0,0,1,1.55.89l.62.5,1.81-.64A7.37,7.37,0,0,1,33,12.57l-1.46,1.25Z" transform="translate(-6.39 -6.73)"/><path id="Path_2192" data-name="Path 2192" class="cls-1" d="M26.29,11.85a3.44,3.44,0,0,0,0,6.88h0a3.44,3.44,0,1,0,.12-6.88Zm0,5.63a2.19,2.19,0,1,1,0-4.38h0a2.2,2.2,0,0,1,1.55.64,2.25,2.25,0,0,1,.47.71,2.19,2.19,0,0,1-2,3Z" transform="translate(-6.39 -6.73)"/></g></g></svg>