<svg xmlns="http://www.w3.org/2000/svg" width="1860.573" height="567.995" viewBox="0 0 1860.573 567.995">
  <g id="Group_343" data-name="Group 343" transform="translate(209.041 -433.404)" opacity="0.05">
    <path id="Path_382" data-name="Path 382" d="M1646.928,768.793a4.549,4.549,0,0,0-4.626,4.467c0,.045.01.086.013.13l-44.122,6.136a6.494,6.494,0,0,0-2.792-3.839,6.869,6.869,0,0,0-9.048,1.452l-34.495-22.228a6.415,6.415,0,0,0-2.132-8.657,6.85,6.85,0,0,0-9.331,1.829,6.383,6.383,0,0,0,.011,7.248l-32.212,24.308a10.4,10.4,0,0,0-2.688-2.491,10.817,10.817,0,0,0-8.676-1.34l-2.035-6.876a4.2,4.2,0,0,0,2.608-5.116,4.38,4.38,0,0,0-5.4-2.9,4.223,4.223,0,0,0-2.991,5.242,4.376,4.376,0,0,0,5.014,2.99l2.046,6.9a10.515,10.515,0,0,0-4.955,3.593l-.53.775a10.092,10.092,0,0,0,3.219,13.843,10.711,10.711,0,0,0,3.887,1.537l-7.007,47.916a10.717,10.717,0,0,0-10.647,4.434,10,10,0,0,0-1.641,7.254l-35.278,6.919a10.226,10.226,0,0,0-4.413-6.067,10.777,10.777,0,0,0-14.665,2.874,10.171,10.171,0,0,0-.581.964l-31.887-14.272a9.979,9.979,0,0,0,1.568-6.867l21.16-3.678a5.072,5.072,0,0,0,2.147,2.885,5.336,5.336,0,0,0,7.259-1.42,5,5,0,0,0-1.466-7.05,5.331,5.331,0,0,0-7.257,1.422,4.932,4.932,0,0,0-.852,3.244l-21.163,3.679a10.222,10.222,0,0,0-4.463-6.288,10.729,10.729,0,0,0-4.64-1.646l1.913-26.666a10.68,10.68,0,0,0,9.069-4.583,10.1,10.1,0,0,0-2.964-14.24,11.129,11.129,0,0,0-2.261-1.107l17.1-53.528a10.861,10.861,0,0,0,7.97-.253l2.408,8.021a5.215,5.215,0,0,0-2.147,1.522,4.983,4.983,0,0,0,.764,7.152,5.342,5.342,0,0,0,7.367-.737,4.988,4.988,0,0,0-.761-7.154,5.357,5.357,0,0,0-4.3-1.045l-2.451-8.175a10.411,10.411,0,0,0,3.672-3.269,10.629,10.629,0,0,0,.656-1.167l19.913,4.529a6.408,6.408,0,0,0,2.4,6.1,6.871,6.871,0,0,0,9.471-.943,6.407,6.407,0,0,0-.977-9.2,6.871,6.871,0,0,0-9.472.945,6.494,6.494,0,0,0-1.2,2.186L1420.308,724l.153-.383a10.116,10.116,0,0,0-4.181-11.82,10.839,10.839,0,0,0-12.555.608l-24.37-26.347a10.372,10.372,0,0,0,1.391-1.641,10.015,10.015,0,0,0,1.757-6.01l16.319,1.622a6.467,6.467,0,0,0,3,5.639,6.853,6.853,0,0,0,9.332-1.829,6.412,6.412,0,0,0-1.885-9.058,6.853,6.853,0,0,0-9.33,1.83,6.436,6.436,0,0,0-1.023,2.486l-16.488-1.638a10.206,10.206,0,0,0-4.642-7.281,10.755,10.755,0,0,0-4.921-1.676l1.468-33.472a8.923,8.923,0,0,0,7.286-3.847,8.4,8.4,0,0,0,.364-8.944l22.526-13.769a6.626,6.626,0,0,0,1.7,1.58,6.855,6.855,0,0,0,9.333-1.832,6.414,6.414,0,0,0-1.881-9.06,6.865,6.865,0,0,0-9.334,1.831,6.372,6.372,0,0,0-.332,6.694l-22.524,13.766a8.745,8.745,0,0,0-2.333-2.2,9.107,9.107,0,0,0-8.712-.606l-10.235-18.276a6.58,6.58,0,0,0,1.985-1.887,6.418,6.418,0,0,0-1.888-9.06,6.856,6.856,0,0,0-9.332,1.827,6.427,6.427,0,0,0,1.885,9.064,6.89,6.89,0,0,0,6.5.5l10.238,18.283a8.789,8.789,0,0,0-2.741,2.569,8.457,8.457,0,0,0,2.486,11.936,9.068,9.068,0,0,0,4.045,1.4l-1.468,33.468a10.646,10.646,0,0,0-8.783,4.592,10.019,10.019,0,0,0-1.439,3.144l-24.569-4.932a10.346,10.346,0,0,0-4.677-10.381,10.905,10.905,0,0,0-3.426-1.453l-1.287-28.148a5.268,5.268,0,0,0,3.656-2.22,4.99,4.99,0,0,0-1.467-7.046,5.332,5.332,0,0,0-7.258,1.42,4.993,4.993,0,0,0,1.463,7.048,5.269,5.269,0,0,0,2.649.836l1.275,27.926a10.915,10.915,0,0,0-10.554,4.565,10.236,10.236,0,0,0,1,12.829l-17.692,17.058a10.766,10.766,0,0,0-2.342-2.049,10.987,10.987,0,0,0-14.948,2.931,10.331,10.331,0,0,0-.971,1.758l-39.274-22.015a6.341,6.341,0,0,0,.4-4.718l17.367-6.372a6.489,6.489,0,0,0,2.378,2.7,6.852,6.852,0,0,0,9.335-1.828,6.419,6.419,0,0,0-1.883-9.058,6.856,6.856,0,0,0-9.332,1.831,6.356,6.356,0,0,0-.846,5.481l-17.358,6.368a6.578,6.578,0,0,0-2.385-2.7,6.858,6.858,0,0,0-9.333,1.831,6.414,6.414,0,0,0-1.066,2.8l-39.377-2.028a10.342,10.342,0,0,0-4.743-9.956,10.906,10.906,0,0,0-4.342-1.628l2.335-21.2a5.283,5.283,0,0,0,4.437-2.268,4.99,4.99,0,0,0-1.469-7.045,5.328,5.328,0,0,0-7.259,1.421,4.992,4.992,0,0,0,1.469,7.044,5.236,5.236,0,0,0,1.865.751l-2.33,21.2a11.024,11.024,0,0,0-7.3,2.2l-24.748-28.119a10.709,10.709,0,0,0,1.621-1.857,10.278,10.278,0,0,0-3.021-14.508,10.974,10.974,0,0,0-14.943,2.932,9.748,9.748,0,0,0-.864,1.529l-56.853-21.69a10.123,10.123,0,0,0-4.164-11.875,10.779,10.779,0,0,0-14.667,2.874c-.114.17-.221.336-.321.509l-43.823-22.287a13.633,13.633,0,0,0,.907-9.818l88.392-26.884a10.278,10.278,0,0,0,4.093,5.045,10.773,10.773,0,0,0,14.665-2.876c.161-.242.318-.491.459-.745l26.343,12.535a10.109,10.109,0,0,0,3.921,12.494,10.782,10.782,0,0,0,14.669-2.878,10.135,10.135,0,0,0,1.34-2.845l33.447,3.76a7.155,7.155,0,0,0,.3,2.2,7.665,7.665,0,0,0,11.559,3.987l16.284,20.757a7.216,7.216,0,0,0-2.408,7.675,7.5,7.5,0,0,0,6.48,5.252l.688.042a7.872,7.872,0,0,0,2.2-.291,7.482,7.482,0,0,0,4.8-4.062l.253-.623a7.137,7.137,0,0,0,.1-4.406c-.067-.222-.145-.436-.229-.65l16.939-7.36a3.782,3.782,0,0,0,4.3,1.7,3.62,3.62,0,0,0,2.552-4.5,3.761,3.761,0,0,0-4.638-2.475,3.62,3.62,0,0,0-2.551,4.5c.018.057.04.107.059.16l-16.94,7.363a7.643,7.643,0,0,0-8.856-3.743,7.531,7.531,0,0,0-2.195,1.014l-16.284-20.76a7.28,7.28,0,0,0,2.707-5.4l17.229-.234a3.39,3.39,0,0,0,.124.628,3.76,3.76,0,0,0,4.635,2.475,3.623,3.623,0,0,0,2.552-4.5,3.765,3.765,0,0,0-4.64-2.475,3.659,3.659,0,0,0-2.682,3.205l-17.233.238a7.068,7.068,0,0,0-.285-1.606,7.257,7.257,0,0,0-1.7-2.925l19.249-18.848a7.725,7.725,0,0,0,7.184,1.6,7.419,7.419,0,0,0,5.281-5.5l24.207,3.926a7.106,7.106,0,0,0,.247,2.924,7.587,7.587,0,0,0,9.364,5,7.458,7.458,0,0,0,4.727-3.918l7.5,5.029a3.528,3.528,0,0,0-.33,2.8,3.751,3.751,0,0,0,4.631,2.473,3.616,3.616,0,0,0,2.552-4.5,3.792,3.792,0,0,0-6.465-1.318l-7.62-5.1a7.119,7.119,0,0,0,.148-4.547,7.275,7.275,0,0,0-2.85-3.912l3.607-9.361a3.852,3.852,0,0,0,2.028-.013,3.618,3.618,0,0,0,2.552-4.5,3.758,3.758,0,0,0-4.636-2.478,3.593,3.593,0,0,0-.583,6.754l-3.559,9.22a7.754,7.754,0,0,0-5.923-.715,7.434,7.434,0,0,0-5.283,5.512l-24.206-3.931a7.061,7.061,0,0,0-.247-2.923,7.594,7.594,0,0,0-9.364-5,7.243,7.243,0,0,0-3.454,12.019L1212.9,549.164a7.721,7.721,0,0,0-7.18-1.606,7.405,7.405,0,0,0-5.343,5.86l-33.3-3.746A10.05,10.05,0,0,0,1166,543l-.5-.8a10.36,10.36,0,0,0-2.981-2.9,10.772,10.772,0,0,0-14.663,2.877,9.267,9.267,0,0,0-.551.9l-26.328-12.528a10.1,10.1,0,0,0-3.845-12.653,10.717,10.717,0,0,0-1.795-.928L1130.4,476.76a6.827,6.827,0,0,0,7.447-2.67,6.415,6.415,0,0,0-1.883-9.058,6.856,6.856,0,0,0-9.332,1.829,6.425,6.425,0,0,0,1.884,9.063,7.378,7.378,0,0,0,.981.513l-15.061,40.209a10.862,10.862,0,0,0-5.244-.267l-5.916-23.052a10.546,10.546,0,0,0,5.8-4.16,10.093,10.093,0,0,0-2.964-14.242,10.835,10.835,0,0,0-12.712.741l-16.545-17.206a6.237,6.237,0,0,0,.678-.83,6.42,6.42,0,0,0-1.884-9.059,6.857,6.857,0,0,0-9.332,1.83,6.422,6.422,0,0,0,1.881,9.062,6.911,6.911,0,0,0,7.959-.363l16.539,17.2a10.545,10.545,0,0,0-1.25,1.5,10.08,10.08,0,0,0,2.964,14.235,10.8,10.8,0,0,0,7.935,1.514l5.916,23.054a10.506,10.506,0,0,0-5.792,4.163,9.988,9.988,0,0,0-1.416,8.3l-88.393,26.881a14.011,14.011,0,0,0-5.637-7.039,14.684,14.684,0,0,0-8.074-2.338l-2.081-50.6a10.605,10.605,0,0,0,7.91-4.545,9.983,9.983,0,0,0,1.391-2.984l30.378,6.606a6.456,6.456,0,0,0,2.926,6.411,6.856,6.856,0,0,0,9.334-1.832,6.418,6.418,0,0,0-1.883-9.056,6.855,6.855,0,0,0-9.334,1.83,6.519,6.519,0,0,0-.839,1.734l-30.369-6.6a10.137,10.137,0,0,0-4.567-10.345,10.83,10.83,0,0,0-9.166-1.2l-8.589-21.853a6.6,6.6,0,0,0,2.768-2.3,6.419,6.419,0,0,0-1.885-9.059,6.858,6.858,0,0,0-9.332,1.826,6.415,6.415,0,0,0,1.887,9.061,6.883,6.883,0,0,0,5.665.815l8.587,21.841a10.506,10.506,0,0,0-4.6,3.74,10.087,10.087,0,0,0,2.962,14.236,10.8,10.8,0,0,0,5.792,1.714l2.083,50.6a14.476,14.476,0,0,0-10.962,6.22,13.764,13.764,0,0,0,4.039,19.415,14.7,14.7,0,0,0,20-3.924c.19-.278.363-.557.526-.841l43.824,22.288a9.994,9.994,0,0,0,.088,8.862l-12.415,6.5a5.438,5.438,0,0,0-4.471-2.3,5.242,5.242,0,1,0,5.4,5.24,5.124,5.124,0,0,0-.415-2.014l12.426-6.51a10.412,10.412,0,0,0,3.121,3.124,10.774,10.774,0,0,0,6.717,1.673l2.282,35.6a5.414,5.414,0,1,0,1.077-.064l-2.287-35.674a10.572,10.572,0,0,0,6.88-4.412,10.384,10.384,0,0,0,.845-1.493l56.851,21.687a10.306,10.306,0,0,0,4.241,12.111,11.039,11.039,0,0,0,12.593-.465l24.748,28.118a10.294,10.294,0,0,0-2.191,12.5l-21.445,10.954a10.608,10.608,0,0,0-3.347-3.437,10.983,10.983,0,0,0-14.947,2.932,10.3,10.3,0,0,0-1.46,3.176l-20.58-4.211a6.459,6.459,0,0,0-2.938-6.334,6.859,6.859,0,0,0-9.332,1.83,6.418,6.418,0,0,0,1.884,9.061,6.86,6.86,0,0,0,9.335-1.829,6.516,6.516,0,0,0,.86-1.813l20.575,4.2a10.224,10.224,0,0,0,1.322,6.974l-22.542,14.112a18.771,18.771,0,0,0-6.531-7.14,19.644,19.644,0,0,0-25.484,3.675l-22.422-13.055a6.423,6.423,0,0,0-2.279-8.4,6.857,6.857,0,0,0-9.331,1.831,6.416,6.416,0,0,0,1.88,9.058,6.855,6.855,0,0,0,9.234-1.692l22.322,12.994c-.2.266-.394.534-.585.816a18.178,18.178,0,0,0-3.169,9.152l-73.356-2.7a13.888,13.888,0,0,0-6.448-11.736c-.4-.253-.808-.474-1.223-.689l12.84-35.337a6.872,6.872,0,0,0,6.4-1.557,6.4,6.4,0,0,0,.261-9.235,6.879,6.879,0,0,0-9.522-.252,6.4,6.4,0,0,0-.257,9.24,6.808,6.808,0,0,0,2.2,1.5l-12.8,35.226-.3-.135a14.8,14.8,0,0,0-14.635,2l-50.947-57.384a14.148,14.148,0,0,0,2.241-2.55,13.754,13.754,0,0,0-4.04-19.413,14.767,14.767,0,0,0-2.531-1.3l8.985-27.45a10.944,10.944,0,0,0,11.79-4.314,10.285,10.285,0,0,0-3.02-14.511,11.052,11.052,0,0,0-11.178-.435l-16.562-25.864a6.437,6.437,0,0,0,2.734-5.226,6.721,6.721,0,1,0-6.717,6.521,6.8,6.8,0,0,0,3.061-.748l16.567,25.87a10.565,10.565,0,0,0-2.852,2.814,10.282,10.282,0,0,0,3.018,14.511,10.839,10.839,0,0,0,2.246,1.1L918.9,620.467a14.652,14.652,0,0,0-16.56,5.548,13.764,13.764,0,0,0-1.106,1.968c-4.5-2.079-9.23-4.262-12.857-5.919a6.312,6.312,0,0,0,.43-2.23,6.721,6.721,0,1,0-6.718,6.521,6.72,6.72,0,0,0,5.83-3.343c3.524,1.61,8.184,3.758,12.9,5.94a13.782,13.782,0,0,0,5.559,16.472c.188.12.381.224.571.336l-7.533,10.868a5.1,5.1,0,0,0-2.337-.581,4.893,4.893,0,1,0,5.038,4.891,4.8,4.8,0,0,0-1.805-3.722l7.589-10.946a14.783,14.783,0,0,0,15.509-1.6l50.949,57.384a13.792,13.792,0,0,0-2.816,17.126L925.533,746.13a10.391,10.391,0,0,0-2.952-2.85,10.742,10.742,0,0,0-6.127-1.707l-6.394-40.946a4.485,4.485,0,0,0,3.388-4.292,4.607,4.607,0,1,0-4.605,4.469c.05,0,.1-.013.149-.015l6.384,40.867a10.588,10.588,0,0,0-7.459,4.494A10.022,10.022,0,0,0,906.2,750.9l-19.112-2.872a6.311,6.311,0,0,0,.161-1.389,6.721,6.721,0,1,0-6.718,6.522,6.709,6.709,0,0,0,6.234-4.123l19.393,2.917a10.136,10.136,0,0,0,3.576,7.587l-21.259,25.691c-.334-.246-.673-.483-1.027-.71a19.662,19.662,0,0,0-24.693,2.805L824.706,754.5a20.158,20.158,0,0,0,1.329-1.72,18.339,18.339,0,0,0-5.388-25.885,19.462,19.462,0,0,0-4.83-2.244l20.066-67.337a14.642,14.642,0,0,0,15.563-5.829,13.757,13.757,0,0,0-4.039-19.414,14.661,14.661,0,0,0-8.615-2.32l-.961.069a14.479,14.479,0,0,0-10.424,6.171,13.824,13.824,0,0,0-2.153,5.1L788.3,635.414a10.147,10.147,0,0,0-4.662-9.7,10.778,10.778,0,0,0-14.666,2.874,10.088,10.088,0,0,0,2.968,14.238,10.774,10.774,0,0,0,14.66-2.874,10,10,0,0,0,1.549-3.619l36.963,5.677a13.752,13.752,0,0,0,3.82,11.333l-12.755,13.546c-.143-.111-.292-.22-.448-.32a6.855,6.855,0,0,0-9.335,1.827,6.425,6.425,0,0,0,1.887,9.061,6.858,6.858,0,0,0,9.336-1.831,6.387,6.387,0,0,0-.729-8.109L829.61,654a14.641,14.641,0,0,0,1.838,1.4,14.473,14.473,0,0,0,3.509,1.647l-20.062,67.339a19.592,19.592,0,0,0-19.553,6l-26.307-20.445a8.4,8.4,0,0,0,1.629-4.963,8.881,8.881,0,1,0-8.877,8.617,8.961,8.961,0,0,0,6.571-2.839l26.31,20.446c-.232.3-.463.6-.68.913a18.151,18.151,0,0,0-2.108,16.5l-35.9,10.647a13.647,13.647,0,0,0-12.9-8.9A13.478,13.478,0,0,0,729.4,763.636a13.1,13.1,0,0,0,5.269,10.454l-34.711,46.873a19.175,19.175,0,0,0-8.208-3.9,19.479,19.479,0,0,0-11.9,1.231l-31.3-62.845a13.923,13.923,0,0,0,7.322-9.351,13.524,13.524,0,0,0,.089-5.458l36.218-7.719a10.332,10.332,0,0,0,7.911,7.312,10.49,10.49,0,0,0,12.466-7.791,10.185,10.185,0,0,0-8.036-12.1,10.488,10.488,0,0,0-12.462,7.792,9.838,9.838,0,0,0-.082,3.883l-36.226,7.719a13.987,13.987,0,0,0-7.742-9.118l6.731-16.974c.174.053.351.1.533.137a6.671,6.671,0,0,0,7.935-4.959,6.483,6.483,0,0,0-5.113-7.7,6.676,6.676,0,0,0-7.937,4.964,6.425,6.425,0,0,0,3.69,7.228l-6.711,16.935a14.911,14.911,0,0,0-2.217-.651,14.748,14.748,0,0,0-3.853-.291l-6.537-69.179a19.288,19.288,0,0,0,12.178-6.261l13.361,10.258a6.027,6.027,0,0,0-.962,3.241,6.415,6.415,0,1,0,6.413-6.225,6.447,6.447,0,0,0-4.805,2.143L647.4,653.054a18.134,18.134,0,0,0,3.555-7.393,17.939,17.939,0,0,0,.384-4.983l33.364-5.336a6.137,6.137,0,1,0-.216-1.523c0,.167.036.324.05.486l-33.288,5.323a18.374,18.374,0,0,0-6.325-11.759l19-27.239a17.282,17.282,0,0,0,10.319,2.569A16.64,16.64,0,0,0,690,585.641a15.977,15.977,0,0,0-.953-4.4l20.807-8.283a8.89,8.89,0,0,0,3.734,3.914,9.229,9.229,0,0,0,12.378-3.331,8.563,8.563,0,0,0,1.17-4.463l30.685-1.958a6.82,6.82,0,0,0,3.5,5.037,7.149,7.149,0,0,0,9.579-2.578,1.252,1.252,0,0,1,.074-.145l30.91,13.556a3.906,3.906,0,0,0,1.874,4.641,4.138,4.138,0,0,0,5.548-1.492,3.894,3.894,0,0,0-1.535-5.387,4.135,4.135,0,0,0-5.49,1.411l-30.921-13.562a6.73,6.73,0,0,0-3.118-8.319,7.143,7.143,0,0,0-9.577,2.579,6.662,6.662,0,0,0-.907,3.348l-30.685,1.958a8.787,8.787,0,0,0-4.538-6.642,9.226,9.226,0,0,0-12.374,3.333,8.533,8.533,0,0,0-.657,7.256l-20.793,8.275a17.019,17.019,0,0,0-16.795-10.061,17.657,17.657,0,0,0-2.543.359l-17.042-66.148a9.081,9.081,0,0,0,6.639-9.3,9.231,9.231,0,0,0-9.525-8.441l-2.957-41.936a5.8,5.8,0,0,0,5.1-6.093,5.879,5.879,0,0,0-6.332-5.357,5.758,5.758,0,0,0,.386,11.509l2.958,41.933a9.2,9.2,0,0,0-8.245,8.268l-25.689-.885c0-.063,0-.121,0-.184a5.878,5.878,0,0,0-6.329-5.357,5.817,5.817,0,0,0-5.518,6.144,5.953,5.953,0,0,0,11.822.221l25.686.883c0,.176.006.353.021.528a9.244,9.244,0,0,0,9.952,8.42,9.766,9.766,0,0,0,1.21-.16l17.04,66.148a16.948,16.948,0,0,0-9.447,6.537l-28.727-18.189a8.806,8.806,0,0,0,1.272-5.218,9.248,9.248,0,0,0-9.951-8.42,9.066,9.066,0,1,0,1.277,18.079,9.366,9.366,0,0,0,6.94-3.752l28.725,18.192a16.025,16.025,0,0,0-2.5,9.774,16.341,16.341,0,0,0,7.07,12.279l-18.95,27.176a19.336,19.336,0,0,0-29.658,7.561l-.331.869a19.14,19.14,0,0,0-.587,2.054,17.966,17.966,0,0,0-.39,4.851l-76.969-7.247a10.083,10.083,0,0,0-1.91-6.12L562.338,608.4a5.625,5.625,0,0,0,4.055,1.715,5.417,5.417,0,1,0-5.578-5.414,5.261,5.261,0,0,0,.864,2.87l-27.923,20.919a10.394,10.394,0,0,0-1-.994l-.748-.59q-.191-.132-.392-.263a10.823,10.823,0,0,0-13,1l-7.125-6.414a6.259,6.259,0,0,0,1.436-3.955A6.626,6.626,0,1,0,506.3,623.7a6.7,6.7,0,0,0,4.458-1.7l7.1,6.391a10.54,10.54,0,0,0-.9,1.125,10.01,10.01,0,0,0-.484,10.58l-46.014,26.956a14.126,14.126,0,0,0-4.121-4.038,14.692,14.692,0,0,0-9.356-2.272L451.658,621a6.709,6.709,0,0,0,4.272-2.79,6.42,6.42,0,0,0-1.89-9.059,6.858,6.858,0,0,0-9.331,1.827,6.42,6.42,0,0,0,1.885,9.063,6.846,6.846,0,0,0,4.11,1.072l5.315,39.753a14.435,14.435,0,0,0-9.686,6.074,13.634,13.634,0,0,0-2.372,6.746l-73.355-2.706a18.323,18.323,0,0,0-1.875-8.221l25.112-11.873a4.517,4.517,0,0,0,3.782,2.019,4.368,4.368,0,1,0-4.5-4.366,4.223,4.223,0,0,0,.257,1.4l-25.133,11.882a18.73,18.73,0,0,0-6.237-6.634,19.727,19.727,0,0,0-17.925-1.73L338.8,635.864a6.646,6.646,0,0,0,3.264-2.5,6.416,6.416,0,0,0-1.884-9.06,6.854,6.854,0,0,0-9.332,1.83,6.421,6.421,0,0,0,1.882,9.06,6.86,6.86,0,0,0,5.147.936l5.323,17.706a19.027,19.027,0,0,0-7.85,6.579,18.355,18.355,0,0,0-1.675,3.109L298.4,653.732a4.258,4.258,0,0,0,.085-.828,4.5,4.5,0,1,0-4.5,4.367,4.5,4.5,0,0,0,4.074-2.543l35.193,9.766a18.2,18.2,0,0,0,.531,13.806l-22.65,14.179a10.5,10.5,0,0,0-2.829-2.661,10.98,10.98,0,0,0-14.946,2.93,10.2,10.2,0,0,0-.776,10.246l-21.482,10.968a10.7,10.7,0,0,0-3.1-3.053,10.969,10.969,0,0,0-5.983-1.746l-.582-12.253a5.223,5.223,0,0,0,3.642-2.214,5,5,0,0,0-1.463-7.05,5.334,5.334,0,0,0-7.261,1.425,4.994,4.994,0,0,0,1.467,7.045,5.3,5.3,0,0,0,2.657.838l.581,12.254a10.806,10.806,0,0,0-8.007,4.629,10.242,10.242,0,0,0-1.563,3.625l-39.482-2.033a6.452,6.452,0,0,0-2.616-5.047l8.006-11.7a6.851,6.851,0,0,0,8.918-2.069,6.42,6.42,0,0,0-1.882-9.06,6.858,6.858,0,0,0-9.335,1.83,6.405,6.405,0,0,0,1.5,8.782l-8,11.706a6.851,6.851,0,0,0-8.883,2.021L160.291,689.8a10.308,10.308,0,0,0-4.321-11.866,10.922,10.922,0,0,0-5.171-1.716l.678-22.619a6.759,6.759,0,0,0,5.324-2.911,6.418,6.418,0,0,0-1.882-9.059,6.857,6.857,0,0,0-9.335,1.833,6.419,6.419,0,0,0,1.885,9.059,6.823,6.823,0,0,0,3.049,1.055l-.681,22.611a10.856,10.856,0,0,0-8.812,4.679,10.212,10.212,0,0,0,.091,11.711l-17.789,17.149a10.249,10.249,0,0,0-1.341-1.022,10.989,10.989,0,0,0-14.949,2.93,10.4,10.4,0,0,0-1.467,3.214L81,709.91a10.149,10.149,0,0,0-4.593-10.177,10.846,10.846,0,0,0-12.557.611L39.484,674a10.662,10.662,0,0,0,1.395-1.643,10.086,10.086,0,0,0-2.962-14.235,10.483,10.483,0,0,0-1.262-.694L53.788,603.8a10.743,10.743,0,0,0,11.488-4.258,10.087,10.087,0,0,0-2.964-14.236,10.758,10.758,0,0,0-4.637-1.647L59.584,557a10.669,10.669,0,0,0,9.069-4.585,10.079,10.079,0,0,0-2.568-13.97l12.55-18.35a5.336,5.336,0,0,0,6.847-1.665,4.994,4.994,0,0,0-1.465-7.047,5.335,5.335,0,0,0-7.26,1.423,4.985,4.985,0,0,0,1.08,6.771L65.283,537.927a10.793,10.793,0,0,0-13.8,2.508l-32.042-14.34a10.115,10.115,0,0,0-3.948-12.429,10.788,10.788,0,0,0-14.391,2.5l-19.263-12.416a6.414,6.414,0,0,0-2.13-8.655,6.856,6.856,0,0,0-9.332,1.83,6.421,6.421,0,0,0,1.884,9.06,6.865,6.865,0,0,0,9.046-1.456L.567,516.938A9.987,9.987,0,0,0-.816,523.8l-35.28,6.918a10.218,10.218,0,0,0-4.412-6.068,10.773,10.773,0,0,0-14.664,2.873c-.021.032-.04.061-.055.089L-75.3,509.634c.122-.149.237-.3.347-.461a6.413,6.413,0,0,0-1.885-9.059,6.855,6.855,0,0,0-9.331,1.831A6.415,6.415,0,0,0-84.282,511a6.881,6.881,0,0,0,8.33-.685l20.224,18.113a9.976,9.976,0,0,0-.9,7.219l-43.917,15.677a5.079,5.079,0,0,0-1.827-2.05,5.334,5.334,0,0,0-7.259,1.421,4.993,4.993,0,0,0,1.467,7.046,5.333,5.333,0,0,0,7.26-1.423,4.941,4.941,0,0,0,.69-4.117l43.858-15.659a10.277,10.277,0,0,0,4.148,5.211,10.753,10.753,0,0,0,1.837.946l.907.317c.111.034.227.063.336.1L-56.15,591.1a10.7,10.7,0,0,0-9.825,4.543,10.093,10.093,0,0,0-1.528,3.519l-.161.923a10.065,10.065,0,0,0,1.433,6.524l-32.275,24.358a6.636,6.636,0,0,0-1.278-1.081,6.864,6.864,0,0,0-9.047,1.456l-34.492-22.234a6.419,6.419,0,0,0-2.134-8.656,6.858,6.858,0,0,0-9.333,1.831,6.357,6.357,0,0,0-1.091,4.2l-44.1,6.133a4.579,4.579,0,0,0-4.432-3.339,4.551,4.551,0,0,0-4.628,4.468,4.548,4.548,0,0,0,4.605,4.493,4.552,4.552,0,0,0,4.626-4.468c0-.045-.01-.086-.014-.132L-155.7,607.5a6.489,6.489,0,0,0,2.793,3.84,6.869,6.869,0,0,0,9.049-1.451l34.493,22.229a6.412,6.412,0,0,0,2.133,8.656,6.852,6.852,0,0,0,9.332-1.828,6.38,6.38,0,0,0-.011-7.248L-65.7,607.392a10.367,10.367,0,0,0,2.689,2.49,10.809,10.809,0,0,0,8.674,1.341L-52.3,618.1a4.2,4.2,0,0,0-2.609,5.116,4.379,4.379,0,0,0,5.4,2.9,4.223,4.223,0,0,0,2.992-5.242,4.379,4.379,0,0,0-5.015-2.99l-2.046-6.9a10.518,10.518,0,0,0,4.955-3.594l.53-.776a10.091,10.091,0,0,0-3.22-13.843,10.717,10.717,0,0,0-3.886-1.537l7.006-47.915a10.72,10.72,0,0,0,10.647-4.435,10,10,0,0,0,1.641-7.255l35.277-6.916a10.242,10.242,0,0,0,4.413,6.068A10.779,10.779,0,0,0,18.452,527.9a10.219,10.219,0,0,0,.581-.963l31.887,14.271a9.985,9.985,0,0,0-1.568,6.869l-21.16,3.676a5.085,5.085,0,0,0-2.147-2.885,5.336,5.336,0,0,0-7.258,1.422,4.993,4.993,0,0,0,1.464,7.048,5.334,5.334,0,0,0,7.259-1.421,4.955,4.955,0,0,0,.852-3.244L49.525,549a10.219,10.219,0,0,0,4.462,6.29,10.729,10.729,0,0,0,4.639,1.644L56.713,583.6a10.675,10.675,0,0,0-9.068,4.583,10.1,10.1,0,0,0,2.964,14.239,11.121,11.121,0,0,0,2.261,1.105l-17.1,53.528a10.861,10.861,0,0,0-7.969.254l-2.406-8.021a5.231,5.231,0,0,0,2.147-1.523,4.983,4.983,0,0,0-.764-7.151,5.341,5.341,0,0,0-7.366.737,4.985,4.985,0,0,0,.761,7.152,5.343,5.343,0,0,0,4.3,1.046l2.451,8.175a10.39,10.39,0,0,0-3.672,3.269,10.1,10.1,0,0,0-.656,1.167L2.679,657.63a6.41,6.41,0,0,0-2.4-6.1,6.872,6.872,0,0,0-9.471.942,6.409,6.409,0,0,0,.977,9.2,6.87,6.87,0,0,0,9.472-.946,6.516,6.516,0,0,0,1.2-2.186l19.722,4.488-.153.382a10.118,10.118,0,0,0,4.181,11.821,10.837,10.837,0,0,0,12.554-.609l24.37,26.348a10.387,10.387,0,0,0-1.392,1.64,10.015,10.015,0,0,0-1.756,6.01L43.668,707a6.46,6.46,0,0,0-3-5.639,6.853,6.853,0,0,0-9.332,1.828,6.415,6.415,0,0,0,1.885,9.059,6.855,6.855,0,0,0,9.331-1.83,6.464,6.464,0,0,0,1.023-2.486l16.486,1.638a10.212,10.212,0,0,0,4.642,7.279,10.746,10.746,0,0,0,4.922,1.677l-1.468,33.472a8.924,8.924,0,0,0-7.288,3.848,8.4,8.4,0,0,0-.363,8.943L37.98,778.555a6.634,6.634,0,0,0-1.694-1.581,6.858,6.858,0,0,0-9.333,1.833,6.413,6.413,0,0,0,1.88,9.06,6.865,6.865,0,0,0,9.336-1.831,6.373,6.373,0,0,0,.331-6.694l22.523-13.765a8.766,8.766,0,0,0,2.333,2.2,9.109,9.109,0,0,0,8.71.605L82.3,786.657a6.609,6.609,0,0,0-1.985,1.889,6.417,6.417,0,0,0,1.888,9.06,6.856,6.856,0,0,0,9.331-1.828,6.424,6.424,0,0,0-1.886-9.063,6.884,6.884,0,0,0-6.5-.5L72.91,767.934a8.787,8.787,0,0,0,2.741-2.569,8.458,8.458,0,0,0-2.485-11.937,9.068,9.068,0,0,0-4.046-1.4l1.468-33.468a10.648,10.648,0,0,0,8.783-4.59,10.053,10.053,0,0,0,1.439-3.146l24.569,4.932a10.346,10.346,0,0,0,4.677,10.381,10.917,10.917,0,0,0,3.425,1.454l1.286,28.148a5.262,5.262,0,0,0-3.655,2.22,4.991,4.991,0,0,0,1.467,7.045,5.333,5.333,0,0,0,7.259-1.419,4.993,4.993,0,0,0-1.464-7.048,5.266,5.266,0,0,0-2.648-.836l-1.276-27.926A10.914,10.914,0,0,0,125,723.211a10.235,10.235,0,0,0-1-12.829L141.7,693.323a10.744,10.744,0,0,0,2.341,2.049,10.987,10.987,0,0,0,14.949-2.931,10.337,10.337,0,0,0,.969-1.759L199.232,712.7a6.352,6.352,0,0,0-.4,4.719l-17.365,6.372a6.482,6.482,0,0,0-2.378-2.7,6.852,6.852,0,0,0-9.335,1.828,6.419,6.419,0,0,0,1.884,9.058,6.854,6.854,0,0,0,9.331-1.831,6.35,6.35,0,0,0,.845-5.48l17.359-6.367a6.567,6.567,0,0,0,2.386,2.7,6.857,6.857,0,0,0,9.332-1.83,6.418,6.418,0,0,0,1.067-2.8l39.377,2.028a10.344,10.344,0,0,0,4.742,9.956,10.922,10.922,0,0,0,4.342,1.627l-2.333,21.2a5.281,5.281,0,0,0-4.438,2.267,4.989,4.989,0,0,0,1.469,7.045,5.325,5.325,0,0,0,7.258-1.421,4.991,4.991,0,0,0-1.468-7.044,5.242,5.242,0,0,0-1.865-.75l2.331-21.2a11.028,11.028,0,0,0,7.3-2.2L293.415,756a10.733,10.733,0,0,0-1.622,1.859,10.28,10.28,0,0,0,3.021,14.508,10.977,10.977,0,0,0,14.945-2.933,9.732,9.732,0,0,0,.863-1.528l56.854,21.69a10.122,10.122,0,0,0,4.164,11.874,10.778,10.778,0,0,0,14.667-2.875c.114-.169.22-.335.323-.509L430.45,820.37a13.639,13.639,0,0,0-.907,9.819l-88.392,26.884a10.282,10.282,0,0,0-4.092-5.046,10.774,10.774,0,0,0-14.665,2.877c-.164.241-.316.491-.46.744l-26.342-12.535a10.107,10.107,0,0,0-3.92-12.495A10.781,10.781,0,0,0,277,833.5a10.1,10.1,0,0,0-1.34,2.845l-33.447-3.759a7.076,7.076,0,0,0-.3-2.2,7.594,7.594,0,0,0-9.364-5,7.5,7.5,0,0,0-2.193,1.014l-16.286-20.758a7.209,7.209,0,0,0,2.408-7.673A7.5,7.5,0,0,0,210,792.71l-.688-.041a7.921,7.921,0,0,0-2.2.29,7.493,7.493,0,0,0-4.8,4.063l-.252.624a7.133,7.133,0,0,0-.1,4.406c.067.222.145.437.228.649l-16.938,7.361a3.783,3.783,0,0,0-4.3-1.7,3.62,3.62,0,0,0-2.552,4.5,3.759,3.759,0,0,0,4.637,2.475,3.618,3.618,0,0,0,2.552-4.5c-.018-.055-.039-.107-.059-.161l16.94-7.362a7.642,7.642,0,0,0,8.854,3.742,7.54,7.54,0,0,0,2.2-1.014l16.286,20.76a7.276,7.276,0,0,0-2.708,5.4l-17.229.233a3.287,3.287,0,0,0-.124-.626,3.761,3.761,0,0,0-4.636-2.477,3.62,3.62,0,0,0-2.551,4.5,3.763,3.763,0,0,0,4.638,2.476,3.661,3.661,0,0,0,2.683-3.206l17.231-.237a7.19,7.19,0,0,0,.285,1.606,7.273,7.273,0,0,0,1.7,2.925l-19.251,18.847a7.72,7.72,0,0,0-7.181-1.6,7.422,7.422,0,0,0-5.282,5.506l-24.207-3.927a7.132,7.132,0,0,0-.247-2.925,7.588,7.588,0,0,0-9.363-5,7.459,7.459,0,0,0-4.728,3.919l-7.505-5.029a3.525,3.525,0,0,0,.329-2.794,3.75,3.75,0,0,0-4.63-2.475,3.619,3.619,0,0,0-2.553,4.5,3.759,3.759,0,0,0,4.638,2.475,3.706,3.706,0,0,0,1.826-1.158l7.621,5.105a7.117,7.117,0,0,0-.149,4.546,7.287,7.287,0,0,0,2.851,3.912l-3.608,9.361a3.865,3.865,0,0,0-2.029.01,3.619,3.619,0,0,0-2.552,4.5,3.758,3.758,0,0,0,4.638,2.477,3.62,3.62,0,0,0,2.549-4.5,3.661,3.661,0,0,0-1.968-2.253l3.56-9.221a7.744,7.744,0,0,0,5.921.716,7.438,7.438,0,0,0,5.285-5.513l24.206,3.932a7.094,7.094,0,0,0,.247,2.925,7.6,7.6,0,0,0,9.364,5,7.245,7.245,0,0,0,3.455-12.019l19.252-18.847a7.717,7.717,0,0,0,7.181,1.606,7.405,7.405,0,0,0,5.343-5.861l33.3,3.746a10.047,10.047,0,0,0,1.086,6.674l.495.8a10.382,10.382,0,0,0,2.978,2.9,10.774,10.774,0,0,0,14.664-2.877,9.736,9.736,0,0,0,.551-.9l26.326,12.528a10.105,10.105,0,0,0,3.848,12.653,10.761,10.761,0,0,0,1.793.928l-15.062,40.2a6.827,6.827,0,0,0-7.448,2.67A6.415,6.415,0,0,0,306.523,922a6.854,6.854,0,0,0,9.331-1.828,6.424,6.424,0,0,0-1.883-9.064,7.407,7.407,0,0,0-.981-.513l15.06-40.208a10.886,10.886,0,0,0,5.245.268l5.915,23.051a10.546,10.546,0,0,0-5.8,4.16,10.091,10.091,0,0,0,2.964,14.241,10.835,10.835,0,0,0,12.712-.74l16.545,17.205a6.524,6.524,0,0,0-.678.828,6.419,6.419,0,0,0,1.884,9.059,6.855,6.855,0,0,0,9.332-1.83,6.421,6.421,0,0,0-1.881-9.061,6.912,6.912,0,0,0-7.959.363l-16.538-17.2a10.73,10.73,0,0,0,1.25-1.5,10.082,10.082,0,0,0-2.964-14.236,10.817,10.817,0,0,0-7.936-1.513l-5.916-23.054a10.5,10.5,0,0,0,5.793-4.163,9.984,9.984,0,0,0,1.416-8.3l88.393-26.882a14.015,14.015,0,0,0,5.637,7.039,14.7,14.7,0,0,0,8.074,2.337l2.083,50.6a10.606,10.606,0,0,0-7.909,4.545,10.022,10.022,0,0,0-1.394,2.985l-30.377-6.605a6.459,6.459,0,0,0-2.926-6.413,6.858,6.858,0,0,0-9.335,1.832,6.419,6.419,0,0,0,1.883,9.057,6.857,6.857,0,0,0,9.334-1.83,6.5,6.5,0,0,0,.839-1.735l30.37,6.6a10.136,10.136,0,0,0,4.566,10.346,10.835,10.835,0,0,0,9.167,1.2l8.588,21.851a6.624,6.624,0,0,0-2.767,2.3,6.419,6.419,0,0,0,1.885,9.06,6.857,6.857,0,0,0,9.332-1.827,6.414,6.414,0,0,0-1.886-9.061,6.886,6.886,0,0,0-5.664-.816L450.74,910.7a10.478,10.478,0,0,0,4.6-3.739,10.088,10.088,0,0,0-2.962-14.237,10.785,10.785,0,0,0-5.792-1.713l-2.082-50.6a14.483,14.483,0,0,0,10.963-6.22,13.765,13.765,0,0,0-4.04-19.416,14.7,14.7,0,0,0-20,3.925c-.189.278-.362.556-.526.841l-43.823-22.288a9.983,9.983,0,0,0,.581-7.171l43.1-17.239a5.4,5.4,0,0,0,4.74,2.779,5.243,5.243,0,1,0-5.4-5.24,5.048,5.048,0,0,0,.25,1.492L387.3,789.094a10.279,10.279,0,0,0-3.96-4.739,10.771,10.771,0,0,0-6.41-1.688V769.055a5.4,5.4,0,1,0-1.079,0v13.723a10.572,10.572,0,0,0-7.179,4.455,10.407,10.407,0,0,0-.846,1.493l-56.851-21.687a10.3,10.3,0,0,0-4.241-12.111,11.041,11.041,0,0,0-12.593.466L269.4,727.275a10.3,10.3,0,0,0,2.191-12.5l21.446-10.954a10.594,10.594,0,0,0,3.346,3.437,10.983,10.983,0,0,0,14.947-2.931,10.3,10.3,0,0,0,1.461-3.177l20.58,4.211a6.455,6.455,0,0,0,2.937,6.333,6.859,6.859,0,0,0,9.335-1.829,6.419,6.419,0,0,0-1.885-9.061,6.861,6.861,0,0,0-9.335,1.828,6.486,6.486,0,0,0-.86,1.814l-20.576-4.205a10.21,10.21,0,0,0-1.324-6.975L334.2,679.154a18.778,18.778,0,0,0,6.532,7.141,19.639,19.639,0,0,0,25.482-3.675l22.424,13.055a6.423,6.423,0,0,0,2.278,8.4,6.858,6.858,0,0,0,9.333-1.83,6.418,6.418,0,0,0-1.881-9.059,6.855,6.855,0,0,0-9.233,1.691L366.814,681.88c.2-.265.4-.532.585-.815a18.18,18.18,0,0,0,3.169-9.154l73.355,2.7a13.886,13.886,0,0,0,6.448,11.735,15.488,15.488,0,0,0,1.475.831l.292.132-16.451,33.227a6.9,6.9,0,0,0-6.541.873,6.405,6.405,0,0,0-1.292,9.153,6.869,6.869,0,0,0,9.437,1.254,6.412,6.412,0,0,0,1.288-9.158,6.725,6.725,0,0,0-2.021-1.721l16.464-33.263a14.8,14.8,0,0,0,14.378-2.087l50.947,57.384a14.125,14.125,0,0,0-2.241,2.55,13.754,13.754,0,0,0,4.041,19.414,14.776,14.776,0,0,0,2.531,1.3L513.7,793.694a10.945,10.945,0,0,0-11.79,4.314,10.285,10.285,0,0,0,3.02,14.512,10.985,10.985,0,0,0,14.945-2.931,10.284,10.284,0,0,0-3.018-14.512,10.87,10.87,0,0,0-2.245-1.1l8.98-27.415a14.656,14.656,0,0,0,16.559-5.544,13.753,13.753,0,0,0-4.039-19.411,14.779,14.779,0,0,0-17.031.755l-50.95-57.382a13.8,13.8,0,0,0,2.239-2.551,13.641,13.641,0,0,0,.577-14.576L516.958,640.9a10.386,10.386,0,0,0,2.952,2.852,10.709,10.709,0,0,0,3.688,1.494l-1.924,8.166a5.675,5.675,0,0,0-1.282-.158,5.417,5.417,0,1,0,5.578,5.414,5.4,5.4,0,0,0-3.267-4.916l1.964-8.343a10.827,10.827,0,0,0,7.676-2.17l14.7,17.145a5.3,5.3,0,0,0-1.524,3.7,5.58,5.58,0,1,0,5.578-5.415,5.657,5.657,0,0,0-3.242,1.023l-14.7-17.147a10.316,10.316,0,0,0,1.42-1.662,10.071,10.071,0,0,0,1.683-4.4l77.121,7.261a18.708,18.708,0,0,0,14.915,16.093,19.681,19.681,0,0,0,5.292.378l6.535,69.18a14.375,14.375,0,0,0-10.2,6.2L585.6,707.79a6.307,6.307,0,0,0,.826-3.072,6.721,6.721,0,1,0-6.718,6.521,6.751,6.751,0,0,0,5.308-2.567l44.354,27.822a13.566,13.566,0,0,0,4.747,18.294l-6.612,9.888a6.809,6.809,0,0,0-3.177-.808,6.523,6.523,0,1,0,6.718,6.52,6.421,6.421,0,0,0-2.634-5.144l6.628-9.913a14.632,14.632,0,0,0,12.654.515l31.3,62.843a18.552,18.552,0,0,0-9.908,12.541,17.912,17.912,0,0,0,1.141,11.257L635.254,858.2a10.588,10.588,0,0,0-19.554,2.53,10.182,10.182,0,0,0,8.029,12.1,10.491,10.491,0,0,0,12.468-7.8,9.862,9.862,0,0,0-.544-6l34.969-15.7a18.815,18.815,0,0,0,9.415,8.758L650.05,922.939a12.106,12.106,0,0,0-1.318-.368,10.494,10.494,0,0,0-12.47,7.8c-.042.193-.078.388-.113.583l-28.7-3.058a6.518,6.518,0,0,0-5.252-6.573,6.672,6.672,0,0,0-7.93,4.96,6.473,6.473,0,0,0,5.108,7.7,6.673,6.673,0,0,0,7.932-4.961c.013-.069.018-.135.033-.2l28.705,3.056a10.219,10.219,0,0,0,7.783,10.491l-10.286,46.151a6.661,6.661,0,0,0-7.462,5.039,6.477,6.477,0,0,0,5.111,7.7,6.67,6.67,0,0,0,7.931-4.959,6.453,6.453,0,0,0-4.65-7.58l10.285-46.156a10.479,10.479,0,0,0,12-7.887,10.1,10.1,0,0,0-5.828-11.379l29.986-70.857a19.439,19.439,0,0,0,23.118-7.747l21.736,12.472a9.6,9.6,0,0,0-.481,8.171,10.3,10.3,0,0,0,13.2,5.651,9.983,9.983,0,0,0,6.151-6.67l33.788,7a7.394,7.394,0,0,0,.451,3.866A7.966,7.966,0,0,0,789.1,879.55a7.615,7.615,0,0,0,4.852-8.758l36.643-10.211a4.616,4.616,0,0,0,5.866,2.433,4.4,4.4,0,0,0,2.608-5.745,4.62,4.62,0,0,0-5.92-2.536,4.43,4.43,0,0,0-2.857,4.867L793.66,869.807c-.02-.059-.037-.116-.059-.174a7.97,7.97,0,0,0-10.215-4.371,7.736,7.736,0,0,0-4.729,5.047l-33.789-7a9.535,9.535,0,0,0-.555-5.145,10.3,10.3,0,0,0-13.2-5.651,10.091,10.091,0,0,0-4.805,3.764l-21.75-12.483a17.989,17.989,0,0,0-3.792-22.119l34.778-46.966a13.9,13.9,0,0,0,7.534,2.2,13.479,13.479,0,0,0,13.675-13.273,12.911,12.911,0,0,0-.462-3.37l35.96-10.662a18.716,18.716,0,0,0,7.127,8.4,19.787,19.787,0,0,0,2.4,1.3l-10.819,24.563a9.118,9.118,0,0,0-2.778-.438,8.621,8.621,0,1,0,8.877,8.618,8.6,8.6,0,0,0-5.1-7.789l10.8-24.524a19.65,19.65,0,0,0,21.309-4.537l38.059,32.829a18.312,18.312,0,0,0,4.046,27.6,19.505,19.505,0,0,0,7.7,2.894l.956.118a19.443,19.443,0,0,0,18.014-8.241,18.291,18.291,0,0,0-3.61-24.587l21.257-25.687c.129.088.259.176.392.263a10.78,10.78,0,0,0,14.667-2.876,10.015,10.015,0,0,0,.485-10.58l46.013-26.956a14.133,14.133,0,0,0,4.12,4.037,14.693,14.693,0,0,0,9.356,2.272l5.314,39.747a6.713,6.713,0,0,0-4.272,2.791,6.42,6.42,0,0,0,1.89,9.059,6.857,6.857,0,0,0,9.331-1.827,6.42,6.42,0,0,0-1.884-9.063,6.854,6.854,0,0,0-4.111-1.073l-5.314-39.754a14.427,14.427,0,0,0,9.686-6.072,13.643,13.643,0,0,0,2.371-6.746l73.355,2.705a18.505,18.505,0,0,0,8.592,15.795,19.725,19.725,0,0,0,17.924,1.728l5.294,17.591a6.636,6.636,0,0,0-3.264,2.5,6.417,6.417,0,0,0,1.882,9.06,6.857,6.857,0,0,0,9.333-1.829,6.424,6.424,0,0,0-1.882-9.061,6.865,6.865,0,0,0-5.147-.936l-5.325-17.707a19.015,19.015,0,0,0,7.851-6.579,18.187,18.187,0,0,0,1.558-17.888l22.65-14.18a10.471,10.471,0,0,0,2.827,2.661,10.982,10.982,0,0,0,14.947-2.93,10.2,10.2,0,0,0,.777-10.245l21.48-10.967a10.69,10.69,0,0,0,3.1,3.053,10.97,10.97,0,0,0,5.982,1.746l.582,12.252a5.23,5.23,0,0,0-3.642,2.214,5,5,0,0,0,1.463,7.05,5.336,5.336,0,0,0,7.261-1.425,5,5,0,0,0-1.466-7.047,5.325,5.325,0,0,0-2.658-.836l-.58-12.254a10.819,10.819,0,0,0,8.007-4.63,10.235,10.235,0,0,0,1.563-3.624l39.481,2.033a6.46,6.46,0,0,0,2.616,5.047l-8.006,11.7a6.855,6.855,0,0,0-8.919,2.068,6.421,6.421,0,0,0,1.883,9.06,6.858,6.858,0,0,0,9.335-1.829,6.4,6.4,0,0,0-1.5-8.783l8.005-11.706a6.852,6.852,0,0,0,8.884-2.021l39.419,22.092a10.305,10.305,0,0,0,4.32,11.864,10.926,10.926,0,0,0,5.171,1.717l-.678,22.62a6.757,6.757,0,0,0-5.323,2.911,6.417,6.417,0,0,0,1.881,9.058,6.858,6.858,0,0,0,9.336-1.831,6.421,6.421,0,0,0-1.885-9.059,6.845,6.845,0,0,0-3.048-1.058l.678-22.61a10.862,10.862,0,0,0,8.815-4.679,10.212,10.212,0,0,0-.092-11.71l17.79-17.149a10.228,10.228,0,0,0,1.34,1.022,10.987,10.987,0,0,0,14.948-2.929,10.358,10.358,0,0,0,1.466-3.215l24.567,4.934a10.147,10.147,0,0,0,4.593,10.177,10.844,10.844,0,0,0,12.557-.612l24.37,26.349a10.6,10.6,0,0,0-1.394,1.643,10.087,10.087,0,0,0,2.965,14.235,10.52,10.52,0,0,0,1.26.694L1388.7,783.231a10.737,10.737,0,0,0-11.486,4.258,10.083,10.083,0,0,0,2.963,14.234,10.73,10.73,0,0,0,4.637,1.649l-1.91,26.663a10.672,10.672,0,0,0-9.069,4.586,10.079,10.079,0,0,0,2.568,13.969l-12.549,18.351a5.338,5.338,0,0,0-6.848,1.664,4.993,4.993,0,0,0,1.465,7.047,5.333,5.333,0,0,0,7.26-1.423,4.983,4.983,0,0,0-1.081-6.77l12.553-18.354a10.791,10.791,0,0,0,13.8-2.509l32.042,14.339A10.119,10.119,0,0,0,1427,873.366a10.789,10.789,0,0,0,14.391-2.5l19.263,12.414a6.417,6.417,0,0,0,2.129,8.658,6.858,6.858,0,0,0,9.332-1.831,6.421,6.421,0,0,0-1.884-9.061,6.865,6.865,0,0,0-9.047,1.457l-19.262-12.415a9.981,9.981,0,0,0,1.384-6.859l35.28-6.918a10.226,10.226,0,0,0,4.412,6.069,10.775,10.775,0,0,0,14.663-2.874c.02-.033.041-.061.056-.089l20.069,17.974c-.122.151-.237.3-.345.46a6.414,6.414,0,0,0,1.884,9.06,6.855,6.855,0,0,0,9.331-1.83,6.414,6.414,0,0,0-1.884-9.058,6.878,6.878,0,0,0-8.33.685L1498.221,858.6a9.965,9.965,0,0,0,.9-7.219l43.919-15.677a5.084,5.084,0,0,0,1.827,2.049,5.332,5.332,0,0,0,7.258-1.422,4.993,4.993,0,0,0-1.466-7.047,5.334,5.334,0,0,0-7.261,1.424,4.945,4.945,0,0,0-.69,4.117l-43.858,15.659a10.262,10.262,0,0,0-4.146-5.211,10.82,10.82,0,0,0-1.838-.947l-.907-.316c-.112-.035-.226-.063-.338-.095l7.019-47.987a10.693,10.693,0,0,0,9.826-4.543,10.06,10.06,0,0,0,1.528-3.52l.162-.922a10.073,10.073,0,0,0-1.434-6.524L1541,756.062a6.644,6.644,0,0,0,1.279,1.08,6.859,6.859,0,0,0,9.045-1.456l34.494,22.235a6.419,6.419,0,0,0,2.132,8.656,6.861,6.861,0,0,0,9.335-1.831,6.363,6.363,0,0,0,1.09-4.2l44.1-6.133a4.589,4.589,0,1,0,4.455-5.62Z" transform="translate(0 0)" fill="#003262" opacity="0.2"/>
    <path id="Path_383" data-name="Path 383" d="M1643.627,800.19a3.922,3.922,0,0,0-4,3.841c0,.038.01.074.013.112l-38.115,5.276a5.587,5.587,0,0,0-2.413-3.3,5.954,5.954,0,0,0-7.816,1.248l-29.8-19.11a5.5,5.5,0,0,0-1.842-7.441,5.937,5.937,0,0,0-8.061,1.571,5.465,5.465,0,0,0,.009,6.232l-27.825,20.9a8.937,8.937,0,0,0-2.322-2.141,9.378,9.378,0,0,0-7.494-1.153l-1.759-5.911a3.607,3.607,0,0,0,2.253-4.4,3.785,3.785,0,0,0-4.666-2.493,3.629,3.629,0,0,0-2.584,4.507,3.784,3.784,0,0,0,4.333,2.57l1.767,5.933a9.076,9.076,0,0,0-4.281,3.089l-.458.666a8.65,8.65,0,0,0,2.781,11.9,9.26,9.26,0,0,0,3.359,1.322l-6.053,41.194a9.275,9.275,0,0,0-9.2,3.812,8.561,8.561,0,0,0-1.418,6.237l-30.473,5.947a8.8,8.8,0,0,0-3.813-5.216,9.337,9.337,0,0,0-12.668,2.472,8.453,8.453,0,0,0-.5.828l-27.545-12.269a8.55,8.55,0,0,0,1.354-5.9l18.278-3.161a4.368,4.368,0,0,0,1.856,2.48,4.623,4.623,0,0,0,6.269-1.222,4.282,4.282,0,0,0-1.265-6.061,4.621,4.621,0,0,0-6.27,1.222,4.236,4.236,0,0,0-.736,2.79l-18.28,3.163a8.786,8.786,0,0,0-3.854-5.407,9.3,9.3,0,0,0-4.008-1.415l1.652-22.926a9.235,9.235,0,0,0,7.833-3.939,8.655,8.655,0,0,0-2.559-12.242,9.7,9.7,0,0,0-1.954-.951l14.773-46.018a9.424,9.424,0,0,0,6.885-.218l2.078,6.9a4.507,4.507,0,0,0-1.854,1.309,4.269,4.269,0,0,0,.66,6.147,4.628,4.628,0,0,0,6.363-.633,4.273,4.273,0,0,0-.658-6.15,4.64,4.64,0,0,0-3.714-.9l-2.118-7.027a8.22,8.22,0,0,0,3.738-3.813l17.2,3.894a5.5,5.5,0,0,0,2.071,5.244,5.956,5.956,0,0,0,8.182-.811,5.491,5.491,0,0,0-.844-7.906,5.955,5.955,0,0,0-8.182.812,5.589,5.589,0,0,0-1.038,1.879l-17.036-3.858.131-.329a8.675,8.675,0,0,0-3.61-10.162,9.4,9.4,0,0,0-10.846.524l-21.05-22.652a8.961,8.961,0,0,0,1.2-1.411,8.582,8.582,0,0,0,1.518-5.167l14.1,1.394a5.55,5.55,0,0,0,2.592,4.848,5.938,5.938,0,0,0,8.06-1.571,5.5,5.5,0,0,0-1.628-7.788,5.938,5.938,0,0,0-8.06,1.573,5.515,5.515,0,0,0-.883,2.138l-14.242-1.408a8.774,8.774,0,0,0-4.01-6.259,9.319,9.319,0,0,0-4.251-1.441l1.268-28.776a7.72,7.72,0,0,0,6.3-3.307,7.194,7.194,0,0,0,.315-7.69l19.458-11.837a5.7,5.7,0,0,0,1.464,1.358,5.939,5.939,0,0,0,8.062-1.575,5.5,5.5,0,0,0-1.625-7.789,5.949,5.949,0,0,0-8.063,1.574,5.458,5.458,0,0,0-.286,5.755l-19.456,11.834a7.544,7.544,0,0,0-2.015-1.889,7.9,7.9,0,0,0-7.525-.521l-8.842-15.712a5.692,5.692,0,0,0,1.714-1.623,5.5,5.5,0,0,0-1.631-7.789,5.939,5.939,0,0,0-8.06,1.571,5.507,5.507,0,0,0,1.629,7.792,5.972,5.972,0,0,0,5.618.428l8.844,15.718a7.593,7.593,0,0,0-2.368,2.208,7.251,7.251,0,0,0,2.148,10.262,7.854,7.854,0,0,0,3.495,1.2l-1.269,28.773a9.21,9.21,0,0,0-7.587,3.948,8.564,8.564,0,0,0-1.242,2.7l-21.223-4.241a8.88,8.88,0,0,0-4.04-8.925,9.441,9.441,0,0,0-2.959-1.249l-1.111-24.2a4.554,4.554,0,0,0,3.157-1.909,4.28,4.28,0,0,0-1.268-6.058,4.622,4.622,0,0,0-6.27,1.221,4.28,4.28,0,0,0,1.265,6.059,4.552,4.552,0,0,0,2.288.719l1.1,24.008a9.447,9.447,0,0,0-9.116,3.925,8.768,8.768,0,0,0,.863,11.029l-15.284,14.666a9.307,9.307,0,0,0-2.022-1.761,9.521,9.521,0,0,0-12.914,2.52,8.746,8.746,0,0,0-.838,1.512l-33.926-18.927a5.434,5.434,0,0,0,.345-4.056l15-5.477a5.6,5.6,0,0,0,2.055,2.325,5.937,5.937,0,0,0,8.063-1.572,5.5,5.5,0,0,0-1.627-7.788,5.941,5.941,0,0,0-8.061,1.574,5.438,5.438,0,0,0-.731,4.713l-14.995,5.474a5.67,5.67,0,0,0-2.061-2.324,5.941,5.941,0,0,0-8.062,1.574,5.493,5.493,0,0,0-.921,2.407l-34.014-1.743a8.876,8.876,0,0,0-4.1-8.56,9.468,9.468,0,0,0-3.75-1.4l2.016-18.226a4.57,4.57,0,0,0,3.833-1.95,4.278,4.278,0,0,0-1.27-6.056,4.614,4.614,0,0,0-6.269,1.222,4.279,4.279,0,0,0,1.268,6.056,4.555,4.555,0,0,0,1.611.645l-2.014,18.224a9.556,9.556,0,0,0-6.3,1.888l-21.378-24.173a9.2,9.2,0,0,0,1.4-1.6,8.811,8.811,0,0,0-2.609-12.472,9.511,9.511,0,0,0-12.909,2.521,8.513,8.513,0,0,0-.746,1.314l-49.11-18.647a8.683,8.683,0,0,0-3.6-10.209,9.337,9.337,0,0,0-12.668,2.471c-.1.146-.191.289-.278.438L1095.2,626.414a11.67,11.67,0,0,0,.783-8.441l76.354-23.112a8.841,8.841,0,0,0,3.535,4.337,9.335,9.335,0,0,0,12.668-2.473c.14-.208.273-.423.4-.64l22.755,10.777a8.666,8.666,0,0,0,3.387,10.741,9.342,9.342,0,0,0,12.671-2.474,8.7,8.7,0,0,0,1.157-2.446l28.892,3.232a6.047,6.047,0,0,0,.258,1.892,6.634,6.634,0,0,0,9.983,3.428l14.067,17.845a6.186,6.186,0,0,0-2.08,6.6,6.472,6.472,0,0,0,5.6,4.516l.594.036a6.872,6.872,0,0,0,1.9-.25,6.46,6.46,0,0,0,4.144-3.493l.217-.535a6.094,6.094,0,0,0,.09-3.789c-.058-.191-.125-.376-.2-.558l14.633-6.329a3.272,3.272,0,0,0,3.712,1.465,3.111,3.111,0,0,0,2.2-3.869,3.25,3.25,0,0,0-4.005-2.128,3.109,3.109,0,0,0-2.2,3.869c.016.048.033.092.051.139l-14.633,6.33a6.614,6.614,0,0,0-7.649-3.218,6.514,6.514,0,0,0-1.9.872l-14.068-17.847a6.249,6.249,0,0,0,2.339-4.644l14.882-.2a2.718,2.718,0,0,0,.109.54,3.248,3.248,0,0,0,4,2.127,3.111,3.111,0,0,0,2.2-3.87,3.253,3.253,0,0,0-4.006-2.127,3.149,3.149,0,0,0-2.317,2.756l-14.885.2a6.159,6.159,0,0,0-.246-1.381,6.24,6.24,0,0,0-1.465-2.514l16.628-16.2a6.7,6.7,0,0,0,6.2,1.379,6.392,6.392,0,0,0,4.562-4.732l20.911,3.376a6.1,6.1,0,0,0,.212,2.514,6.561,6.561,0,0,0,8.089,4.3,6.435,6.435,0,0,0,4.083-3.368l6.483,4.323a3.021,3.021,0,0,0-.285,2.4,3.243,3.243,0,0,0,4,2.127,3.11,3.11,0,0,0,2.206-3.869,3.283,3.283,0,0,0-5.585-1.132l-6.583-4.388a6.08,6.08,0,0,0,.128-3.909,6.245,6.245,0,0,0-2.462-3.363l3.116-8.047a3.352,3.352,0,0,0,1.752-.011,3.11,3.11,0,0,0,2.2-3.867,3.25,3.25,0,0,0-4.006-2.13,3.109,3.109,0,0,0-2.2,3.869,3.145,3.145,0,0,0,1.7,1.937l-3.075,7.927a6.728,6.728,0,0,0-5.116-.615,6.407,6.407,0,0,0-4.564,4.739l-20.911-3.38a6.031,6.031,0,0,0-.212-2.514,6.564,6.564,0,0,0-8.088-4.3,6.215,6.215,0,0,0-2.985,10.333l-16.631,16.2a6.692,6.692,0,0,0-6.2-1.381,6.378,6.378,0,0,0-4.615,5.039l-28.762-3.22a8.6,8.6,0,0,0-.937-5.737l-.428-.69a8.927,8.927,0,0,0-2.574-2.492,9.334,9.334,0,0,0-12.666,2.473,8.344,8.344,0,0,0-.476.772l-22.742-10.77a8.664,8.664,0,0,0-3.323-10.878,9.233,9.233,0,0,0-1.549-.8l13.011-34.564a5.914,5.914,0,0,0,6.433-2.3,5.5,5.5,0,0,0-1.627-7.787,5.938,5.938,0,0,0-8.061,1.571,5.508,5.508,0,0,0,1.627,7.792,6.447,6.447,0,0,0,.846.441l-13.008,34.568a9.441,9.441,0,0,0-4.531-.23l-5.11-19.817a9.107,9.107,0,0,0,5.007-3.577,8.653,8.653,0,0,0-2.56-12.243,9.394,9.394,0,0,0-10.981.638l-14.291-14.793a5.33,5.33,0,0,0,.585-.713,5.5,5.5,0,0,0-1.627-7.787,5.94,5.94,0,0,0-8.061,1.573,5.505,5.505,0,0,0,1.626,7.791,5.993,5.993,0,0,0,6.875-.312l14.286,14.786a9.119,9.119,0,0,0-1.08,1.292,8.642,8.642,0,0,0,2.56,12.238,9.372,9.372,0,0,0,6.856,1.3l5.109,19.82a9.075,9.075,0,0,0-5,3.579,8.552,8.552,0,0,0-1.222,7.135l-76.355,23.11a12.067,12.067,0,0,0-4.869-6.051,12.732,12.732,0,0,0-6.975-2.01l-1.8-43.5a9.171,9.171,0,0,0,6.833-3.907,8.571,8.571,0,0,0,1.2-2.566l26.241,5.679a5.54,5.54,0,0,0,2.527,5.512,5.942,5.942,0,0,0,8.064-1.575,5.5,5.5,0,0,0-1.627-7.786,5.939,5.939,0,0,0-8.062,1.573,5.572,5.572,0,0,0-.725,1.491l-26.234-5.674a8.7,8.7,0,0,0-3.945-8.895,9.4,9.4,0,0,0-7.919-1.027l-7.418-18.787a5.7,5.7,0,0,0,2.391-1.978,5.5,5.5,0,0,0-1.628-7.788,5.944,5.944,0,0,0-8.063,1.571,5.5,5.5,0,0,0,1.631,7.789,5.972,5.972,0,0,0,4.893.7l7.419,18.778a9.052,9.052,0,0,0-3.973,3.215,8.647,8.647,0,0,0,2.559,12.239,9.35,9.35,0,0,0,5,1.473l1.8,43.5a12.521,12.521,0,0,0-9.47,5.347,11.8,11.8,0,0,0,3.489,16.692,12.737,12.737,0,0,0,17.276-3.374c.164-.238.313-.478.455-.722l37.856,19.161a8.556,8.556,0,0,0,.075,7.619l-10.724,5.591a4.7,4.7,0,0,0-3.862-1.98,4.507,4.507,0,1,0,4.663,4.5,4.366,4.366,0,0,0-.359-1.731l10.735-5.6a8.956,8.956,0,0,0,2.694,2.686,9.352,9.352,0,0,0,5.8,1.438l1.971,30.606a4.681,4.681,0,1,0,.93-.055l-1.976-30.67a9.134,9.134,0,0,0,5.942-3.793,8.89,8.89,0,0,0,.731-1.283l49.109,18.644a8.839,8.839,0,0,0,3.662,10.413,9.577,9.577,0,0,0,10.879-.4l21.377,24.174a8.826,8.826,0,0,0-1.893,10.746l-18.526,9.417a9.116,9.116,0,0,0-2.89-2.955,9.515,9.515,0,0,0-12.911,2.52,8.813,8.813,0,0,0-1.261,2.731l-17.777-3.62a5.545,5.545,0,0,0-2.538-5.446,5.943,5.943,0,0,0-8.062,1.573,5.5,5.5,0,0,0,1.627,7.79,5.943,5.943,0,0,0,8.064-1.573,5.619,5.619,0,0,0,.744-1.558l17.772,3.615a8.749,8.749,0,0,0,1.142,6l-19.471,12.133a16.182,16.182,0,0,0-5.642-6.139,17.026,17.026,0,0,0-22.014,3.159l-19.369-11.224a5.508,5.508,0,0,0-1.968-7.219,5.943,5.943,0,0,0-8.061,1.574,5.5,5.5,0,0,0,1.625,7.788,5.94,5.94,0,0,0,7.976-1.455l19.283,11.171c-.173.228-.343.458-.505.7a15.571,15.571,0,0,0-2.738,7.869l-63.366-2.325a11.924,11.924,0,0,0-5.569-10.09c-.343-.218-.7-.408-1.057-.593l11.092-30.38a5.955,5.955,0,0,0,5.532-1.339,5.482,5.482,0,0,0,.226-7.939,5.962,5.962,0,0,0-8.226-.216,5.486,5.486,0,0,0-.221,7.943,5.877,5.877,0,0,0,1.9,1.287l-11.056,30.284-.262-.117a12.84,12.84,0,0,0-12.642,1.721l-44.008-49.333a12.2,12.2,0,0,0,1.935-2.193,11.79,11.79,0,0,0-3.489-16.69,12.784,12.784,0,0,0-2.186-1.119l7.76-23.6a9.476,9.476,0,0,0,10.184-3.71,8.816,8.816,0,0,0-2.609-12.475,9.587,9.587,0,0,0-9.655-.374l-14.307-22.235a5.525,5.525,0,0,0,2.363-4.493,5.806,5.806,0,1,0-5.8,5.606,5.9,5.9,0,0,0,2.644-.643l14.311,22.24a9.11,9.11,0,0,0-2.464,2.419,8.815,8.815,0,0,0,2.608,12.476,9.35,9.35,0,0,0,1.94.945l-7.757,23.568a12.692,12.692,0,0,0-14.3,4.768,11.957,11.957,0,0,0-.955,1.693c-3.885-1.787-7.973-3.664-11.105-5.088a5.4,5.4,0,0,0,.371-1.917,5.806,5.806,0,1,0-5.8,5.606,5.81,5.81,0,0,0,5.036-2.873c3.043,1.384,7.069,3.23,11.144,5.106a11.818,11.818,0,0,0,4.8,14.161c.161.1.329.193.493.29l-6.507,9.343a4.43,4.43,0,0,0-2.018-.5,4.207,4.207,0,1,0,4.352,4.2,4.122,4.122,0,0,0-1.56-3.2l6.557-9.411a12.821,12.821,0,0,0,13.4-1.377l44.01,49.332a11.9,11.9,0,0,0-1.934,2.193,11.68,11.68,0,0,0-.5,12.531l-39.749,23.172a8.943,8.943,0,0,0-2.55-2.451,9.313,9.313,0,0,0-5.292-1.468l-5.523-35.2a3.858,3.858,0,0,0,2.926-3.689,3.98,3.98,0,1,0-3.977,3.842c.044,0,.085-.012.129-.013l5.515,35.134a9.157,9.157,0,0,0-6.444,3.862,8.6,8.6,0,0,0-1.479,4.081l-16.509-2.47a5.405,5.405,0,0,0,.138-1.194,5.806,5.806,0,1,0-5.8,5.607,5.8,5.8,0,0,0,5.385-3.544l16.753,2.507a8.69,8.69,0,0,0,3.089,6.523L988.468,814.32c-.289-.211-.581-.414-.888-.611a17.045,17.045,0,0,0-21.33,2.412L933.379,787.9a17.5,17.5,0,0,0,1.149-1.479,15.722,15.722,0,0,0-4.655-22.253,16.852,16.852,0,0,0-4.172-1.929l17.334-57.891a12.676,12.676,0,0,0,13.443-5.011,11.792,11.792,0,0,0-3.489-16.689,12.714,12.714,0,0,0-7.442-2l-.83.06a12.518,12.518,0,0,0-9,5.306,11.852,11.852,0,0,0-1.859,4.381l-31.923-4.877a8.707,8.707,0,0,0-4.027-8.337,9.337,9.337,0,0,0-12.669,2.47A8.648,8.648,0,0,0,887.8,691.9a9.335,9.335,0,0,0,12.664-2.47,8.586,8.586,0,0,0,1.338-3.112l31.93,4.881a11.786,11.786,0,0,0,3.3,9.743l-11.018,11.646c-.124-.1-.252-.189-.387-.275a5.938,5.938,0,0,0-8.063,1.57,5.508,5.508,0,0,0,1.63,7.791,5.942,5.942,0,0,0,8.065-1.575,5.472,5.472,0,0,0-.629-6.971L937.615,701.5a12.67,12.67,0,0,0,1.587,1.207,12.542,12.542,0,0,0,3.031,1.416L924.9,762.017a16.977,16.977,0,0,0-16.889,5.159L885.29,749.6a7.2,7.2,0,0,0,1.4-4.267,7.672,7.672,0,1,0-7.668,7.408,7.763,7.763,0,0,0,5.677-2.44l22.726,17.577c-.2.258-.4.514-.588.785a15.544,15.544,0,0,0-1.82,14.181L874.007,792a11.786,11.786,0,0,0-11.144-7.653,11.615,11.615,0,0,0-11.811,11.411,11.247,11.247,0,0,0,4.55,8.988l-29.984,40.3a16.627,16.627,0,0,0-7.09-3.357,16.91,16.91,0,0,0-10.278,1.058l-27.035-54.027a11.975,11.975,0,0,0,6.325-8.039,11.571,11.571,0,0,0,.078-4.692l31.286-6.636a8.911,8.911,0,0,0,6.832,6.288,9.065,9.065,0,0,0,10.769-6.7,8.757,8.757,0,0,0-6.941-10.4,9.061,9.061,0,0,0-10.766,6.7,8.406,8.406,0,0,0-.07,3.338l-31.293,6.637a12.038,12.038,0,0,0-6.688-7.84l5.815-14.592c.151.045.3.086.46.118a5.764,5.764,0,0,0,6.855-4.263,5.576,5.576,0,0,0-4.417-6.62,5.768,5.768,0,0,0-6.856,4.267,5.517,5.517,0,0,0,3.188,6.214l-5.8,14.56a12.98,12.98,0,0,0-1.915-.56,12.731,12.731,0,0,0-3.328-.25l-5.648-59.475a16.689,16.689,0,0,0,10.52-5.382l11.542,8.819a5.162,5.162,0,0,0-.832,2.786,5.543,5.543,0,1,0,5.54-5.352,5.581,5.581,0,0,0-4.151,1.843l-11.508-8.792a15.566,15.566,0,0,0,3.072-6.357,15.408,15.408,0,0,0,.331-4.284l28.82-4.586a5.275,5.275,0,1,0-.187-1.31c0,.144.031.278.043.418l-28.754,4.577a15.771,15.771,0,0,0-5.463-10.11l16.41-23.418a14.976,14.976,0,0,0,8.914,2.208,14.331,14.331,0,0,0,13.621-15.094,13.69,13.69,0,0,0-.824-3.779l17.973-7.121A7.651,7.651,0,0,0,837.4,635.2a7.993,7.993,0,0,0,10.692-2.863,7.342,7.342,0,0,0,1.01-3.837l26.506-1.684a5.861,5.861,0,0,0,3.023,4.331,6.19,6.19,0,0,0,8.273-2.216c.021-.042.038-.083.064-.125l26.7,11.654a3.351,3.351,0,0,0,1.618,3.99,3.584,3.584,0,0,0,4.793-1.282,3.341,3.341,0,0,0-1.327-4.631,3.582,3.582,0,0,0-4.742,1.213L887.3,628.087a5.774,5.774,0,0,0-2.692-7.152,6.186,6.186,0,0,0-8.273,2.216,5.7,5.7,0,0,0-.784,2.879l-26.506,1.683a7.55,7.55,0,0,0-3.92-5.711,7.99,7.99,0,0,0-10.689,2.865,7.3,7.3,0,0,0-.568,6.238l-17.962,7.115a14.709,14.709,0,0,0-14.508-8.651,15.26,15.26,0,0,0-2.2.309l-14.72-56.868a7.812,7.812,0,0,0,5.735-7.992,7.96,7.96,0,0,0-8.227-7.257l-2.555-36.053a5,5,0,0,0,4.406-5.239,5.072,5.072,0,0,0-5.47-4.606,4.95,4.95,0,0,0,.333,9.895l2.555,36.051a7.925,7.925,0,0,0-7.121,7.108l-22.191-.76c0-.054,0-.1,0-.158a5.071,5.071,0,0,0-5.467-4.606,5.011,5.011,0,0,0-4.766,5.283,5.145,5.145,0,0,0,10.213.189l22.188.76c0,.151.005.3.017.454a7.974,7.974,0,0,0,8.6,7.239,8.367,8.367,0,0,0,1.045-.137l14.72,56.868a14.644,14.644,0,0,0-8.16,5.62l-24.814-15.637a7.548,7.548,0,0,0,1.1-4.486,7.977,7.977,0,0,0-8.6-7.239,7.884,7.884,0,0,0-7.492,8.3,7.974,7.974,0,0,0,8.594,7.238,8.1,8.1,0,0,0,5.994-3.226l24.814,15.641a13.727,13.727,0,0,0-2.155,8.4,14.036,14.036,0,0,0,6.107,10.556l-16.369,23.363a16.748,16.748,0,0,0-25.619,6.5l-.286.748a16.4,16.4,0,0,0-.508,1.765,15.381,15.381,0,0,0-.336,4.17l-66.489-6.23a8.631,8.631,0,0,0-1.649-5.261L706.741,662.3a4.867,4.867,0,0,0,3.5,1.475,4.658,4.658,0,1,0-4.818-4.655,4.513,4.513,0,0,0,.746,2.467l-24.12,17.985a8.853,8.853,0,0,0-.866-.855l-.646-.507c-.11-.076-.223-.151-.338-.227a9.384,9.384,0,0,0-11.233.861l-6.155-5.514a5.364,5.364,0,0,0,1.241-3.4,5.725,5.725,0,1,0-5.722,5.528,5.8,5.8,0,0,0,3.851-1.463l6.13,5.493a9.174,9.174,0,0,0-.781.968,8.572,8.572,0,0,0-.418,9.1l-39.747,23.174a12.171,12.171,0,0,0-3.56-3.471,12.738,12.738,0,0,0-8.082-1.953l-4.591-34.171a5.8,5.8,0,0,0,3.69-2.4,5.5,5.5,0,0,0-1.632-7.788,5.942,5.942,0,0,0-8.061,1.571,5.5,5.5,0,0,0,1.629,7.791,5.942,5.942,0,0,0,3.55.922L614.9,707.4a12.472,12.472,0,0,0-8.367,5.222,11.69,11.69,0,0,0-2.048,5.8L541.12,716.1a15.692,15.692,0,0,0-1.62-7.068l21.692-10.207a3.91,3.91,0,0,0,3.268,1.736,3.756,3.756,0,1,0-3.886-3.754,3.594,3.594,0,0,0,.223,1.2l-21.711,10.215a16.135,16.135,0,0,0-5.387-5.7,17.109,17.109,0,0,0-15.483-1.486l-4.573-15.124a5.735,5.735,0,0,0,2.819-2.153,5.5,5.5,0,0,0-1.627-7.788,5.939,5.939,0,0,0-8.061,1.573,5.506,5.506,0,0,0,1.625,7.789,5.952,5.952,0,0,0,4.447.8l4.6,15.222a16.412,16.412,0,0,0-6.781,5.657,15.753,15.753,0,0,0-1.446,2.672l-30.467-8.414a3.63,3.63,0,0,0,.074-.712,3.887,3.887,0,1,0-3.885,3.754,3.89,3.89,0,0,0,3.52-2.185l30.4,8.4a15.577,15.577,0,0,0,.459,11.87l-19.565,12.19a9.037,9.037,0,0,0-2.443-2.287,9.513,9.513,0,0,0-12.911,2.518,8.732,8.732,0,0,0-.671,8.808l-18.556,9.429a9.2,9.2,0,0,0-2.681-2.625,9.507,9.507,0,0,0-5.167-1.5l-.5-10.534a4.514,4.514,0,0,0,3.146-1.9,4.284,4.284,0,0,0-1.264-6.061,4.623,4.623,0,0,0-6.272,1.225,4.282,4.282,0,0,0,1.267,6.057,4.6,4.6,0,0,0,2.295.721l.5,10.534a9.349,9.349,0,0,0-6.916,3.98,8.794,8.794,0,0,0-1.35,3.116l-34.105-1.748a5.538,5.538,0,0,0-2.259-4.339l6.916-10.062a5.936,5.936,0,0,0,7.7-1.778,5.5,5.5,0,0,0-1.626-7.789,5.94,5.94,0,0,0-8.063,1.573,5.488,5.488,0,0,0,1.293,7.549L401.17,749.53a5.937,5.937,0,0,0-7.673,1.737l-34.05-18.992a8.84,8.84,0,0,0-3.732-10.2,9.467,9.467,0,0,0-4.467-1.476l.585-19.446a5.846,5.846,0,0,0,4.6-2.5,5.5,5.5,0,0,0-1.626-7.788,5.942,5.942,0,0,0-8.063,1.575,5.5,5.5,0,0,0,1.628,7.789,5.925,5.925,0,0,0,2.634.908l-.588,19.439A9.394,9.394,0,0,0,342.8,724.6a8.745,8.745,0,0,0,.078,10.068l-15.367,14.742a8.857,8.857,0,0,0-1.157-.878,9.522,9.522,0,0,0-12.913,2.519,8.918,8.918,0,0,0-1.267,2.764l-21.221-4.242a8.71,8.71,0,0,0-3.967-8.75,9.407,9.407,0,0,0-10.847.525l-21.052-22.652a9.111,9.111,0,0,0,1.2-1.413,8.646,8.646,0,0,0-2.559-12.237,9.117,9.117,0,0,0-1.09-.6l14.8-46.1a9.3,9.3,0,0,0,9.923-3.66,8.646,8.646,0,0,0-2.561-12.238,9.317,9.317,0,0,0-4.006-1.416l1.65-22.922a9.231,9.231,0,0,0,7.835-3.942,8.639,8.639,0,0,0-2.218-12.01l10.841-15.776a4.623,4.623,0,0,0,5.914-1.431,4.282,4.282,0,0,0-1.266-6.058,4.621,4.621,0,0,0-6.271,1.224,4.271,4.271,0,0,0,.933,5.821l-10.844,15.779a9.351,9.351,0,0,0-11.922,2.157L237.777,591.54a8.672,8.672,0,0,0-3.41-10.686A9.349,9.349,0,0,0,221.935,583L205.3,572.326a5.5,5.5,0,0,0-1.839-7.442,5.94,5.94,0,0,0-8.061,1.573,5.5,5.5,0,0,0,1.627,7.789,5.949,5.949,0,0,0,7.815-1.252l16.638,10.673a8.55,8.55,0,0,0-1.195,5.9L189.8,595.512a8.787,8.787,0,0,0-3.811-5.217,9.334,9.334,0,0,0-12.667,2.471c-.018.026-.035.051-.048.076l-17.336-15.453c.106-.129.2-.258.3-.4a5.5,5.5,0,0,0-1.628-7.788,5.94,5.94,0,0,0-8.06,1.574,5.5,5.5,0,0,0,1.627,7.787,5.968,5.968,0,0,0,7.2-.589l17.469,15.572a8.536,8.536,0,0,0-.78,6.206L134.13,613.232a4.386,4.386,0,0,0-1.579-1.763,4.621,4.621,0,0,0-6.27,1.222,4.28,4.28,0,0,0,1.268,6.058,4.621,4.621,0,0,0,6.271-1.224,4.231,4.231,0,0,0,.6-3.539L172.3,600.526a8.844,8.844,0,0,0,3.583,4.48,9.231,9.231,0,0,0,1.587.813l.783.272c.1.029.2.054.291.082l-6.064,41.254a9.256,9.256,0,0,0-8.487,3.905,8.643,8.643,0,0,0-1.32,3.025l-.139.795a8.614,8.614,0,0,0,1.238,5.608L135.893,681.7a5.735,5.735,0,0,0-1.1-.929,5.948,5.948,0,0,0-7.815,1.252l-29.8-19.116a5.5,5.5,0,0,0-1.843-7.442,5.942,5.942,0,0,0-8.062,1.574,5.448,5.448,0,0,0-.943,3.611l-38.092,5.273a3.787,3.787,0,1,0,.148.991c0-.039-.01-.074-.012-.112l38.113-5.275a5.585,5.585,0,0,0,2.413,3.3,5.952,5.952,0,0,0,7.816-1.248l29.8,19.111a5.5,5.5,0,0,0,1.842,7.442,5.938,5.938,0,0,0,8.061-1.572,5.463,5.463,0,0,0-.01-6.232l27.825-20.9a8.925,8.925,0,0,0,2.323,2.141,9.376,9.376,0,0,0,7.493,1.153l1.759,5.911a3.608,3.608,0,0,0-2.253,4.4,3.788,3.788,0,0,0,4.667,2.493,3.629,3.629,0,0,0,2.583-4.507,3.784,3.784,0,0,0-4.332-2.571l-1.767-5.932a9.081,9.081,0,0,0,4.28-3.089l.458-.666a8.652,8.652,0,0,0-2.782-11.9,9.292,9.292,0,0,0-3.358-1.321l6.052-41.193a9.276,9.276,0,0,0,9.2-3.813,8.566,8.566,0,0,0,1.418-6.237l30.473-5.946a8.8,8.8,0,0,0,3.812,5.217,9.34,9.34,0,0,0,12.669-2.472,8.833,8.833,0,0,0,.5-.828l27.545,12.269a8.553,8.553,0,0,0-1.355,5.9L245.338,613.6a4.368,4.368,0,0,0-1.855-2.48,4.622,4.622,0,0,0-6.269,1.223,4.281,4.281,0,0,0,1.265,6.06,4.622,4.622,0,0,0,6.27-1.222,4.245,4.245,0,0,0,.735-2.79l18.28-3.162a8.786,8.786,0,0,0,3.855,5.406,9.306,9.306,0,0,0,4.007,1.415l-1.652,22.927a9.233,9.233,0,0,0-7.834,3.939,8.656,8.656,0,0,0,2.56,12.242,9.67,9.67,0,0,0,1.953.95l-14.773,46.018a9.421,9.421,0,0,0-6.884.218l-2.079-6.9a4.507,4.507,0,0,0,1.854-1.309,4.269,4.269,0,0,0-.66-6.148,4.629,4.629,0,0,0-6.363.633,4.273,4.273,0,0,0,.658,6.149,4.633,4.633,0,0,0,3.714.9l2.117,7.027a8.2,8.2,0,0,0-3.738,3.814l-17.2-3.894a5.5,5.5,0,0,0-2.07-5.244,5.956,5.956,0,0,0-8.182.81,5.492,5.492,0,0,0,.844,7.906,5.956,5.956,0,0,0,8.183-.812,5.612,5.612,0,0,0,1.038-1.879l17.036,3.858-.132.328a8.677,8.677,0,0,0,3.611,10.163,9.4,9.4,0,0,0,10.845-.523l21.051,22.651a9.012,9.012,0,0,0-1.2,1.41,8.586,8.586,0,0,0-1.516,5.167l-14.1-1.394a5.553,5.553,0,0,0-2.591-4.849,5.937,5.937,0,0,0-8.061,1.572,5.5,5.5,0,0,0,1.628,7.788,5.938,5.938,0,0,0,8.06-1.574,5.523,5.523,0,0,0,.885-2.137l14.241,1.408a8.774,8.774,0,0,0,4.011,6.259,9.3,9.3,0,0,0,4.251,1.441l-1.268,28.777a7.72,7.72,0,0,0-6.3,3.307,7.19,7.19,0,0,0-.313,7.689l-19.46,11.838a5.7,5.7,0,0,0-1.463-1.359,5.941,5.941,0,0,0-8.062,1.576,5.5,5.5,0,0,0,1.624,7.788,5.948,5.948,0,0,0,8.064-1.573,5.459,5.459,0,0,0,.287-5.755L273.7,797.425a7.557,7.557,0,0,0,2.015,1.891,7.9,7.9,0,0,0,7.525.521l8.844,15.711a5.685,5.685,0,0,0-1.715,1.624A5.5,5.5,0,0,0,292,824.961a5.94,5.94,0,0,0,8.06-1.572,5.506,5.506,0,0,0-1.628-7.791,5.969,5.969,0,0,0-5.618-.429l-8.844-15.718a7.572,7.572,0,0,0,2.368-2.209,7.249,7.249,0,0,0-2.147-10.261,7.836,7.836,0,0,0-3.494-1.2l1.268-28.774a9.211,9.211,0,0,0,7.587-3.946,8.606,8.606,0,0,0,1.243-2.7l21.223,4.241a8.878,8.878,0,0,0,4.04,8.925,9.47,9.47,0,0,0,2.959,1.249l1.112,24.2a4.546,4.546,0,0,0-3.157,1.909,4.278,4.278,0,0,0,1.267,6.057,4.621,4.621,0,0,0,6.27-1.221,4.28,4.28,0,0,0-1.265-6.059,4.568,4.568,0,0,0-2.288-.719l-1.1-24.008A9.448,9.448,0,0,0,328.964,761a8.769,8.769,0,0,0-.863-11.029l15.284-14.666a9.248,9.248,0,0,0,2.023,1.762,9.52,9.52,0,0,0,12.912-2.519,8.923,8.923,0,0,0,.837-1.513l33.926,18.927a5.437,5.437,0,0,0-.345,4.057l-15,5.477a5.6,5.6,0,0,0-2.054-2.325,5.937,5.937,0,0,0-8.064,1.572,5.5,5.5,0,0,0,1.627,7.788,5.939,5.939,0,0,0,8.061-1.574,5.441,5.441,0,0,0,.73-4.713l14.995-5.474a5.655,5.655,0,0,0,2.061,2.324,5.941,5.941,0,0,0,8.061-1.573,5.5,5.5,0,0,0,.922-2.408l34.013,1.744a8.88,8.88,0,0,0,4.1,8.559,9.462,9.462,0,0,0,3.751,1.4l-2.016,18.226a4.571,4.571,0,0,0-3.833,1.949,4.277,4.277,0,0,0,1.27,6.056,4.613,4.613,0,0,0,6.269-1.222,4.279,4.279,0,0,0-1.268-6.055,4.536,4.536,0,0,0-1.611-.644l2.014-18.224a9.558,9.558,0,0,0,6.3-1.887l21.377,24.173a9.207,9.207,0,0,0-1.4,1.6,8.813,8.813,0,0,0,2.609,12.473,9.511,9.511,0,0,0,12.91-2.522,8.394,8.394,0,0,0,.745-1.313l49.111,18.647a8.682,8.682,0,0,0,3.6,10.209,9.339,9.339,0,0,0,12.669-2.472c.1-.145.191-.289.279-.438l37.854,19.16a11.674,11.674,0,0,0-.784,8.441l-76.353,23.113a8.837,8.837,0,0,0-3.535-4.337,9.334,9.334,0,0,0-12.668,2.472c-.141.208-.273.422-.4.639l-22.755-10.776a8.667,8.667,0,0,0-3.386-10.741,9.341,9.341,0,0,0-12.672,2.475,8.7,8.7,0,0,0-1.157,2.445l-28.892-3.232a6.061,6.061,0,0,0-.257-1.891,6.564,6.564,0,0,0-8.088-4.3,6.48,6.48,0,0,0-1.894.872l-14.068-17.847a6.183,6.183,0,0,0,2.079-6.6,6.47,6.47,0,0,0-5.6-4.516l-.594-.035a6.831,6.831,0,0,0-1.9.249,6.463,6.463,0,0,0-4.143,3.492l-.218.536a6.108,6.108,0,0,0-.09,3.788c.058.191.125.375.2.558l-14.633,6.328A3.274,3.274,0,0,0,377.3,834.2a3.11,3.11,0,0,0-2.2,3.868,3.25,3.25,0,0,0,4,2.129,3.109,3.109,0,0,0,2.2-3.87c-.016-.047-.034-.091-.051-.138l14.633-6.33a6.613,6.613,0,0,0,7.648,3.218,6.546,6.546,0,0,0,1.9-.871L419.5,850.057a6.247,6.247,0,0,0-2.339,4.645l-14.883.2a2.818,2.818,0,0,0-.107-.54,3.251,3.251,0,0,0-4-2.129,3.112,3.112,0,0,0-2.2,3.871,3.254,3.254,0,0,0,4.007,2.128,3.151,3.151,0,0,0,2.317-2.756l14.885-.2a6.143,6.143,0,0,0,.246,1.38,6.249,6.249,0,0,0,1.465,2.515l-16.629,16.2a6.7,6.7,0,0,0-6.2-1.379,6.392,6.392,0,0,0-4.563,4.734l-20.91-3.377a6.092,6.092,0,0,0-.213-2.514,6.561,6.561,0,0,0-8.088-4.3,6.432,6.432,0,0,0-4.084,3.368l-6.482-4.323a3.024,3.024,0,0,0,.284-2.4,3.242,3.242,0,0,0-4-2.127,3.11,3.11,0,0,0-2.205,3.869,3.283,3.283,0,0,0,5.585,1.133l6.583,4.388a6.093,6.093,0,0,0-.129,3.909,6.259,6.259,0,0,0,2.462,3.363l-3.117,8.048a3.346,3.346,0,0,0-1.752.01,3.108,3.108,0,0,0-2.2,3.867,3.249,3.249,0,0,0,4.006,2.13,3.11,3.11,0,0,0,2.2-3.869,3.153,3.153,0,0,0-1.7-1.938l3.074-7.925a6.729,6.729,0,0,0,5.115.614,6.407,6.407,0,0,0,4.565-4.739l20.909,3.38a6.06,6.06,0,0,0,.213,2.514,6.567,6.567,0,0,0,8.089,4.3,6.215,6.215,0,0,0,2.984-10.333l16.63-16.2a6.694,6.694,0,0,0,6.2,1.381,6.378,6.378,0,0,0,4.615-5.039l28.763,3.22a8.6,8.6,0,0,0,.937,5.738l.427.689a8.942,8.942,0,0,0,2.574,2.492,9.334,9.334,0,0,0,12.667-2.473,8.288,8.288,0,0,0,.476-.771l22.741,10.77a8.666,8.666,0,0,0,3.324,10.878,9.307,9.307,0,0,0,1.549.8L490.57,921.819a5.914,5.914,0,0,0-6.433,2.3,5.5,5.5,0,0,0,1.628,7.786,5.938,5.938,0,0,0,8.06-1.571,5.509,5.509,0,0,0-1.627-7.793,6.456,6.456,0,0,0-.847-.441l13.01-34.567a9.435,9.435,0,0,0,4.531.229L514,907.577a9.111,9.111,0,0,0-5.006,3.576,8.652,8.652,0,0,0,2.56,12.244,9.4,9.4,0,0,0,10.981-.637l14.291,14.792a5.579,5.579,0,0,0-.585.712,5.5,5.5,0,0,0,1.627,7.79,5.942,5.942,0,0,0,8.062-1.573,5.505,5.505,0,0,0-1.626-7.79,5.993,5.993,0,0,0-6.875.312l-14.286-14.786a9.162,9.162,0,0,0,1.08-1.292,8.643,8.643,0,0,0-2.56-12.238,9.382,9.382,0,0,0-6.855-1.3l-5.111-19.82a9.071,9.071,0,0,0,5-3.578,8.551,8.551,0,0,0,1.223-7.136l76.356-23.11a12.06,12.06,0,0,0,4.869,6.051,12.733,12.733,0,0,0,6.974,2.009l1.8,43.5a9.169,9.169,0,0,0-6.832,3.907,8.58,8.58,0,0,0-1.2,2.566L571.645,906.1a5.541,5.541,0,0,0-2.528-5.513,5.942,5.942,0,0,0-8.063,1.576,5.5,5.5,0,0,0,1.627,7.786,5.94,5.94,0,0,0,8.062-1.573,5.607,5.607,0,0,0,.725-1.492l26.234,5.675a8.7,8.7,0,0,0,3.945,8.895,9.392,9.392,0,0,0,7.918,1.027l7.419,18.787a5.71,5.71,0,0,0-2.391,1.979,5.5,5.5,0,0,0,1.628,7.788,5.941,5.941,0,0,0,8.06-1.571,5.5,5.5,0,0,0-1.629-7.789,5.973,5.973,0,0,0-4.893-.7l-7.419-18.776a9.049,9.049,0,0,0,3.973-3.216,8.647,8.647,0,0,0-2.559-12.239,9.353,9.353,0,0,0-5-1.474l-1.8-43.5a12.523,12.523,0,0,0,9.47-5.348,11.8,11.8,0,0,0-3.49-16.69,12.737,12.737,0,0,0-17.276,3.373c-.163.239-.313.478-.455.723l-37.855-19.161a8.547,8.547,0,0,0,.5-6.165l37.231-14.82a4.671,4.671,0,0,0,4.094,2.389,4.507,4.507,0,1,0-4.663-4.505,4.349,4.349,0,0,0,.215,1.285l-37.182,14.8a8.847,8.847,0,0,0-3.421-4.074,9.335,9.335,0,0,0-5.537-1.451v-11.7a4.666,4.666,0,1,0-.933,0v11.8a9.137,9.137,0,0,0-6.2,3.83,8.951,8.951,0,0,0-.731,1.283l-49.108-18.645a8.84,8.84,0,0,0-3.664-10.413,9.574,9.574,0,0,0-10.878.4L453.695,764.5a8.828,8.828,0,0,0,1.893-10.747l18.525-9.417a9.114,9.114,0,0,0,2.89,2.955,9.515,9.515,0,0,0,12.912-2.519,8.822,8.822,0,0,0,1.262-2.731l17.777,3.62a5.542,5.542,0,0,0,2.538,5.444,5.941,5.941,0,0,0,8.062-1.573,5.5,5.5,0,0,0-1.627-7.789,5.944,5.944,0,0,0-8.065,1.572,5.586,5.586,0,0,0-.743,1.559l-17.773-3.614a8.757,8.757,0,0,0-1.143-6l19.472-12.132a16.174,16.174,0,0,0,5.642,6.139,17.024,17.024,0,0,0,22.012-3.16L556.7,737.329a5.506,5.506,0,0,0,1.968,7.219,5.942,5.942,0,0,0,8.062-1.573,5.5,5.5,0,0,0-1.625-7.788,5.941,5.941,0,0,0-7.976,1.455L537.844,725.47c.172-.227.343-.458.5-.7a15.582,15.582,0,0,0,2.738-7.87l63.366,2.325a11.922,11.922,0,0,0,5.57,10.089,13.448,13.448,0,0,0,1.273.714l.253.113-14.21,28.566a5.979,5.979,0,0,0-5.65.75,5.49,5.49,0,0,0-1.117,7.869,5.952,5.952,0,0,0,8.153,1.078,5.5,5.5,0,0,0,1.112-7.872,5.79,5.79,0,0,0-1.745-1.48l14.222-28.6a12.836,12.836,0,0,0,12.421-1.794L668.743,778a12.157,12.157,0,0,0-1.935,2.193,11.791,11.791,0,0,0,3.49,16.689,12.777,12.777,0,0,0,2.186,1.12l-7.761,23.6a9.477,9.477,0,0,0-10.184,3.709,8.817,8.817,0,0,0,2.609,12.476,9.519,9.519,0,0,0,12.911-2.519,8.816,8.816,0,0,0-2.608-12.476,9.382,9.382,0,0,0-1.939-.945l7.756-23.569a12.693,12.693,0,0,0,14.3-4.768,11.791,11.791,0,0,0-3.49-16.688,12.813,12.813,0,0,0-14.711.651L625.36,728.135a11.872,11.872,0,0,0,1.934-2.193,11.682,11.682,0,0,0,.5-12.53l39.748-23.173a8.957,8.957,0,0,0,2.55,2.452,9.273,9.273,0,0,0,3.185,1.284L671.615,701a4.917,4.917,0,0,0-1.107-.137,4.658,4.658,0,1,0,4.817,4.655,4.643,4.643,0,0,0-2.823-4.227l1.7-7.172a9.39,9.39,0,0,0,6.631-1.866l12.7,14.74a4.542,4.542,0,0,0-1.316,3.18,4.821,4.821,0,1,0,4.818-4.655,4.9,4.9,0,0,0-2.8.88l-12.7-14.742a8.868,8.868,0,0,0,1.227-1.429,8.647,8.647,0,0,0,1.454-3.785l66.618,6.243a16.113,16.113,0,0,0,12.883,13.833,17.017,17.017,0,0,0,4.571.325l5.645,59.475a12.433,12.433,0,0,0-8.809,5.333l-38.289-23.9a5.389,5.389,0,0,0,.714-2.64,5.806,5.806,0,1,0-5.8,5.606,5.843,5.843,0,0,0,4.586-2.207l38.313,23.919a11.626,11.626,0,0,0,4.1,15.727l-5.711,8.5a5.9,5.9,0,0,0-2.745-.7,5.609,5.609,0,1,0,5.8,5.606,5.512,5.512,0,0,0-2.276-4.421l5.726-8.523a12.686,12.686,0,0,0,10.93.443l27.038,54.027a15.967,15.967,0,0,0-8.559,10.78,15.333,15.333,0,0,0,.986,9.679l-30.209,13.5a9.162,9.162,0,0,0-16.892,2.175,8.756,8.756,0,0,0,6.936,10.405,9.065,9.065,0,0,0,10.77-6.7,8.437,8.437,0,0,0-.47-5.159l30.207-13.5a16.226,16.226,0,0,0,8.133,7.529l-25.9,60.915a10.324,10.324,0,0,0-1.138-.317,9.066,9.066,0,0,0-10.772,6.7c-.037.165-.068.334-.1.5l-24.791-2.629a5.609,5.609,0,0,0-4.538-5.651,5.765,5.765,0,0,0-6.85,4.264,5.566,5.566,0,0,0,4.413,6.619,5.765,5.765,0,0,0,6.851-4.267c.012-.059.015-.115.029-.174l24.8,2.627a8.789,8.789,0,0,0,6.723,9.018l-8.885,39.677a5.753,5.753,0,0,0-6.445,4.332,5.567,5.567,0,0,0,4.414,6.62,5.763,5.763,0,0,0,6.851-4.263,5.546,5.546,0,0,0-4.017-6.516l8.884-39.681A9.051,9.051,0,0,0,788.3,942.8a8.676,8.676,0,0,0-5.034-9.783l25.9-60.917a16.844,16.844,0,0,0,19.97-6.66l18.774,10.722a8.216,8.216,0,0,0-.416,7.024,8.913,8.913,0,0,0,11.406,4.858,8.6,8.6,0,0,0,5.314-5.735l29.186,6.022a6.317,6.317,0,0,0,.389,3.323,6.893,6.893,0,0,0,8.822,3.759,6.54,6.54,0,0,0,4.192-7.53l31.654-8.778a3.994,3.994,0,0,0,5.066,2.091,3.779,3.779,0,0,0,2.252-4.94,4,4,0,0,0-5.113-2.179,3.8,3.8,0,0,0-2.468,4.184l-31.642,8.776c-.018-.051-.032-.1-.051-.15a6.9,6.9,0,0,0-8.824-3.758,6.663,6.663,0,0,0-4.085,4.339l-29.187-6.02a8.173,8.173,0,0,0-.48-4.423,8.909,8.909,0,0,0-11.4-4.857,8.716,8.716,0,0,0-4.153,3.235L829.59,864.669a15.415,15.415,0,0,0-3.276-19.016l30.042-40.377a12.052,12.052,0,0,0,6.508,1.892,11.617,11.617,0,0,0,11.812-11.412,11.088,11.088,0,0,0-.4-2.9l31.061-9.166a16.1,16.1,0,0,0,6.157,7.221,16.948,16.948,0,0,0,2.07,1.117l-9.346,21.117a7.878,7.878,0,0,0-2.4-.377,7.413,7.413,0,1,0,7.667,7.408,7.389,7.389,0,0,0-4.4-6.7l9.332-21.083a17.033,17.033,0,0,0,18.407-3.9L965.7,816.725a15.693,15.693,0,0,0,3.494,23.731,16.911,16.911,0,0,0,6.65,2.487l.826.1a16.829,16.829,0,0,0,15.561-7.085,15.674,15.674,0,0,0-3.118-21.138l18.362-22.083c.11.075.224.151.339.226a9.338,9.338,0,0,0,12.669-2.472,8.577,8.577,0,0,0,.42-9.1l39.746-23.174a12.171,12.171,0,0,0,3.559,3.47,12.739,12.739,0,0,0,8.082,1.953l4.591,34.17a5.8,5.8,0,0,0-3.69,2.4,5.5,5.5,0,0,0,1.632,7.788,5.941,5.941,0,0,0,8.061-1.57,5.506,5.506,0,0,0-1.628-7.793,5.949,5.949,0,0,0-3.55-.921l-4.591-34.176a12.474,12.474,0,0,0,8.367-5.221,11.69,11.69,0,0,0,2.048-5.8l63.365,2.326a15.889,15.889,0,0,0,7.422,13.578,17.109,17.109,0,0,0,15.484,1.486l4.573,15.123a5.729,5.729,0,0,0-2.82,2.152,5.5,5.5,0,0,0,1.627,7.789,5.939,5.939,0,0,0,8.061-1.572,5.506,5.506,0,0,0-1.626-7.79,5.951,5.951,0,0,0-4.446-.8l-4.6-15.222a16.4,16.4,0,0,0,6.781-5.656,15.573,15.573,0,0,0,1.346-15.378l19.565-12.19a9.01,9.01,0,0,0,2.443,2.287,9.513,9.513,0,0,0,12.91-2.518,8.735,8.735,0,0,0,.672-8.809l18.556-9.428a9.216,9.216,0,0,0,2.681,2.624,9.508,9.508,0,0,0,5.167,1.5l.5,10.533a4.518,4.518,0,0,0-3.146,1.9,4.284,4.284,0,0,0,1.265,6.061,4.623,4.623,0,0,0,6.272-1.225,4.283,4.283,0,0,0-1.268-6.059,4.611,4.611,0,0,0-2.294-.719l-.5-10.534a9.349,9.349,0,0,0,6.917-3.981,8.8,8.8,0,0,0,1.35-3.115l34.1,1.748a5.541,5.541,0,0,0,2.26,4.339l-6.916,10.063a5.937,5.937,0,0,0-7.7,1.779,5.5,5.5,0,0,0,1.625,7.788,5.943,5.943,0,0,0,8.065-1.573,5.49,5.49,0,0,0-1.294-7.551l6.915-10.064a5.936,5.936,0,0,0,7.674-1.737l34.05,18.993a8.84,8.84,0,0,0,3.733,10.2,9.459,9.459,0,0,0,4.466,1.476l-.585,19.445a5.843,5.843,0,0,0-4.6,2.5,5.5,5.5,0,0,0,1.624,7.787,5.941,5.941,0,0,0,8.063-1.575,5.5,5.5,0,0,0-1.628-7.788,5.92,5.92,0,0,0-2.633-.909l.587-19.439a9.4,9.4,0,0,0,7.614-4.022,8.748,8.748,0,0,0-.079-10.068l15.367-14.742a8.923,8.923,0,0,0,1.157.878,9.522,9.522,0,0,0,12.913-2.519,8.886,8.886,0,0,0,1.266-2.763l21.22,4.242a8.711,8.711,0,0,0,3.967,8.749,9.4,9.4,0,0,0,10.847-.526l21.052,22.653a9.156,9.156,0,0,0-1.2,1.413,8.646,8.646,0,0,0,2.56,12.237,8.972,8.972,0,0,0,1.089.6l-14.8,46.1a9.3,9.3,0,0,0-9.922,3.661,8.646,8.646,0,0,0,2.56,12.239,9.326,9.326,0,0,0,4.006,1.417l-1.65,22.922a9.232,9.232,0,0,0-7.834,3.942,8.639,8.639,0,0,0,2.218,12.01l-10.84,15.776a4.622,4.622,0,0,0-5.914,1.43,4.282,4.282,0,0,0,1.265,6.059,4.621,4.621,0,0,0,6.271-1.225,4.271,4.271,0,0,0-.932-5.82l10.843-15.779a9.351,9.351,0,0,0,11.921-2.157l27.679,12.328a8.677,8.677,0,0,0,3.411,10.686,9.348,9.348,0,0,0,12.431-2.145l16.641,10.673a5.5,5.5,0,0,0,1.837,7.443,5.943,5.943,0,0,0,8.062-1.574A5.5,5.5,0,0,0,1491,896.7a5.951,5.951,0,0,0-7.816,1.251l-16.638-10.672a8.55,8.55,0,0,0,1.2-5.9l30.476-5.947a8.786,8.786,0,0,0,3.811,5.217,9.336,9.336,0,0,0,12.667-2.47c.017-.028.035-.052.048-.076l17.336,15.452c-.106.13-.2.259-.3.4a5.5,5.5,0,0,0,1.627,7.788,5.941,5.941,0,0,0,8.062-1.573,5.5,5.5,0,0,0-1.628-7.788,5.968,5.968,0,0,0-7.2.589L1515.172,877.4a8.532,8.532,0,0,0,.779-6.206l37.937-13.478a4.376,4.376,0,0,0,1.579,1.763,4.619,4.619,0,0,0,6.269-1.222,4.28,4.28,0,0,0-1.266-6.058,4.623,4.623,0,0,0-6.273,1.223,4.234,4.234,0,0,0-.6,3.539l-37.885,13.463a8.824,8.824,0,0,0-3.583-4.48,9.321,9.321,0,0,0-1.586-.813l-.783-.272c-.1-.03-.2-.054-.293-.081l6.063-41.255a9.252,9.252,0,0,0,8.488-3.906,8.6,8.6,0,0,0,1.321-3.026l.141-.793a8.638,8.638,0,0,0-1.239-5.61l27.881-20.94a5.743,5.743,0,0,0,1.1.929,5.946,5.946,0,0,0,7.814-1.252l29.8,19.115a5.5,5.5,0,0,0,1.843,7.442,5.943,5.943,0,0,0,8.062-1.574,5.447,5.447,0,0,0,.943-3.611l38.092-5.273a3.962,3.962,0,1,0,3.849-4.832Z" transform="translate(-122.763 -38.606)" fill="#003262"/>
  </g>
</svg>
