<?xml version="1.0" encoding="utf-8"?>
<!-- Generator: Adobe Illustrator 25.4.1, SVG Export Plug-In . SVG Version: 6.00 Build 0)  -->
<svg version="1.1" id="Ebene_1" xmlns="http://www.w3.org/2000/svg" xmlns:xlink="http://www.w3.org/1999/xlink" x="0px" y="0px"
	 viewBox="0 0 751.2 267.9" style="enable-background:new 0 0 751.2 267.9;" xml:space="preserve">
<style type="text/css">
	.st0{fill:#B3BCC2;}
	.st1{fill:#232323;}
	.st2{fill:#0BBBEF;}
	.st3{fill:#A2C617;}
</style>
<g>
	<path class="st0" d="M415.7,104.7h-2.4c-0.6,0-1-0.2-1.2-0.6l-11.8-22.5c0-0.1-0.1-0.1-0.1-0.1s0,0,0,0.1V104
		c0,0.4-0.3,0.7-0.7,0.7h-2c-0.4,0-0.7-0.1-0.7-0.5V77.3c0-0.6,0.5-1.1,1.1-1.1h2.1c1.1,0,1.3,0.2,1.6,0.8l11.8,22.4l0.1,0.1
		c0,0,0-0.1,0-0.1V77c0-0.4,0.3-0.7,0.7-0.7h2c0.4,0,0.7,0.3,0.7,0.7v26.6C416.8,104.2,416.3,104.7,415.7,104.7z"/>
	<path class="st0" d="M436.3,104.7h-1.8c-0.4,0-0.8-0.3-0.8-0.8v-0.8c-1.8,1.1-3.8,1.9-5.9,1.9c-3.3,0-6.2-1.4-6.2-6.2v-0.5
		c0-4.1,2.4-6.2,9.2-6.2h2.8v-1.5c0-3.2-1.1-4.3-4.1-4.3c-2.5,0-4.3,0.2-5.9,0.3c-0.1,0-0.1,0-0.2,0c-0.3,0-0.7-0.1-0.7-0.6v-1.3
		c0-0.4,0.3-0.7,0.8-0.7c1.6-0.3,3.3-0.5,5.9-0.5c5.3,0,7.5,2.7,7.5,7.2V104C437,104.4,436.7,104.7,436.3,104.7z M433.7,94.5h-2.8
		c-4.6,0-5.9,1-5.9,3.8v0.5c0,2.8,1.3,3.5,3.5,3.5c1.8,0,3.3-0.5,5.2-1.5L433.7,94.5L433.7,94.5z"/>
	<path class="st0" d="M451.8,104.8c-0.8,0.1-1.8,0.2-2.5,0.2c-3.5,0-5.2-0.9-5.2-5.1V86.5l-3.7-0.4c-0.4,0-0.7-0.3-0.7-0.7v-1
		c0-0.4,0.3-0.7,0.7-0.7h3.7v-3.8c0-0.4,0.3-0.7,0.7-0.8l2-0.3c0,0,0.1,0,0.1,0c0.3,0,0.6,0.3,0.6,0.7v4.2h4.1
		c0.4,0,0.8,0.3,0.8,0.8v1.3c0,0.4-0.4,0.8-0.8,0.8h-4.1v13.4c0,2.1,0.5,2.4,2.1,2.4h2.1c0.5,0,0.8,0.2,0.8,0.5v1.3
		C452.5,104.5,452.3,104.7,451.8,104.8z"/>
	<path class="st0" d="M459.2,80.3h-2c-0.4,0-0.8-0.3-0.8-0.8v-3.1c0-0.4,0.3-0.8,0.8-0.8h2c0.4,0,0.8,0.3,0.8,0.8v3.1
		C460,79.9,459.6,80.3,459.2,80.3z M459.1,104.7h-1.8c-0.4,0-0.8-0.3-0.8-0.8V84.4c0-0.4,0.3-0.8,0.8-0.8h1.8c0.4,0,0.8,0.3,0.8,0.8
		v19.5C459.9,104.4,459.5,104.7,459.1,104.7z"/>
	<path class="st0" d="M473.4,105c-5.6,0-8.5-3.7-8.5-9.3v-2.9c0-5.6,2.9-9.3,8.5-9.3s8.5,3.7,8.5,9.3v2.9
		C481.9,101.3,479,105,473.4,105z M478.5,92.7c0-3.9-1.6-6.4-5.2-6.4c-3.6,0-5.1,2.4-5.1,6.4v2.9c0,3.9,1.5,6.4,5.1,6.4
		c3.6,0,5.2-2.4,5.2-6.4V92.7z"/>
	<path class="st0" d="M501.8,104.7h-1.8c-0.4,0-0.8-0.3-0.8-0.8V91.3c0-3.9-1.3-5.1-4.2-5.1c-1.6,0-3.4,0.6-5.2,1.5v16.2
		c0,0.4-0.3,0.8-0.8,0.8h-1.9c-0.4,0-0.7-0.3-0.7-0.8V84.4c0-0.4,0.3-0.8,0.7-0.8h1.9c0.4,0,0.7,0.3,0.7,0.8v0.7
		c2.1-1.2,3.8-1.8,6.1-1.8c4.6,0,6.7,2.9,6.7,8V104C502.5,104.4,502.2,104.7,501.8,104.7z"/>
	<path class="st0" d="M521.7,104.7h-1.8c-0.4,0-0.8-0.3-0.8-0.8v-0.8c-1.8,1.1-3.8,1.9-5.9,1.9c-3.3,0-6.2-1.4-6.2-6.2v-0.5
		c0-4.1,2.4-6.2,9.2-6.2h2.8v-1.5c0-3.2-1.1-4.3-4.1-4.3c-2.5,0-4.3,0.2-5.9,0.3c-0.1,0-0.1,0-0.2,0c-0.3,0-0.7-0.1-0.7-0.6v-1.3
		c0-0.4,0.3-0.7,0.8-0.7c1.6-0.3,3.3-0.5,5.9-0.5c5.3,0,7.5,2.7,7.5,7.2V104C522.4,104.4,522.1,104.7,521.7,104.7z M519,94.5h-2.8
		c-4.6,0-5.9,1-5.9,3.8v0.5c0,2.8,1.3,3.5,3.5,3.5c1.8,0,3.3-0.5,5.2-1.5V94.5z"/>
	<path class="st0" d="M530.7,104.7h-2c-0.4,0-0.7-0.3-0.7-0.8V76.6c0-0.4,0.3-0.7,0.7-0.7h2c0.4,0,0.7,0.3,0.7,0.7v27.3
		C531.4,104.3,531.1,104.7,530.7,104.7z"/>
	<path class="st0" d="M552.5,95.3h-12.8v0.5c0,4.6,1.8,6.2,5.3,6.2c2.2,0,5.1-0.2,6.8-0.4c0.1,0,0.1,0,0.2,0c0.3,0,0.6,0.2,0.6,0.5
		v1.3c0,0.5-0.2,0.8-0.8,0.9c-2.2,0.4-4.3,0.7-6.8,0.7c-4.4,0-8.7-2.1-8.7-9.2v-3.4c0-5.5,3-9,8.5-9c5.6,0,8.4,3.5,8.4,9v2.1
		C553.2,94.9,553,95.3,552.5,95.3z M549.8,92.3c0-4.3-1.7-6-5-6c-3.3,0-5.1,1.9-5.1,6v0.3h10.2V92.3z"/>
	<path class="st0" d="M412,137.1h-11.8v12.5c0,0.4-0.3,0.8-0.8,0.8h-2c-0.4,0-0.8-0.3-0.8-0.8v-20.8c0-5.1,2.8-7.1,8.2-7.1
		c2.3,0,5.9,0.1,7.5,0.2c0.2,0,0.4,0.3,0.4,0.5v1.9c0,0.3-0.1,0.5-0.4,0.5h-7.4c-4.1,0-4.7,1.1-4.7,4v5.3H412c0.4,0,0.8,0.3,0.8,0.8
		v1.4C412.7,136.7,412.4,137.1,412,137.1z"/>
	<path class="st0" d="M424.2,150.6c-5.6,0-8.5-3.7-8.5-9.3v-2.9c0-5.6,2.9-9.3,8.5-9.3s8.5,3.7,8.5,9.3v2.9
		C432.8,146.9,429.9,150.6,424.2,150.6z M429.4,138.4c0-3.9-1.6-6.4-5.2-6.4c-3.6,0-5.1,2.4-5.1,6.4v2.9c0,3.9,1.5,6.4,5.1,6.4
		c3.6,0,5.2-2.4,5.2-6.4V138.4z"/>
	<path class="st0" d="M445.9,131.9c-1.8,0-3.4,0.5-5.3,1.6v16.1c0,0.4-0.3,0.8-0.8,0.8H438c-0.4,0-0.7-0.3-0.7-0.8v-19.5
		c0-0.4,0.3-0.8,0.7-0.8h1.8c0.4,0,0.7,0.3,0.7,0.8v0.8c1.9-1.3,3.7-1.8,5.4-1.8c0.5,0,0.8,0.2,0.8,0.7v1.6
		C446.7,131.7,446.5,131.9,445.9,131.9z"/>
	<path class="st0" d="M456.5,150.6c-1.4,0-4.2-0.1-6-0.6c-0.5-0.1-0.8-0.3-0.8-0.8v-1.3c0-0.3,0.3-0.6,0.7-0.6c0.1,0,0.1,0,0.1,0
		c1.8,0.2,4.6,0.4,6,0.4c2.5,0,3.8-0.6,3.8-2.7c0-1.1-0.7-1.9-2.9-3.2l-3.9-2.3c-2.3-1.4-3.9-3.1-3.9-5.5c0-4,3-5.1,6.9-5.1
		c2.1,0,4.2,0.2,6,0.5c0.5,0.1,0.7,0.3,0.7,0.8v1.3c0,0.5-0.3,0.6-0.6,0.6c0,0-0.1,0-0.1,0c-1.3-0.1-3.8-0.3-5.9-0.3
		c-2.1,0-3.6,0.3-3.6,2.2c0,1.1,0.9,1.9,2.6,2.9l3.8,2.3c3.2,1.9,4.2,3.5,4.2,5.8C463.7,149,460.8,150.6,456.5,150.6z"/>
	<path class="st0" d="M480.5,150.2c-1.3,0.2-3,0.4-4.8,0.4c-5.2,0-8.2-3.7-8.2-9.3v-3c0-5.6,2.9-9.3,8.2-9.3c1.8,0,3.5,0.2,4.8,0.4
		c0.6,0.1,0.8,0.3,0.8,0.8v1.4c0,0.4-0.3,0.6-0.6,0.6c-0.1,0-0.1,0-0.1,0c-1.7-0.2-2.9-0.3-4.8-0.3c-3.1,0-4.8,2-4.8,6.4v3
		c0,4.3,1.7,6.4,4.8,6.4c1.9,0,3.1-0.1,4.8-0.3c0,0,0.1,0,0.1,0c0.3,0,0.6,0.2,0.6,0.6v1.4C481.2,149.9,481.1,150.1,480.5,150.2z"/>
	<path class="st0" d="M500.9,150.4h-1.8c-0.4,0-0.8-0.3-0.8-0.8V137c0-3.8-1.6-5-4.1-5c-1.2,0-3.6,0.3-5.3,1.1v16.5
		c0,0.4-0.3,0.8-0.8,0.8h-1.9c-0.4,0-0.7-0.3-0.7-0.8v-27.3c0-0.4,0.3-0.8,0.7-0.8h1.9c0.4,0,0.7,0.3,0.7,0.8v7.9
		c1.8-0.8,4.2-1.2,5.9-1.2c4.1,0,6.9,2.3,6.9,8v12.6C501.7,150,501.3,150.4,500.9,150.4z"/>
	<path class="st0" d="M522.3,150.4h-1.9c-0.4,0-0.7-0.3-0.7-0.8v-0.7c-2.1,1.2-3.8,1.8-6.1,1.8c-4.6,0-6.7-2.9-6.7-8V130
		c0-0.4,0.3-0.8,0.8-0.8h1.8c0.4,0,0.8,0.3,0.8,0.8v12.6c0,3.9,1.3,5.1,4.2,5.1c1.6,0,3.4-0.6,5.2-1.5v-16.2c0-0.4,0.3-0.8,0.8-0.8
		h1.9c0.4,0,0.7,0.3,0.7,0.8v19.5C523,150,522.7,150.4,522.3,150.4z"/>
	<path class="st0" d="M543.6,150.4h-1.8c-0.4,0-0.8-0.3-0.8-0.8V137c0-3.9-1.3-5.1-4.2-5.1c-1.6,0-3.4,0.6-5.2,1.5v16.2
		c0,0.4-0.3,0.8-0.8,0.8h-1.9c-0.4,0-0.7-0.3-0.7-0.8v-19.5c0-0.4,0.3-0.8,0.7-0.8h1.9c0.4,0,0.7,0.3,0.7,0.8v0.7
		c2.1-1.2,3.8-1.8,6.1-1.8c4.6,0,6.7,2.9,6.7,8v12.6C544.3,150,544,150.4,543.6,150.4z"/>
	<path class="st0" d="M566.3,131.9l-1.4,0.3c0.7,0.7,1.3,1.9,1.3,3.9v0.3c0,4.2-2.6,6.6-8.5,6.6c-2,0-3.3-0.3-4.4-0.8
		c-0.7,0.3-1,0.7-1,1.3c0,0.6,0.3,1,1.2,1.2l5.7,1.4c3.8,1,7.3,2,7.3,5.6v0.3c0,3.7-2.5,5.9-8.7,5.9c-6,0-8.8-2.3-8.8-6.1v-0.3
		c0-2.1,1.2-3.9,2.4-4.9l-0.3-0.1c-1.2-0.5-1.8-1.8-1.8-3v0c0-1,0.5-2.1,1.6-2.8c-1.2-1.1-1.8-2.5-1.8-4.4v-0.3
		c0-3.4,1.9-6.8,8.5-6.8h8.4c0.5,0,0.9,0.4,0.9,0.8v1C567,131.6,566.7,131.8,566.3,131.9z M563.2,151.8c0-1.5-1.2-2.1-4.7-3
		l-4.3-1.1c-1.1,1-1.9,1.9-1.9,3.9v0.3c0,2.1,1.3,3.5,5.5,3.5c4.4,0,5.4-1.2,5.4-3.3L563.2,151.8L563.2,151.8z M562.9,136.1
		c0-2.3-1-4.1-5.2-4.1c-4.3,0-5.2,1.9-5.2,4.1v0.3c0,1.7,0.8,3.9,5.2,3.9c4.1,0,5.2-1.6,5.2-3.9V136.1z"/>
	<path class="st0" d="M577.1,150.6c-1.4,0-4.2-0.1-6-0.6c-0.5-0.1-0.8-0.3-0.8-0.8v-1.3c0-0.3,0.3-0.6,0.7-0.6c0.1,0,0.1,0,0.2,0
		c1.8,0.2,4.6,0.4,6,0.4c2.5,0,3.8-0.6,3.8-2.7c0-1.1-0.7-1.9-2.9-3.2l-3.9-2.3c-2.3-1.4-3.9-3.1-3.9-5.5c0-4,3-5.1,6.9-5.1
		c2.1,0,4.2,0.2,6,0.5c0.5,0.1,0.7,0.3,0.7,0.8v1.3c0,0.5-0.3,0.6-0.7,0.6c0,0-0.1,0-0.1,0c-1.3-0.1-3.8-0.3-5.9-0.3
		c-2.1,0-3.6,0.3-3.6,2.2c0,1.1,0.9,1.9,2.6,2.9l3.8,2.3c3.2,1.9,4.2,3.5,4.2,5.8C584.3,149,581.4,150.6,577.1,150.6z"/>
	<path class="st0" d="M603.5,150c-2.4,0.5-4.7,0.6-7,0.6c-5.7,0-8.3-3.7-8.3-9.5v-2.8c0-6,2.8-9.4,8.3-9.4c1.2,0,3,0.1,4.5,0.4v-7.1
		c0-0.4,0.3-0.7,0.7-0.7h2c0.4,0,0.7,0.3,0.7,0.7v26.8C604.3,149.6,604.2,149.9,603.5,150z M600.9,132.2c-1.3-0.2-3.3-0.3-4.5-0.3
		c-3.8,0-5,2.3-5,6.4v2.8c0,4.2,1.2,6.5,5,6.5c1.3,0,3.2-0.1,4.5-0.2V132.2z"/>
	<path class="st0" d="M623.4,150.4h-1.8c-0.4,0-0.8-0.3-0.8-0.8v-0.8c-1.8,1.1-3.8,1.9-5.9,1.9c-3.3,0-6.2-1.4-6.2-6.2V144
		c0-4.1,2.4-6.2,9.2-6.2h2.8v-1.5c0-3.2-1.1-4.3-4.1-4.3c-2.5,0-4.3,0.1-5.9,0.3c-0.1,0-0.1,0-0.2,0c-0.3,0-0.7-0.1-0.7-0.6v-1.3
		c0-0.4,0.3-0.6,0.8-0.7c1.6-0.3,3.3-0.5,5.9-0.5c5.3,0,7.5,2.7,7.5,7.2v13.4C624.2,150,623.8,150.4,623.4,150.4z M620.8,140.2H618
		c-4.6,0-5.9,1-5.9,3.8v0.5c0,2.8,1.3,3.5,3.5,3.5c1.8,0,3.3-0.5,5.2-1.5V140.2z"/>
	<path class="st0" d="M639,150.4c-0.8,0.1-1.8,0.2-2.5,0.2c-3.5,0-5.2-0.9-5.2-5.1v-13.4l-3.7-0.4c-0.4,0-0.7-0.3-0.7-0.7v-1
		c0-0.4,0.3-0.7,0.7-0.7h3.7v-3.8c0-0.4,0.3-0.7,0.7-0.8l2-0.3c0,0,0.1,0,0.1,0c0.3,0,0.6,0.3,0.6,0.7v4.2h4.1
		c0.4,0,0.8,0.3,0.8,0.8v1.3c0,0.4-0.3,0.8-0.8,0.8h-4.1v13.4c0,2.1,0.5,2.4,2.1,2.4h2.1c0.5,0,0.8,0.1,0.8,0.5v1.3
		C639.7,150.1,639.5,150.4,639,150.4z"/>
	<path class="st0" d="M658.7,140.9h-12.8v0.5c0,4.6,1.8,6.2,5.3,6.2c2.2,0,5.1-0.1,6.8-0.4c0.1,0,0.1,0,0.2,0c0.3,0,0.6,0.1,0.6,0.5
		v1.3c0,0.5-0.2,0.8-0.8,0.9c-2.2,0.4-4.3,0.6-6.8,0.6c-4.4,0-8.7-2.1-8.7-9.2V138c0-5.5,3-9,8.5-9c5.6,0,8.4,3.5,8.4,9v2.1
		C659.5,140.6,659.2,140.9,658.7,140.9z M656,138c0-4.3-1.7-6-5-6c-3.3,0-5.1,1.9-5.1,6v0.3H656V138z"/>
	<path class="st0" d="M679.4,150.4h-1.8c-0.4,0-0.8-0.3-0.8-0.8V137c0-3.9-1.3-5.1-4.2-5.1c-1.6,0-3.4,0.6-5.2,1.5v16.2
		c0,0.4-0.3,0.8-0.8,0.8h-1.9c-0.4,0-0.7-0.3-0.7-0.8v-19.5c0-0.4,0.3-0.8,0.7-0.8h1.9c0.4,0,0.7,0.3,0.7,0.8v0.7
		c2.1-1.2,3.8-1.8,6.1-1.8c4.6,0,6.7,2.9,6.7,8v12.6C680.2,150,679.8,150.4,679.4,150.4z"/>
	<path class="st0" d="M399.9,196h-2.1c-0.4,0-0.7-0.3-0.7-0.8v-27c0-0.4,0.3-0.7,0.7-0.7h2.1c0.4,0,0.7,0.3,0.7,0.7v27
		C400.6,195.6,400.3,196,399.9,196z"/>
	<path class="st0" d="M421.9,196h-1.8c-0.4,0-0.8-0.3-0.8-0.8v-12.6c0-3.9-1.3-5.1-4.2-5.1c-1.6,0-3.4,0.6-5.2,1.5v16.2
		c0,0.4-0.3,0.8-0.8,0.8h-1.9c-0.4,0-0.7-0.3-0.7-0.8v-19.5c0-0.4,0.3-0.8,0.7-0.8h1.9c0.4,0,0.7,0.3,0.7,0.8v0.7
		c2.1-1.2,3.8-1.8,6.1-1.8c4.6,0,6.7,2.9,6.7,8v12.6C422.7,195.7,422.3,196,421.9,196z"/>
	<path class="st0" d="M437.5,169.6h-1.8c-1.8,0-2.3,0.5-2.3,2.6v2.8h4c0.4,0,0.7,0.3,0.7,0.7v1.5c0,0.4-0.3,0.6-0.7,0.6h-4v17.5
		c0,0.4-0.4,0.8-0.7,0.8h-1.9c-0.4,0-0.8-0.4-0.8-0.8v-17.5l-3.7-0.4c-0.4,0-0.7-0.3-0.7-0.7v-1c0-0.4,0.3-0.7,0.7-0.7h3.7v-2.8
		c0-4.1,2-5.3,5.4-5.3c1,0,1.6,0.1,2.1,0.2c0.4,0.1,0.7,0.3,0.7,0.6v1.3C438.2,169.4,437.9,169.6,437.5,169.6z"/>
	<path class="st0" d="M450.4,177.6c-1.8,0-3.4,0.5-5.3,1.6v16.1c0,0.4-0.3,0.8-0.8,0.8h-1.9c-0.4,0-0.7-0.3-0.7-0.8v-19.5
		c0-0.4,0.3-0.8,0.7-0.8h1.8c0.4,0,0.7,0.3,0.7,0.8v0.8c1.9-1.3,3.7-1.8,5.4-1.8c0.5,0,0.8,0.2,0.8,0.7v1.6
		C451.2,177.4,450.9,177.6,450.4,177.6z"/>
	<path class="st0" d="M467.7,196h-1.8c-0.4,0-0.8-0.3-0.8-0.8v-0.8c-1.8,1.1-3.8,1.9-5.9,1.9c-3.3,0-6.2-1.4-6.2-6.2v-0.5
		c0-4.1,2.4-6.2,9.2-6.2h2.8v-1.5c0-3.2-1.1-4.3-4.1-4.3c-2.5,0-4.3,0.1-5.9,0.3c-0.1,0-0.1,0-0.2,0c-0.3,0-0.7-0.1-0.7-0.6v-1.3
		c0-0.4,0.3-0.6,0.8-0.7c1.6-0.3,3.3-0.5,5.9-0.5c5.3,0,7.5,2.7,7.5,7.2v13.4C468.5,195.7,468.1,196,467.7,196z M465.1,185.8h-2.8
		c-4.6,0-5.9,1-5.9,3.8v0.5c0,2.8,1.3,3.5,3.5,3.5c1.8,0,3.3-0.5,5.2-1.5L465.1,185.8L465.1,185.8z"/>
	<path class="st0" d="M479.8,196.3c-1.4,0-4.2-0.1-6-0.6c-0.5-0.1-0.8-0.3-0.8-0.8v-1.3c0-0.3,0.3-0.6,0.7-0.6c0.1,0,0.1,0,0.1,0
		c1.8,0.2,4.6,0.4,6,0.4c2.5,0,3.8-0.6,3.8-2.7c0-1.1-0.7-1.9-2.9-3.2l-3.9-2.3c-2.3-1.4-3.9-3.1-3.9-5.5c0-4,3-5.1,6.9-5.1
		c2.1,0,4.2,0.2,6,0.5c0.5,0.1,0.7,0.3,0.7,0.8v1.3c0,0.5-0.3,0.6-0.6,0.6c0,0-0.1,0-0.1,0c-1.3-0.1-3.8-0.3-5.9-0.3
		c-2.1,0-3.6,0.3-3.6,2.2c0,1.1,0.9,1.9,2.6,2.9l3.8,2.3c3.2,1.9,4.2,3.5,4.2,5.8C487,194.6,484.1,196.3,479.8,196.3z"/>
	<path class="st0" d="M501.5,196.1c-0.8,0.1-1.8,0.2-2.5,0.2c-3.5,0-5.2-0.9-5.2-5.1v-13.4l-3.7-0.4c-0.4,0-0.7-0.3-0.7-0.7v-1
		c0-0.4,0.3-0.7,0.7-0.7h3.7v-3.8c0-0.4,0.3-0.7,0.7-0.8l2-0.3c0,0,0.1,0,0.1,0c0.3,0,0.6,0.3,0.6,0.6v4.2h4.1
		c0.4,0,0.8,0.3,0.8,0.8v1.3c0,0.4-0.4,0.8-0.8,0.8h-4.1v13.4c0,2.1,0.5,2.4,2.1,2.4h2.1c0.5,0,0.8,0.1,0.8,0.5v1.3
		C502.2,195.8,502,196,501.5,196.1z"/>
	<path class="st0" d="M514.4,177.6c-1.8,0-3.4,0.5-5.3,1.6v16.1c0,0.4-0.3,0.8-0.8,0.8h-1.9c-0.4,0-0.7-0.3-0.7-0.8v-19.5
		c0-0.4,0.3-0.8,0.7-0.8h1.8c0.4,0,0.7,0.3,0.7,0.8v0.8c1.9-1.3,3.7-1.8,5.4-1.8c0.5,0,0.8,0.2,0.8,0.7v1.6
		C515.2,177.4,515,177.6,514.4,177.6z"/>
	<path class="st0" d="M534.3,196h-1.9c-0.4,0-0.7-0.3-0.7-0.8v-0.7c-2.1,1.2-3.8,1.8-6.1,1.8c-4.6,0-6.7-2.9-6.7-8v-12.6
		c0-0.4,0.3-0.8,0.8-0.8h1.8c0.4,0,0.8,0.3,0.8,0.8v12.6c0,3.9,1.3,5.1,4.2,5.1c1.6,0,3.4-0.6,5.2-1.5v-16.2c0-0.4,0.3-0.8,0.8-0.8
		h1.9c0.4,0,0.7,0.3,0.7,0.8v19.5C535,195.7,534.7,196,534.3,196z"/>
	<path class="st0" d="M554.8,196h-2.8c-0.4,0-0.6-0.1-0.9-0.5l-7.6-9.4v9.1c0,0.4-0.3,0.8-0.8,0.8h-1.8c-0.4,0-0.8-0.3-0.8-0.8V168
		c0-0.4,0.3-0.8,0.8-0.8h1.8c0.4,0,0.8,0.3,0.8,0.8v15.9l7.7-8.6c0.2-0.3,0.4-0.3,0.8-0.3h2.7c0.4,0,0.6,0.2,0.6,0.4
		c0,0.1-0.1,0.3-0.2,0.4l-8.4,9.1l8.5,10.3c0.1,0.1,0.1,0.2,0.1,0.3C555.2,195.8,555.1,196,554.8,196z"/>
	<path class="st0" d="M569.7,196.1c-0.8,0.1-1.8,0.2-2.5,0.2c-3.5,0-5.2-0.9-5.2-5.1v-13.4l-3.7-0.4c-0.4,0-0.7-0.3-0.7-0.7v-1
		c0-0.4,0.3-0.7,0.7-0.7h3.7v-3.8c0-0.4,0.3-0.7,0.7-0.8l2-0.3c0,0,0.1,0,0.1,0c0.3,0,0.6,0.3,0.6,0.6v4.2h4.1
		c0.4,0,0.8,0.3,0.8,0.8v1.3c0,0.4-0.3,0.8-0.8,0.8h-4.1v13.4c0,2.1,0.5,2.4,2.1,2.4h2.1c0.5,0,0.8,0.1,0.8,0.5v1.3
		C570.4,195.8,570.2,196,569.7,196.1z"/>
	<path class="st0" d="M589.3,196h-1.9c-0.4,0-0.7-0.3-0.7-0.8v-0.7c-2.1,1.2-3.8,1.8-6.1,1.8c-4.6,0-6.7-2.9-6.7-8v-12.6
		c0-0.4,0.3-0.8,0.8-0.8h1.8c0.4,0,0.8,0.3,0.8,0.8v12.6c0,3.9,1.3,5.1,4.2,5.1c1.6,0,3.4-0.6,5.2-1.5v-16.2c0-0.4,0.3-0.8,0.8-0.8
		h1.9c0.4,0,0.7,0.3,0.7,0.8v19.5C590.1,195.7,589.8,196,589.3,196z"/>
	<path class="st0" d="M603.9,177.6c-1.8,0-3.4,0.5-5.3,1.6v16.1c0,0.4-0.3,0.8-0.8,0.8H596c-0.4,0-0.7-0.3-0.7-0.8v-19.5
		c0-0.4,0.3-0.8,0.7-0.8h1.8c0.4,0,0.7,0.3,0.7,0.8v0.8c1.9-1.3,3.7-1.8,5.4-1.8c0.5,0,0.8,0.2,0.8,0.7v1.6
		C604.7,177.4,604.5,177.6,603.9,177.6z"/>
</g>
<g>
	<path class="st1" d="M220.7,70.9c-23,0-41.6,18.7-41.6,41.7v76.3c0,4.5,3.6,8.1,8.1,8.1s8.1-3.6,8.1-8.1v-50.6h12.9
		c4.2,0,7.6-3.5,7.6-7.7c0-4.3-3.4-7.7-7.6-7.7h-12.9v-10.3c0-14,11.4-25.4,25.4-25.4c4.5,0,8.1-3.6,8.1-8.1S225.1,70.9,220.7,70.9"
		/>
	<g>
		<path class="st1" d="M147.3,197c-4.5,0-8.1-3.6-8.1-8.1l0.1-33.8c0-14-11.4-25.4-25.4-25.4s-25.4,11.4-25.4,25.4
			c0,4.5-3.6,8.1-8.1,8.1s-8.1-3.6-8.1-8.1c0-23,18.7-41.7,41.7-41.7s41.7,18.7,41.7,41.7v33.8C155.5,193.4,151.8,197,147.3,197"/>
		<path class="st2" d="M89.8,187.5c0,5.2-4.2,9.5-9.5,9.5s-9.5-4.2-9.5-9.5s4.2-9.5,9.5-9.5C85.6,178,89.8,182.3,89.8,187.5"/>
	</g>
	<g>
		<path class="st3" d="M351.9,95.2c3.5,3.9,3.2,9.9-0.7,13.4c-3.9,3.5-9.9,3.2-13.4-0.7c-3.5-3.9-3.2-9.9,0.7-13.4
			C342.4,90.9,348.4,91.2,351.9,95.2"/>
		<path class="st1" d="M353,133.9v55c0,4.5-3.6,8.1-8.1,8.1l0,0c-4.5,0-8.1-3.6-8.1-8.1v-55c0-4.5,3.6-8.1,8.1-8.1l0,0
			C349.4,125.7,353,129.4,353,133.9z"/>
	</g>
	<path class="st1" d="M304.9,70.9c-4.5,0-8.1,3.6-8.1,8.1v43.2c-7.1-5.5-15.9-8.7-25.5-8.7c-23,0-41.8,18.7-41.8,41.8
		s18.7,41.8,41.8,41.8c23,0,41.8-18.7,41.8-41.8V79C313,74.5,309.4,70.9,304.9,70.9z M271.2,180.7c-14.1,0-25.5-11.4-25.5-25.5
		c0-14.1,11.4-25.5,25.5-25.5c14.1,0,25.5,11.4,25.5,25.5C296.7,169.3,285.3,180.7,271.2,180.7z"/>
</g>
</svg>
