<svg id="Layer_1" data-name="Layer 1" xmlns="http://www.w3.org/2000/svg" viewBox="0 0 14 14"><defs><style>.cls-1{fill:#eef0f0;}</style></defs><g id="Group_562" data-name="Group 562"><path id="Path_2145" data-name="Path 2145" class="cls-1" d="M17.22,10.84v6.3a.56.56,0,0,1-.56.56H3.78a.56.56,0,0,1-.56-.56V4.26a.56.56,0,0,1,.56-.56h6.3a.14.14,0,0,1,.14.14v1a.15.15,0,0,1-.14.14H4.48V16.44H16v-5.6a.14.14,0,0,1,.14-.14h1A.14.14,0,0,1,17.22,10.84Z" transform="translate(-3.22 -3.7)"/><path id="Path_2146" data-name="Path 2146" class="cls-1" d="M7.86,11.88a.21.21,0,0,1,0-.13l6-6L12.69,4.52a.16.16,0,0,1-.06-.13.19.19,0,0,1,.17-.19L17,3.71a.18.18,0,0,1,.21.19v0l-.49,4.2a.42.42,0,0,1,0,.1l-.09.06h-.1a.2.2,0,0,1-.09,0L15.18,7l-6,6a.19.19,0,0,1-.26,0l-1-1a.19.19,0,0,1,0-.13Z" transform="translate(-3.22 -3.7)"/></g></svg>