<svg xmlns="http://www.w3.org/2000/svg" viewBox="0 0 73.15 17.85"><defs><style>.cls-1{fill:#fff;}</style></defs><g id="Layer_1" data-name="Layer 1"><g id="Group_410" data-name="Group 410"><g id="Group_333" data-name="Group 333"><path id="Path_242" data-name="Path 242" class="cls-1" d="M63.87,36.24a1.08,1.08,0,0,1,.39.28l-.28.26a1.19,1.19,0,0,0-.29-.18.77.77,0,0,0-.3-.06.86.86,0,0,0-.69.31,1.88,1.88,0,0,0-.39.77,4.25,4.25,0,0,0-.12.94,1.18,1.18,0,0,0,.19.73.6.6,0,0,0,.5.23.77.77,0,0,0,.37-.07,2.3,2.3,0,0,0,.37-.23l.2.32a1.45,1.45,0,0,1-1,.39,1,1,0,0,1-.83-.36,1.62,1.62,0,0,1-.31-1,3.49,3.49,0,0,1,.18-1.11,2.15,2.15,0,0,1,.56-.91,1.3,1.3,0,0,1,.94-.36A1.08,1.08,0,0,1,63.87,36.24Z" transform="translate(-21.11 -22.09)"/><path id="Path_243" data-name="Path 243" class="cls-1" d="M66.23,37.19a.69.69,0,0,1,.17.5c0,.06,0,.12,0,.18l-.29,2h-.46l.28-2a1.14,1.14,0,0,0,0-.15c0-.22-.09-.33-.26-.33s-.52.26-.79.77l-.24,1.71h-.46l.55-3.93.47,0L65,37.57a1,1,0,0,1,.83-.57A.54.54,0,0,1,66.23,37.19Z" transform="translate(-21.11 -22.09)"/><path id="Path_244" data-name="Path 244" class="cls-1" d="M69.1,37.23l-.28,2a1,1,0,0,0,0,.14.17.17,0,0,0,0,.14.16.16,0,0,0,.11.09l-.14.33a.5.5,0,0,1-.31-.14.48.48,0,0,1-.13-.32,1.41,1.41,0,0,1-.35.34.73.73,0,0,1-.41.12.72.72,0,0,1-.59-.28,1.19,1.19,0,0,1-.21-.74A2.62,2.62,0,0,1,67,38a1.71,1.71,0,0,1,.47-.74,1.22,1.22,0,0,1,.81-.29A2,2,0,0,1,69.1,37.23Zm-1.39.38a1.35,1.35,0,0,0-.31.59,2.55,2.55,0,0,0-.1.72c0,.43.13.64.41.64a.51.51,0,0,0,.35-.13,2.35,2.35,0,0,0,.33-.37l.22-1.61a.94.94,0,0,0-.37-.07.72.72,0,0,0-.53.23Z" transform="translate(-21.11 -22.09)"/><path id="Path_245" data-name="Path 245" class="cls-1" d="M71.21,37l-.14.45a1.52,1.52,0,0,0-.21,0,.52.52,0,0,0-.41.24,2.1,2.1,0,0,0-.33.67l-.2,1.5h-.47l.4-2.8h.4l0,.54a1.45,1.45,0,0,1,.33-.45A.66.66,0,0,1,71,37,1.07,1.07,0,0,1,71.21,37Z" transform="translate(-21.11 -22.09)"/><path id="Path_246" data-name="Path 246" class="cls-1" d="M72,37.06l-.39,2.8h-.47l.4-2.8Zm-.35-.77a.3.3,0,0,1-.08-.2.34.34,0,0,1,.33-.35h0a.26.26,0,0,1,.21.07.25.25,0,0,1,.08.21.33.33,0,0,1-.33.35h0A.27.27,0,0,1,71.69,36.29Z" transform="translate(-21.11 -22.09)"/><path id="Path_247" data-name="Path 247" class="cls-1" d="M73,39.2v.1a.23.23,0,0,0,0,.18.2.2,0,0,0,.18.06l.16,0a1.21,1.21,0,0,0,.2-.09l.14.32a1,1,0,0,1-.58.18.62.62,0,0,1-.45-.16.66.66,0,0,1-.17-.44.5.5,0,0,1,0-.15l.24-1.75h-.43l.06-.36h.44l.16-.65.38-.05-.1.69h.59l-.1.37h-.54Z" transform="translate(-21.11 -22.09)"/><path id="Path_248" data-name="Path 248" class="cls-1" d="M75.67,38.49a3.56,3.56,0,0,1-1.24.33v0c0,.46.17.69.52.69a.92.92,0,0,0,.33-.06,1.41,1.41,0,0,0,.34-.19l.2.31a1.46,1.46,0,0,1-.92.33.89.89,0,0,1-.7-.28,1.19,1.19,0,0,1-.24-.79A2.56,2.56,0,0,1,74.1,38a1.54,1.54,0,0,1,.45-.7,1.08,1.08,0,0,1,.77-.28.85.85,0,0,1,.59.2.64.64,0,0,1,.21.5A.83.83,0,0,1,75.67,38.49Zm-.94-.8a1.82,1.82,0,0,0-.27.77,2.54,2.54,0,0,0,.9-.23.56.56,0,0,0,.29-.51.38.38,0,0,0-.09-.25.38.38,0,0,0-.27-.1.64.64,0,0,0-.56.32Zm1.1-2.06L76,36l-1.07.46-.12-.25Z" transform="translate(-21.11 -22.09)"/><path id="Path_249" data-name="Path 249" class="cls-1" d="M79.4,36.35a.68.68,0,0,1,.23.52.92.92,0,0,1-.11.43,1.08,1.08,0,0,1-.28.32,4.53,4.53,0,0,1-.46.3l.7.9a6.46,6.46,0,0,0,.4-.84l.4.15a5.45,5.45,0,0,1-.56,1l.44.56-.37.27-.37-.5a1.48,1.48,0,0,1-.51.38,1.39,1.39,0,0,1-.57.12,1.08,1.08,0,0,1-.5-.12.78.78,0,0,1-.33-.32A.83.83,0,0,1,77.4,39a1,1,0,0,1,.17-.61,2.24,2.24,0,0,1,.62-.57,1.67,1.67,0,0,1-.25-.4.89.89,0,0,1-.09-.39A.93.93,0,0,1,78,36.6a.75.75,0,0,1,.33-.33.9.9,0,0,1,.51-.12A.86.86,0,0,1,79.4,36.35ZM78,38.55a1.13,1.13,0,0,0-.11.48.56.56,0,0,0,.13.39.49.49,0,0,0,.38.14,1.1,1.1,0,0,0,.81-.4l-.79-1a1.4,1.4,0,0,0-.42.42Zm.46-1.9a.58.58,0,0,0-.13.4,1,1,0,0,0,.25.61,1.92,1.92,0,0,0,.48-.37.61.61,0,0,0,.15-.41.36.36,0,0,0-.32-.39h-.07a.42.42,0,0,0-.36.16Z" transform="translate(-21.11 -22.09)"/><path id="Path_250" data-name="Path 250" class="cls-1" d="M84.62,39.87h-.46l.12-1.65c0-.54.08-1,.13-1.52l-1.06,2.75h-.46l-.34-2.74c0,.32-.13.83-.27,1.54L82,39.87h-.47l.79-3.67h.61l.31,2.68,1-2.68h.66Z" transform="translate(-21.11 -22.09)"/><path id="Path_251" data-name="Path 251" class="cls-1" d="M87.56,36.5a1.19,1.19,0,0,1,.38,1,3.39,3.39,0,0,1-.19,1.18,1.73,1.73,0,0,1-.61.85,1.69,1.69,0,0,1-1.06.33h-.82l.52-3.67h.74A1.69,1.69,0,0,1,87.56,36.5Zm-1.36.1-.41,2.89h.37a1.08,1.08,0,0,0,.76-.29,1.64,1.64,0,0,0,.41-.74,3.4,3.4,0,0,0,.13-1,.9.9,0,0,0-.24-.72,1,1,0,0,0-.65-.19Z" transform="translate(-21.11 -22.09)"/><path id="Path_252" data-name="Path 252" class="cls-1" d="M90.49,36.24a1.17,1.17,0,0,1,.39.28l-.28.26a1.41,1.41,0,0,0-.29-.18.81.81,0,0,0-.31-.06.86.86,0,0,0-.68.31,1.88,1.88,0,0,0-.39.77,3.73,3.73,0,0,0-.12.94,1.24,1.24,0,0,0,.18.73.61.61,0,0,0,.5.23.83.83,0,0,0,.38-.07,2.85,2.85,0,0,0,.37-.23l.2.32a1.48,1.48,0,0,1-1,.39,1,1,0,0,1-.83-.36,1.55,1.55,0,0,1-.3-1,3.49,3.49,0,0,1,.18-1.11,2.15,2.15,0,0,1,.56-.91,1.3,1.3,0,0,1,.94-.36A1.08,1.08,0,0,1,90.49,36.24Z" transform="translate(-21.11 -22.09)"/></g><path id="Path_253" data-name="Path 253" class="cls-1" d="M64.28,25.38a1,1,0,0,1-.37.82,1.66,1.66,0,0,1-1,.27h-1V22.58h.85a1.82,1.82,0,0,1,1,.24.93.93,0,0,1,.17,1.3.91.91,0,0,1-.5.29.9.9,0,0,1,.85.95ZM62.4,23v1.26h.49a.72.72,0,0,0,.51-.17.59.59,0,0,0,.19-.47.56.56,0,0,0-.2-.47,1,1,0,0,0-.62-.15Zm1.11,2.92a.61.61,0,0,0,.22-.54c0-.49-.26-.74-.8-.74H62.4v1.44h.48a1.08,1.08,0,0,0,.63-.16Z" transform="translate(-21.11 -22.09)"/><path id="Path_254" data-name="Path 254" class="cls-1" d="M66.94,25.16H65.21a1.24,1.24,0,0,0,.21.75.62.62,0,0,0,.51.23,1.09,1.09,0,0,0,.36-.06,1.27,1.27,0,0,0,.34-.2l.23.3a1.4,1.4,0,0,1-1,.37,1.06,1.06,0,0,1-.9-.4A1.74,1.74,0,0,1,64.69,25a1.91,1.91,0,0,1,.3-1.16,1,1,0,0,1,.85-.43,1,1,0,0,1,.83.38A1.86,1.86,0,0,1,67,24.9C67,25,67,25.06,66.94,25.16Zm-.48-.42c0-.62-.21-.94-.62-.94a.54.54,0,0,0-.45.24,1.45,1.45,0,0,0-.18.76h1.25Z" transform="translate(-21.11 -22.09)"/><path id="Path_255" data-name="Path 255" class="cls-1" d="M69,23.46,68.9,24a.85.85,0,0,0-.23,0,.51.51,0,0,0-.41.2,1.65,1.65,0,0,0-.24.6v1.76h-.51v-3H68l0,.58c.15-.43.4-.65.74-.65A1.15,1.15,0,0,1,69,23.46Z" transform="translate(-21.11 -22.09)"/><path id="Path_256" data-name="Path 256" class="cls-1" d="M69.53,26.38a.63.63,0,0,1-.16-.46V22.29l.51-.06v3.68c0,.14.06.22.18.22a.47.47,0,0,0,.17,0l.11.36a.7.7,0,0,1-.38.1A.55.55,0,0,1,69.53,26.38Z" transform="translate(-21.11 -22.09)"/><path id="Path_257" data-name="Path 257" class="cls-1" d="M71.27,22.18a.36.36,0,0,1,.09.24.34.34,0,0,1-.35.33.36.36,0,0,1-.22-.09.31.31,0,0,1-.1-.24.33.33,0,0,1,.1-.24.36.36,0,0,1,.48,0Zm0,1.31v3h-.51v-3Z" transform="translate(-21.11 -22.09)"/><path id="Path_258" data-name="Path 258" class="cls-1" d="M73.9,23.65a1,1,0,0,1,.2.65v2.17h-.51v-2.1a.75.75,0,0,0-.1-.42.34.34,0,0,0-.3-.13c-.25,0-.47.18-.68.54v2.11H72v-3h.44l0,.44a1,1,0,0,1,.85-.51A.71.71,0,0,1,73.9,23.65Z" transform="translate(-21.11 -22.09)"/><path id="Path_259" data-name="Path 259" class="cls-1" d="M76.77,22.58v3.9h-.53v-3.9Z" transform="translate(-21.11 -22.09)"/><path id="Path_260" data-name="Path 260" class="cls-1" d="M79.37,23.65a.92.92,0,0,1,.2.65v2.17h-.51v-2.1A.68.68,0,0,0,79,24a.33.33,0,0,0-.29-.13c-.25,0-.48.18-.68.54v2.11h-.51v-3h.44l0,.44a1,1,0,0,1,.85-.51A.7.7,0,0,1,79.37,23.65Z" transform="translate(-21.11 -22.09)"/><path id="Path_261" data-name="Path 261" class="cls-1" d="M82,23.76l-.22.3a1.86,1.86,0,0,0-.34-.19,1,1,0,0,0-.33-.06.56.56,0,0,0-.37.11.41.41,0,0,0,0,.6,1.61,1.61,0,0,0,.48.22,1.63,1.63,0,0,1,.65.34.74.74,0,0,1,.2.56.78.78,0,0,1-.3.66,1.25,1.25,0,0,1-.77.25,1.47,1.47,0,0,1-1-.4l.26-.29a1.15,1.15,0,0,0,.75.29.63.63,0,0,0,.4-.12.44.44,0,0,0,.15-.35.42.42,0,0,0,0-.25.47.47,0,0,0-.19-.18,2.9,2.9,0,0,0-.41-.16,1.42,1.42,0,0,1-.61-.34.75.75,0,0,1-.06-.92.83.83,0,0,1,.34-.3,1.3,1.3,0,0,1,.51-.11A1.44,1.44,0,0,1,82,23.76Z" transform="translate(-21.11 -22.09)"/><path id="Path_262" data-name="Path 262" class="cls-1" d="M84.18,26.34a1,1,0,0,1-.63.2.67.67,0,0,1-.55-.21.75.75,0,0,1-.2-.59V23.87h-.43v-.38h.43V22.8l.51-.06v.75H84l0,.38h-.6v1.87c0,.26.1.38.32.38a.55.55,0,0,0,.18,0L84,26Z" transform="translate(-21.11 -22.09)"/><path id="Path_263" data-name="Path 263" class="cls-1" d="M85.05,22.18a.37.37,0,0,1,.1.24.35.35,0,0,1-.36.33.36.36,0,0,1-.22-.09.3.3,0,0,1-.09-.24.36.36,0,0,1,.09-.24.36.36,0,0,1,.48,0Zm0,1.31v3h-.51v-3Z" transform="translate(-21.11 -22.09)"/><path id="Path_264" data-name="Path 264" class="cls-1" d="M87.31,26.34a1,1,0,0,1-.63.2.67.67,0,0,1-.55-.21.75.75,0,0,1-.2-.59V23.87H85.5v-.38h.43V22.8l.51-.06v.75h.66l-.06.38h-.6v1.87c0,.26.11.38.32.38a.55.55,0,0,0,.18,0l.19-.09Z" transform="translate(-21.11 -22.09)"/><path id="Path_265" data-name="Path 265" class="cls-1" d="M89.68,26.47h-.44l0-.44a1,1,0,0,1-.84.52.72.72,0,0,1-.56-.24.92.92,0,0,1-.2-.62v-2.2h.51v2.15a.62.62,0,0,0,.1.38.35.35,0,0,0,.3.12c.26,0,.47-.16.65-.5V23.49h.51Z" transform="translate(-21.11 -22.09)"/><path id="Path_266" data-name="Path 266" class="cls-1" d="M91.87,26.34a1,1,0,0,1-.63.2.7.7,0,0,1-.56-.21.83.83,0,0,1-.2-.59V23.87h-.42v-.38h.42V22.8l.51-.06v.75h.66l-.06.38H91v1.87c0,.26.11.38.33.38a.47.47,0,0,0,.17,0l.19-.09Z" transform="translate(-21.11 -22.09)"/><path id="Path_267" data-name="Path 267" class="cls-1" d="M94.24,25.16H92.51a1.24,1.24,0,0,0,.21.75.62.62,0,0,0,.51.23,1.13,1.13,0,0,0,.36-.06,1.45,1.45,0,0,0,.34-.2l.22.3a1.36,1.36,0,0,1-1,.37,1.08,1.08,0,0,1-.9-.4A1.87,1.87,0,0,1,92,25a2,2,0,0,1,.31-1.16,1,1,0,0,1,.85-.43,1,1,0,0,1,.83.38,1.78,1.78,0,0,1,.28,1.1A2.54,2.54,0,0,1,94.24,25.16Zm-.48-.42c0-.62-.21-.94-.62-.94a.54.54,0,0,0-.45.24,1.45,1.45,0,0,0-.18.76h1.25Z" transform="translate(-21.11 -22.09)"/><path id="Path_268" data-name="Path 268" class="cls-1" d="M63.78,29.64a2.23,2.23,0,0,1,0,2.3,1.15,1.15,0,0,1-1.63.16A1.06,1.06,0,0,1,62,32a2.26,2.26,0,0,1,0-2.3,1.19,1.19,0,0,1,1.67-.12l.12.11Zm-1.4.29a1.55,1.55,0,0,0-.17.87c0,.78.22,1.16.68,1.16s.68-.39.68-1.16a1.8,1.8,0,0,0-.17-.88.61.61,0,0,0-1,0Z" transform="translate(-21.11 -22.09)"/><path id="Path_269" data-name="Path 269" class="cls-1" d="M65.37,28.55a.47.47,0,0,0-.1.32v.45h.67l-.06.38h-.61v2.6h-.51V29.7h-.44v-.38h.44v-.44a.8.8,0,0,1,.23-.6.87.87,0,0,1,.64-.23,1.5,1.5,0,0,1,.66.17l-.15.35a1,1,0,0,0-.46-.11A.41.41,0,0,0,65.37,28.55Z" transform="translate(-21.11 -22.09)"/><path id="Path_270" data-name="Path 270" class="cls-1" d="M69.63,32.29V30.46H68.22v1.83h-.53v-3.9h.53V30h1.41V28.39h.53v3.9Z" transform="translate(-21.11 -22.09)"/><path id="Path_271" data-name="Path 271" class="cls-1" d="M73,31H71.22a1.31,1.31,0,0,0,.21.75.63.63,0,0,0,.51.23,1.15,1.15,0,0,0,.37-.06,1.38,1.38,0,0,0,.33-.2l.23.3a1.4,1.4,0,0,1-1,.37A1.08,1.08,0,0,1,71,32a1.79,1.79,0,0,1-.32-1.14,2,2,0,0,1,.3-1.16,1,1,0,0,1,.85-.43,1,1,0,0,1,.83.39A1.81,1.81,0,0,1,73,30.72C73,30.79,73,30.88,73,31Zm-.49-.42c0-.62-.2-.94-.61-.94a.54.54,0,0,0-.45.24,1.46,1.46,0,0,0-.19.76h1.25Z" transform="translate(-21.11 -22.09)"/><path id="Path_272" data-name="Path 272" class="cls-1" d="M75.43,31.89a.3.3,0,0,0,.16.13l-.11.35a.72.72,0,0,1-.35-.14.53.53,0,0,1-.17-.31.91.91,0,0,1-.81.45.81.81,0,0,1-.63-.25.88.88,0,0,1-.23-.66.85.85,0,0,1,.31-.72,1.4,1.4,0,0,1,.89-.25h.38v-.25a.64.64,0,0,0-.13-.46.51.51,0,0,0-.41-.13,2,2,0,0,0-.73.15l-.12-.35a2.29,2.29,0,0,1,.93-.2.86.86,0,0,1,1,.72,1,1,0,0,1,0,.25v1.4A.52.52,0,0,0,75.43,31.89Zm-.56-.37v-.7h-.33c-.49,0-.73.21-.73.62a.62.62,0,0,0,.12.41.42.42,0,0,0,.34.14.65.65,0,0,0,.6-.47Z" transform="translate(-21.11 -22.09)"/><path id="Path_273" data-name="Path 273" class="cls-1" d="M76.24,32.2a.63.63,0,0,1-.16-.46V28.11l.51-.06v3.68c0,.14.06.22.19.22a.32.32,0,0,0,.16,0l.11.36a.7.7,0,0,1-.38.1A.55.55,0,0,1,76.24,32.2Z" transform="translate(-21.11 -22.09)"/><path id="Path_274" data-name="Path 274" class="cls-1" d="M78.91,32.17a1.07,1.07,0,0,1-.63.2.75.75,0,0,1-.55-.21.78.78,0,0,1-.2-.59V29.7H77.1v-.39h.43v-.68l.51-.06v.74h.65l0,.39H78v1.87c0,.25.1.38.32.38a.57.57,0,0,0,.18,0l.18-.08Z" transform="translate(-21.11 -22.09)"/><path id="Path_275" data-name="Path 275" class="cls-1" d="M81.18,29.48a1,1,0,0,1,.2.65V32.3h-.51V30.19a.77.77,0,0,0-.1-.42.37.37,0,0,0-.3-.13c-.24,0-.47.18-.68.54V32.3h-.51V28.12l.51-.06v1.68a1.3,1.3,0,0,1,.37-.37.8.8,0,0,1,.46-.13A.71.71,0,0,1,81.18,29.48Z" transform="translate(-21.11 -22.09)"/><path id="Path_276" data-name="Path 276" class="cls-1" d="M37.71,32a3.75,3.75,0,0,1,1,2.85,4.21,4.21,0,0,1-1.81,3.81,9,9,0,0,1-5,1.19H27V22.57h4.3a9.65,9.65,0,0,1,5,1.09A3.64,3.64,0,0,1,38.07,27a3.47,3.47,0,0,1-.86,2.41A4.55,4.55,0,0,1,35,30.72,5.65,5.65,0,0,1,37.71,32Zm-7.14-6.85v4.45h1.3c1.68,0,2.52-.76,2.52-2.3a2,2,0,0,0-.66-1.65,3.54,3.54,0,0,0-2.11-.5Zm3.66,11.48A2.24,2.24,0,0,0,35,34.7c0-1.75-1-2.63-2.9-2.63H30.57V37.2h1.35a4.06,4.06,0,0,0,2.31-.55Z" transform="translate(-21.11 -22.09)"/><path id="Path_277" data-name="Path 277" class="cls-1" d="M44.17,22.57v17.3h-3.6V22.57Z" transform="translate(-21.11 -22.09)"/><path id="Path_278" data-name="Path 278" class="cls-1" d="M55.39,39.87v-7.6h-4.8v7.6H47V22.57h3.6v6.85h4.8V22.57H59v17.3Z" transform="translate(-21.11 -22.09)"/><rect id="Rectangle_284" data-name="Rectangle 284" class="cls-1" y="7.56" width="3.24" height="10.22"/></g></g></svg>