<svg xmlns="http://www.w3.org/2000/svg" viewBox="0 0 61.1 25.65"><defs><style>.cls-1{fill:#fff;}</style></defs><g id="Layer_1" data-name="Layer 1"><g id="Group_412" data-name="Group 412"><rect id="Rectangle_288" data-name="Rectangle 288" class="cls-1" x="0.22" y="5.46" width="3.55" height="12.72"/><path id="Path_337" data-name="Path 337" class="cls-1" d="M39.59,23.3a4.6,4.6,0,0,0-3.77,2l-.07.09V23.54H32.2V36.26h3.55v-7.1c0-1.73,1-2.64,2.36-2.64s2.28.91,2.28,2.64v7.1h3.55V28C43.94,25.09,42.31,23.3,39.59,23.3Z" transform="translate(-26.63 -18.08)"/><path id="Path_338" data-name="Path 338" class="cls-1" d="M55.26,25.29l-.07-.09a4.83,4.83,0,0,0-3.94-1.9c-3,0-5.79,2.32-5.79,6.57v.05c0,4.26,2.82,6.57,5.79,6.58a4.64,4.64,0,0,0,3.94-2.06l.07-.1v1.92h3.55V18.38H55.26Zm.05,4.63a3.18,3.18,0,1,1-6.3.83,3.84,3.84,0,0,1,0-.83v0a3.18,3.18,0,1,1,6.3-.83,2.89,2.89,0,0,1,0,.83Z" transform="translate(-26.63 -18.08)"/><path id="Path_339" data-name="Path 339" class="cls-1" d="M87.73,34.25l-2.07-2.09a4.09,4.09,0,0,1-2.94,1.34,3.32,3.32,0,0,1-3.3-3.35,1.77,1.77,0,0,1,0-.23v0a3.31,3.31,0,0,1,3.09-3.53h.06a3.74,3.74,0,0,1,2.91,1.39l2.17-2.33A6.29,6.29,0,0,0,82.6,23.3a6.53,6.53,0,0,0-6.67,6.39V30a6.5,6.5,0,0,0,6.42,6.58h.2A6.42,6.42,0,0,0,87.73,34.25Z" transform="translate(-26.63 -18.08)"/><path id="Union_2" data-name="Union 2" class="cls-1" d="M26.63,20.07a2,2,0,0,0,1.92,2h.06a2,2,0,0,0,2-1.93v-.06h0a1.93,1.93,0,0,0-1.91-2h-.07a2,2,0,0,0-2,1.92v.05h0v0Z" transform="translate(-26.63 -18.08)"/><g id="Group_340" data-name="Group 340"><path id="Path_341" data-name="Path 341" class="cls-1" d="M40.4,39h2.19a2,2,0,0,1,1.51.5,1.4,1.4,0,0,1,.41,1.08h0A1.44,1.44,0,0,1,43.56,42l1.11,1.62H43.18l-.93-1.4h-.56v1.4H40.4Zm2.13,2.22c.44,0,.69-.21.69-.55h0c0-.36-.26-.55-.7-.55h-.84v1.11Z" transform="translate(-26.63 -18.08)"/><path id="Path_342" data-name="Path 342" class="cls-1" d="M46.67,39H50.4v1.09H47.94v.7h2.23v1H47.94v.74h2.49v1.09H46.67Z" transform="translate(-26.63 -18.08)"/><path id="Path_343" data-name="Path 343" class="cls-1" d="M52.29,43l.71-.86a2.36,2.36,0,0,0,1.5.56c.34,0,.53-.12.53-.32h0c0-.2-.16-.3-.79-.45-1-.22-1.73-.5-1.73-1.46h0c0-.86.68-1.48,1.78-1.48a2.91,2.91,0,0,1,1.91.61l-.64.91a2.36,2.36,0,0,0-1.3-.46c-.31,0-.46.14-.46.3v0c0,.21.15.3.8.45,1.06.23,1.72.57,1.72,1.44v0c0,.94-.74,1.51-1.87,1.51A3.27,3.27,0,0,1,52.29,43Z" transform="translate(-26.63 -18.08)"/><path id="Path_344" data-name="Path 344" class="cls-1" d="M58.45,39h3.74v1.09H59.73v.7H62v1H59.73v.74h2.49v1.09H58.45Z" transform="translate(-26.63 -18.08)"/><path id="Path_345" data-name="Path 345" class="cls-1" d="M65.87,39h1.24l2,4.67H67.7l-.34-.82H65.58l-.34.82H63.89ZM67,41.81l-.51-1.32L66,41.81Z" transform="translate(-26.63 -18.08)"/><path id="Path_346" data-name="Path 346" class="cls-1" d="M70.82,39H73a2,2,0,0,1,1.51.5,1.44,1.44,0,0,1,.41,1.08h0A1.46,1.46,0,0,1,74,42l1.11,1.62H73.6l-.93-1.4h-.56v1.4H70.82ZM73,41.22c.44,0,.69-.21.69-.55h0c0-.36-.27-.55-.7-.55H72.1v1.11Z" transform="translate(-26.63 -18.08)"/><path id="Path_347" data-name="Path 347" class="cls-1" d="M76.91,41.33h0a2.37,2.37,0,0,1,2.35-2.41h.09a2.26,2.26,0,0,1,2,1l-1,.75a1.23,1.23,0,0,0-1-.54,1.14,1.14,0,0,0-1.11,1.18v.06a1.14,1.14,0,0,0,1,1.23h.06a1.31,1.31,0,0,0,1-.57l1,.69a2.44,2.44,0,0,1-4.44-1.35Z" transform="translate(-26.63 -18.08)"/><path id="Path_348" data-name="Path 348" class="cls-1" d="M83.43,39h1.29v1.73h1.65V39h1.29v4.64H86.37V41.87H84.72v1.76H83.44Z" transform="translate(-26.63 -18.08)"/></g><path id="Path_349" data-name="Path 349" class="cls-1" d="M68.54,28a.72.72,0,0,0-.74.7v0h0a.72.72,0,0,0,.72.71h0a.71.71,0,0,0,.74-.69v0h0a.71.71,0,0,0-.71-.72Z" transform="translate(-26.63 -18.08)"/><path id="Path_350" data-name="Path 350" class="cls-1" d="M67.91,24a.71.71,0,0,0-.74.69v0h0a.74.74,0,0,0,1.48,0h0a.71.71,0,0,0-.71-.71Z" transform="translate(-26.63 -18.08)"/><path id="Path_351" data-name="Path 351" class="cls-1" d="M69.33,22.83a.72.72,0,0,0-.74.69v0h0a.71.71,0,0,0,.71.71h0a.72.72,0,0,0,.74-.7v0h0a.7.7,0,0,0-.7-.71Z" transform="translate(-26.63 -18.08)"/><path id="Path_352" data-name="Path 352" class="cls-1" d="M66.73,22.75a.71.71,0,0,0-.75.69v0h0a.71.71,0,0,0,.71.71h0a.73.73,0,0,0,.75-.69v0h0a.71.71,0,0,0-.72-.7Z" transform="translate(-26.63 -18.08)"/><path id="Path_353" data-name="Path 353" class="cls-1" d="M62.56,24.32a.73.73,0,0,0-.75.7v0h0a.71.71,0,0,0,.72.71h0a.72.72,0,0,0,.75-.69v0h0a.71.71,0,0,0-.71-.72Z" transform="translate(-26.63 -18.08)"/><path id="Path_354" data-name="Path 354" class="cls-1" d="M61.57,25.78a.72.72,0,0,0-.75.69v0h0a.7.7,0,0,0,.71.71h0a.72.72,0,0,0,.75-.69v0h0a.71.71,0,0,0-.71-.71Z" transform="translate(-26.63 -18.08)"/><path id="Path_355" data-name="Path 355" class="cls-1" d="M70.17,28.68a.73.73,0,0,0-.75.7v0h0a.71.71,0,0,0,.71.71h0a.72.72,0,0,0,.75-.69v0h0a.72.72,0,0,0-.72-.72Z" transform="translate(-26.63 -18.08)"/><path id="Path_356" data-name="Path 356" class="cls-1" d="M73,32.17a.73.73,0,0,0-.75.7v0h0a.71.71,0,0,0,.72.71h0a.71.71,0,0,0,.75-.69v0h0a.71.71,0,0,0-.71-.72Z" transform="translate(-26.63 -18.08)"/><path id="Path_357" data-name="Path 357" class="cls-1" d="M67.06,34.5a.71.71,0,0,0-.74.69v0h0a.71.71,0,0,0,.71.71h0a.73.73,0,0,0,.75-.7v0h0a.73.73,0,0,0-.72-.71Z" transform="translate(-26.63 -18.08)"/><path id="Path_358" data-name="Path 358" class="cls-1" d="M68.74,33.89a.73.73,0,0,0-.75.7v0h0a.75.75,0,0,0,.78.71.76.76,0,0,0,.71-.71h0a.72.72,0,0,0-.72-.72Z" transform="translate(-26.63 -18.08)"/><path id="Path_359" data-name="Path 359" class="cls-1" d="M68.37,35.54a.72.72,0,0,0-.74.69v0h0a.74.74,0,0,0,1.48,0h0a.71.71,0,0,0-.71-.71Z" transform="translate(-26.63 -18.08)"/><path id="Path_360" data-name="Path 360" class="cls-1" d="M62.49,29.7a.73.73,0,0,0-.75.69v0h0a.71.71,0,0,0,.71.71h0a.73.73,0,0,0,.75-.69v0h0a.71.71,0,0,0-.71-.72Z" transform="translate(-26.63 -18.08)"/><path id="Path_361" data-name="Path 361" class="cls-1" d="M62.56,28a.72.72,0,0,0-.75.69v0h0a.7.7,0,0,0,.72.7h0a.72.72,0,0,0,.75-.69v0h0a.71.71,0,0,0-.71-.71Z" transform="translate(-26.63 -18.08)"/><path id="Path_362" data-name="Path 362" class="cls-1" d="M61,28.78a.73.73,0,0,0-.75.7v0h0a.71.71,0,0,0,.72.71h0a.73.73,0,0,0,.75-.7h0a.71.71,0,0,0-.71-.72Z" transform="translate(-26.63 -18.08)"/><path id="Path_363" data-name="Path 363" class="cls-1" d="M68,30.44h0a.81.81,0,0,1,.84-.78.79.79,0,0,1,.78.78h0a.79.79,0,0,1-.79.78h0a.79.79,0,0,1-.81-.75Z" transform="translate(-26.63 -18.08)"/><path id="Path_364" data-name="Path 364" class="cls-1" d="M69.17,31.42a.72.72,0,0,0-.74.69v0h0a.73.73,0,0,0,.72.71h0a.72.72,0,0,0,.74-.7v0h0a.71.71,0,0,0-.71-.71Z" transform="translate(-26.63 -18.08)"/><path id="Path_365" data-name="Path 365" class="cls-1" d="M64.51,35.63h0a.81.81,0,0,1,.85-.77.82.82,0,0,1,.77.77h0a.78.78,0,0,1-.79.78h0a.77.77,0,0,1-.8-.74Z" transform="translate(-26.63 -18.08)"/><path id="Path_366" data-name="Path 366" class="cls-1" d="M64.69,33.29A.72.72,0,0,0,64,34v0h0a.72.72,0,0,0,.72.71h0a.72.72,0,0,0,.74-.69v0h0a.71.71,0,0,0-.71-.71Z" transform="translate(-26.63 -18.08)"/><path id="Path_367" data-name="Path 367" class="cls-1" d="M73.73,26.26A.73.73,0,0,0,73,27h0a.73.73,0,0,0,.78.7.74.74,0,0,0,.71-.71h0a.71.71,0,0,0-.71-.71Z" transform="translate(-26.63 -18.08)"/><path id="Path_368" data-name="Path 368" class="cls-1" d="M73.58,24.64a.72.72,0,0,0-.75.69v0h0a.73.73,0,0,0,.72.71h0a.71.71,0,0,0,.75-.69v0h0a.71.71,0,0,0-.71-.71Z" transform="translate(-26.63 -18.08)"/><path id="Path_369" data-name="Path 369" class="cls-1" d="M63.14,34a.73.73,0,0,0-.75.7v0h0a.73.73,0,0,0,.72.71h0a.71.71,0,0,0,.75-.69v0h0a.71.71,0,0,0-.72-.7Z" transform="translate(-26.63 -18.08)"/><path id="Path_370" data-name="Path 370" class="cls-1" d="M61.49,33.26a.72.72,0,0,0-.74.7v0h0a.72.72,0,0,0,.72.71h0a.72.72,0,0,0,.74-.69v0h0a.71.71,0,0,0-.71-.72Z" transform="translate(-26.63 -18.08)"/><path id="Path_371" data-name="Path 371" class="cls-1" d="M73.73,30.52a.73.73,0,0,0-.75.7v0h0a.71.71,0,0,0,.71.71h0a.72.72,0,0,0,.75-.69v0h0a.72.72,0,0,0-.72-.72Z" transform="translate(-26.63 -18.08)"/><path id="Path_372" data-name="Path 372" class="cls-1" d="M73.05,28.06a1.22,1.22,0,0,0-1.26,1.18v0h0A1.19,1.19,0,0,0,73,30.48h0a1.22,1.22,0,0,0,1.27-1.17v0h0a1.21,1.21,0,0,0-1.22-1.2Z" transform="translate(-26.63 -18.08)"/><path id="Path_373" data-name="Path 373" class="cls-1" d="M63.07,31.26a1.23,1.23,0,0,0-1.27,1.18v0h0A1.21,1.21,0,0,0,63,33.68h0a1.22,1.22,0,0,0,1.26-1.18v0h0a1.21,1.21,0,0,0-1.21-1.2Z" transform="translate(-26.63 -18.08)"/><path id="Path_374" data-name="Path 374" class="cls-1" d="M71,32.83A1.23,1.23,0,0,0,69.75,34v0h0A1.21,1.21,0,0,0,71,35.25h0a1.23,1.23,0,0,0,1.26-1.18v0h0a1.22,1.22,0,0,0-1.22-1.21Z" transform="translate(-26.63 -18.08)"/><path id="Path_375" data-name="Path 375" class="cls-1" d="M64.62,23a1.21,1.21,0,0,0-1.26,1.17v0h0a1.19,1.19,0,0,0,1.21,1.2h0a1.22,1.22,0,0,0,1.27-1.17v0h0A1.21,1.21,0,0,0,64.66,23Z" transform="translate(-26.63 -18.08)"/><path id="Path_376" data-name="Path 376" class="cls-1" d="M66.51,25.13a1.22,1.22,0,0,0-1.26,1.18v0h0a1.19,1.19,0,0,0,1.21,1.2h0a1.22,1.22,0,0,0,1.27-1.17v0h0a1.22,1.22,0,0,0-1.22-1.2Z" transform="translate(-26.63 -18.08)"/><path id="Path_377" data-name="Path 377" class="cls-1" d="M70.58,24.26a2.1,2.1,0,0,0-2.17,2v.05h0a2.07,2.07,0,0,0,2.08,2.07h.07a2.1,2.1,0,0,0,2.18-2v-.06h0a2.08,2.08,0,0,0-2.09-2.07Zm1.33,2.08a1.34,1.34,0,0,1-2.68,0h0a1.34,1.34,0,0,1,2.68,0Z" transform="translate(-26.63 -18.08)"/><path id="Path_378" data-name="Path 378" class="cls-1" d="M65.61,27.8a2.09,2.09,0,0,0-2.17,2v.07a2.17,2.17,0,0,0,4.33,0h0a2.08,2.08,0,0,0-2.09-2.07Zm1.33,2.08a1.34,1.34,0,0,1-2.67,0h0a1.34,1.34,0,0,1,2.67,0Z" transform="translate(-26.63 -18.08)"/><path id="Path_379" data-name="Path 379" class="cls-1" d="M71.31,30.22A1.22,1.22,0,0,0,70,31.39v0h0a1.22,1.22,0,0,0,1.22,1.2h0a1.23,1.23,0,0,0,1.26-1.18v0h0a1.2,1.2,0,0,0-1.21-1.2ZM72,31.43a.66.66,0,0,1-.65.64h0a.63.63,0,0,1-.66-.61v0h0a.66.66,0,0,1,.69-.64A.67.67,0,0,1,72,31.43Z" transform="translate(-26.63 -18.08)"/><path id="Path_380" data-name="Path 380" class="cls-1" d="M67.14,31.84A1.23,1.23,0,0,0,65.87,33v0h0a1.21,1.21,0,0,0,1.22,1.2h0a1.21,1.21,0,0,0,1.26-1.17v0h0a1.21,1.21,0,0,0-1.22-1.2Zm.66,1.21a.67.67,0,0,1-1.33,0h0a.67.67,0,0,1,1.33,0Z" transform="translate(-26.63 -18.08)"/><path id="Path_381" data-name="Path 381" class="cls-1" d="M63.75,25.62a1.22,1.22,0,0,0-1.27,1.17v0h0A1.26,1.26,0,0,0,63.81,28,1.25,1.25,0,0,0,65,26.83h0a1.19,1.19,0,0,0-1.21-1.2Zm.66,1.21a.67.67,0,0,1-.69.63.66.66,0,0,1-.64-.63h0a.67.67,0,0,1,1.33,0Z" transform="translate(-26.63 -18.08)"/></g></g></svg>